<?xml version="1.0" standalone="no"?>
<!-- Copyright 2020 Patrizio Amella. All rights reserved. See License at https://github.com/aPixelInSpace/F-a-maze-ing/blob/main/LICENSE for more information. -->
<svg width="1030" height="640" version="1.1" xmlns="http://www.w3.org/2000/svg"><defs>
                <style>
                    .n {
                        stroke: #333;
                        fill:transparent;
                        stroke-width: 1;
                        stroke-linecap: round;
                        stroke-linejoin: round;
                        //stroke-dasharray: 5;
                    }
                    .b {
                        stroke: #333;
                        fill:transparent;
                        stroke-width: 2;
                        stroke-linecap:round;
                        stroke-linejoin: round;
                        //stroke-dasharray: 5;
                    }
                    .p {
                        stroke: transparent;
                        stroke-width: 0;
                        fill: purple;
                        fill-opacity: 0.4;
                    }
                    .l {
                        stroke: transparent;
                        stroke-width: 0;
                        fill: #70361f;
                        fill-opacity: 0.2;
                    }
                    .c {
                        stroke: transparent;
                        stroke-width: 0;
                        fill: #4287f5;
                    }
                </style>
            </defs><rect width="100%" height="100%" fill="transparent"/><path d="M 20 20 h 30 v 30 h -30 v -30" class="c" fill-opacity="0"/>
<path d="M 50 20 h 30 v 30 h -30 v -30" class="c" fill-opacity="0"/>
<path d="M 20 50 h 30 v 30 h -30 v -30" class="c" fill-opacity="0"/>
<path d="M 20 80 h 30 v 30 h -30 v -30" class="c" fill-opacity="0.01"/>
<path d="M 50 80 h 30 v 30 h -30 v -30" class="c" fill-opacity="0.02"/>
<path d="M 50 50 h 30 v 30 h -30 v -30" class="c" fill-opacity="0.03"/>
<path d="M 80 80 h 30 v 30 h -30 v -30" class="c" fill-opacity="0.03"/>
<path d="M 50 110 h 30 v 30 h -30 v -30" class="c" fill-opacity="0.03"/>
<path d="M 110 80 h 30 v 30 h -30 v -30" class="c" fill-opacity="0.04"/>
<path d="M 20 110 h 30 v 30 h -30 v -30" class="c" fill-opacity="0.04"/>
<path d="M 110 50 h 30 v 30 h -30 v -30" class="c" fill-opacity="0.05"/>
<path d="M 140 80 h 30 v 30 h -30 v -30" class="c" fill-opacity="0.05"/>
<path d="M 20 140 h 30 v 30 h -30 v -30" class="c" fill-opacity="0.05"/>
<path d="M 110 20 h 30 v 30 h -30 v -30" class="c" fill-opacity="0.05"/>
<path d="M 140 50 h 30 v 30 h -30 v -30" class="c" fill-opacity="0.05"/>
<path d="M 170 80 h 30 v 30 h -30 v -30" class="c" fill-opacity="0.05"/>
<path d="M 50 140 h 30 v 30 h -30 v -30" class="c" fill-opacity="0.05"/>
<path d="M 20 170 h 30 v 30 h -30 v -30" class="c" fill-opacity="0.05"/>
<path d="M 80 20 h 30 v 30 h -30 v -30" class="c" fill-opacity="0.06"/>
<path d="M 170 50 h 30 v 30 h -30 v -30" class="c" fill-opacity="0.06"/>
<path d="M 80 140 h 30 v 30 h -30 v -30" class="c" fill-opacity="0.06"/>
<path d="M 50 170 h 30 v 30 h -30 v -30" class="c" fill-opacity="0.06"/>
<path d="M 80 50 h 30 v 30 h -30 v -30" class="c" fill-opacity="0.07"/>
<path d="M 170 20 h 30 v 30 h -30 v -30" class="c" fill-opacity="0.07"/>
<path d="M 200 50 h 30 v 30 h -30 v -30" class="c" fill-opacity="0.07"/>
<path d="M 80 170 h 30 v 30 h -30 v -30" class="c" fill-opacity="0.07"/>
<path d="M 50 200 h 30 v 30 h -30 v -30" class="c" fill-opacity="0.07"/>
<path d="M 140 20 h 30 v 30 h -30 v -30" class="c" fill-opacity="0.08"/>
<path d="M 200 80 h 30 v 30 h -30 v -30" class="c" fill-opacity="0.08"/>
<path d="M 80 200 h 30 v 30 h -30 v -30" class="c" fill-opacity="0.08"/>
<path d="M 50 230 h 30 v 30 h -30 v -30" class="c" fill-opacity="0.08"/>
<path d="M 230 80 h 30 v 30 h -30 v -30" class="c" fill-opacity="0.09"/>
<path d="M 80 230 h 30 v 30 h -30 v -30" class="c" fill-opacity="0.09"/>
<path d="M 230 110 h 30 v 30 h -30 v -30" class="c" fill-opacity="0.1"/>
<path d="M 110 230 h 30 v 30 h -30 v -30" class="c" fill-opacity="0.1"/>
<path d="M 80 260 h 30 v 30 h -30 v -30" class="c" fill-opacity="0.1"/>
<path d="M 140 230 h 30 v 30 h -30 v -30" class="c" fill-opacity="0.11"/>
<path d="M 110 260 h 30 v 30 h -30 v -30" class="c" fill-opacity="0.11"/>
<path d="M 80 290 h 30 v 30 h -30 v -30" class="c" fill-opacity="0.11"/>
<path d="M 140 200 h 30 v 30 h -30 v -30" class="c" fill-opacity="0.12"/>
<path d="M 170 230 h 30 v 30 h -30 v -30" class="c" fill-opacity="0.12"/>
<path d="M 80 320 h 30 v 30 h -30 v -30" class="c" fill-opacity="0.12"/>
<path d="M 140 170 h 30 v 30 h -30 v -30" class="c" fill-opacity="0.13"/>
<path d="M 170 200 h 30 v 30 h -30 v -30" class="c" fill-opacity="0.13"/>
<path d="M 200 230 h 30 v 30 h -30 v -30" class="c" fill-opacity="0.13"/>
<path d="M 110 320 h 30 v 30 h -30 v -30" class="c" fill-opacity="0.13"/>
<path d="M 110 170 h 30 v 30 h -30 v -30" class="c" fill-opacity="0.14"/>
<path d="M 170 170 h 30 v 30 h -30 v -30" class="c" fill-opacity="0.14"/>
<path d="M 200 200 h 30 v 30 h -30 v -30" class="c" fill-opacity="0.14"/>
<path d="M 230 230 h 30 v 30 h -30 v -30" class="c" fill-opacity="0.14"/>
<path d="M 200 260 h 30 v 30 h -30 v -30" class="c" fill-opacity="0.14"/>
<path d="M 140 320 h 30 v 30 h -30 v -30" class="c" fill-opacity="0.14"/>
<path d="M 110 350 h 30 v 30 h -30 v -30" class="c" fill-opacity="0.14"/>
<path d="M 110 140 h 30 v 30 h -30 v -30" class="c" fill-opacity="0.15"/>
<path d="M 110 200 h 30 v 30 h -30 v -30" class="c" fill-opacity="0.15"/>
<path d="M 200 170 h 30 v 30 h -30 v -30" class="c" fill-opacity="0.15"/>
<path d="M 230 200 h 30 v 30 h -30 v -30" class="c" fill-opacity="0.15"/>
<path d="M 260 230 h 30 v 30 h -30 v -30" class="c" fill-opacity="0.15"/>
<path d="M 170 260 h 30 v 30 h -30 v -30" class="c" fill-opacity="0.15"/>
<path d="M 230 260 h 30 v 30 h -30 v -30" class="c" fill-opacity="0.15"/>
<path d="M 170 320 h 30 v 30 h -30 v -30" class="c" fill-opacity="0.15"/>
<path d="M 140 350 h 30 v 30 h -30 v -30" class="c" fill-opacity="0.15"/>
<path d="M 230 170 h 30 v 30 h -30 v -30" class="c" fill-opacity="0.15"/>
<path d="M 140 260 h 30 v 30 h -30 v -30" class="c" fill-opacity="0.15"/>
<path d="M 170 290 h 30 v 30 h -30 v -30" class="c" fill-opacity="0.15"/>
<path d="M 170 350 h 30 v 30 h -30 v -30" class="c" fill-opacity="0.15"/>
<path d="M 140 380 h 30 v 30 h -30 v -30" class="c" fill-opacity="0.15"/>
<path d="M 230 140 h 30 v 30 h -30 v -30" class="c" fill-opacity="0.16"/>
<path d="M 140 290 h 30 v 30 h -30 v -30" class="c" fill-opacity="0.16"/>
<path d="M 110 380 h 30 v 30 h -30 v -30" class="c" fill-opacity="0.16"/>
<path d="M 200 140 h 30 v 30 h -30 v -30" class="c" fill-opacity="0.17"/>
<path d="M 260 140 h 30 v 30 h -30 v -30" class="c" fill-opacity="0.17"/>
<path d="M 110 290 h 30 v 30 h -30 v -30" class="c" fill-opacity="0.17"/>
<path d="M 80 380 h 30 v 30 h -30 v -30" class="c" fill-opacity="0.17"/>
<path d="M 110 410 h 30 v 30 h -30 v -30" class="c" fill-opacity="0.17"/>
<path d="M 200 110 h 30 v 30 h -30 v -30" class="c" fill-opacity="0.18"/>
<path d="M 290 140 h 30 v 30 h -30 v -30" class="c" fill-opacity="0.18"/>
<path d="M 80 350 h 30 v 30 h -30 v -30" class="c" fill-opacity="0.18"/>
<path d="M 80 410 h 30 v 30 h -30 v -30" class="c" fill-opacity="0.18"/>
<path d="M 140 410 h 30 v 30 h -30 v -30" class="c" fill-opacity="0.18"/>
<path d="M 170 110 h 30 v 30 h -30 v -30" class="c" fill-opacity="0.19"/>
<path d="M 320 140 h 30 v 30 h -30 v -30" class="c" fill-opacity="0.19"/>
<path d="M 50 350 h 30 v 30 h -30 v -30" class="c" fill-opacity="0.19"/>
<path d="M 50 410 h 30 v 30 h -30 v -30" class="c" fill-opacity="0.19"/>
<path d="M 140 440 h 30 v 30 h -30 v -30" class="c" fill-opacity="0.19"/>
<path d="M 140 110 h 30 v 30 h -30 v -30" class="c" fill-opacity="0.2"/>
<path d="M 170 140 h 30 v 30 h -30 v -30" class="c" fill-opacity="0.2"/>
<path d="M 320 110 h 30 v 30 h -30 v -30" class="c" fill-opacity="0.2"/>
<path d="M 350 140 h 30 v 30 h -30 v -30" class="c" fill-opacity="0.2"/>
<path d="M 20 350 h 30 v 30 h -30 v -30" class="c" fill-opacity="0.2"/>
<path d="M 50 320 h 30 v 30 h -30 v -30" class="c" fill-opacity="0.2"/>
<path d="M 20 410 h 30 v 30 h -30 v -30" class="c" fill-opacity="0.2"/>
<path d="M 50 440 h 30 v 30 h -30 v -30" class="c" fill-opacity="0.2"/>
<path d="M 110 440 h 30 v 30 h -30 v -30" class="c" fill-opacity="0.2"/>
<path d="M 170 440 h 30 v 30 h -30 v -30" class="c" fill-opacity="0.2"/>
<path d="M 110 110 h 30 v 30 h -30 v -30" class="c" fill-opacity="0.21"/>
<path d="M 140 140 h 30 v 30 h -30 v -30" class="c" fill-opacity="0.21"/>
<path d="M 290 110 h 30 v 30 h -30 v -30" class="c" fill-opacity="0.21"/>
<path d="M 320 80 h 30 v 30 h -30 v -30" class="c" fill-opacity="0.21"/>
<path d="M 350 170 h 30 v 30 h -30 v -30" class="c" fill-opacity="0.21"/>
<path d="M 20 320 h 30 v 30 h -30 v -30" class="c" fill-opacity="0.21"/>
<path d="M 20 380 h 30 v 30 h -30 v -30" class="c" fill-opacity="0.21"/>
<path d="M 50 290 h 30 v 30 h -30 v -30" class="c" fill-opacity="0.21"/>
<path d="M 20 440 h 30 v 30 h -30 v -30" class="c" fill-opacity="0.21"/>
<path d="M 80 440 h 30 v 30 h -30 v -30" class="c" fill-opacity="0.21"/>
<path d="M 170 470 h 30 v 30 h -30 v -30" class="c" fill-opacity="0.21"/>
<path d="M 80 110 h 30 v 30 h -30 v -30" class="c" fill-opacity="0.22"/>
<path d="M 260 110 h 30 v 30 h -30 v -30" class="c" fill-opacity="0.22"/>
<path d="M 320 170 h 30 v 30 h -30 v -30" class="c" fill-opacity="0.22"/>
<path d="M 350 200 h 30 v 30 h -30 v -30" class="c" fill-opacity="0.22"/>
<path d="M 50 380 h 30 v 30 h -30 v -30" class="c" fill-opacity="0.22"/>
<path d="M 20 290 h 30 v 30 h -30 v -30" class="c" fill-opacity="0.22"/>
<path d="M 50 260 h 30 v 30 h -30 v -30" class="c" fill-opacity="0.22"/>
<path d="M 80 470 h 30 v 30 h -30 v -30" class="c" fill-opacity="0.22"/>
<path d="M 200 470 h 30 v 30 h -30 v -30" class="c" fill-opacity="0.22"/>
<path d="M 260 80 h 30 v 30 h -30 v -30" class="c" fill-opacity="0.23"/>
<path d="M 290 170 h 30 v 30 h -30 v -30" class="c" fill-opacity="0.23"/>
<path d="M 320 200 h 30 v 30 h -30 v -30" class="c" fill-opacity="0.23"/>
<path d="M 350 230 h 30 v 30 h -30 v -30" class="c" fill-opacity="0.23"/>
<path d="M 20 260 h 30 v 30 h -30 v -30" class="c" fill-opacity="0.23"/>
<path d="M 230 470 h 30 v 30 h -30 v -30" class="c" fill-opacity="0.23"/>
<path d="M 200 500 h 30 v 30 h -30 v -30" class="c" fill-opacity="0.23"/>
<path d="M 260 50 h 30 v 30 h -30 v -30" class="c" fill-opacity="0.24"/>
<path d="M 290 200 h 30 v 30 h -30 v -30" class="c" fill-opacity="0.24"/>
<path d="M 20 230 h 30 v 30 h -30 v -30" class="c" fill-opacity="0.24"/>
<path d="M 230 440 h 30 v 30 h -30 v -30" class="c" fill-opacity="0.24"/>
<path d="M 230 500 h 30 v 30 h -30 v -30" class="c" fill-opacity="0.24"/>
<path d="M 170 500 h 30 v 30 h -30 v -30" class="c" fill-opacity="0.24"/>
<path d="M 260 20 h 30 v 30 h -30 v -30" class="c" fill-opacity="0.25"/>
<path d="M 290 50 h 30 v 30 h -30 v -30" class="c" fill-opacity="0.25"/>
<path d="M 260 200 h 30 v 30 h -30 v -30" class="c" fill-opacity="0.25"/>
<path d="M 20 200 h 30 v 30 h -30 v -30" class="c" fill-opacity="0.25"/>
<path d="M 200 440 h 30 v 30 h -30 v -30" class="c" fill-opacity="0.25"/>
<path d="M 230 410 h 30 v 30 h -30 v -30" class="c" fill-opacity="0.25"/>
<path d="M 260 440 h 30 v 30 h -30 v -30" class="c" fill-opacity="0.25"/>
<path d="M 140 500 h 30 v 30 h -30 v -30" class="c" fill-opacity="0.25"/>
<path d="M 230 20 h 30 v 30 h -30 v -30" class="c" fill-opacity="0.25"/>
<path d="M 290 20 h 30 v 30 h -30 v -30" class="c" fill-opacity="0.25"/>
<path d="M 290 80 h 30 v 30 h -30 v -30" class="c" fill-opacity="0.25"/>
<path d="M 260 170 h 30 v 30 h -30 v -30" class="c" fill-opacity="0.25"/>
<path d="M 200 410 h 30 v 30 h -30 v -30" class="c" fill-opacity="0.25"/>
<path d="M 110 500 h 30 v 30 h -30 v -30" class="c" fill-opacity="0.25"/>
<path d="M 140 530 h 30 v 30 h -30 v -30" class="c" fill-opacity="0.25"/>
<path d="M 200 20 h 30 v 30 h -30 v -30" class="c" fill-opacity="0.26"/>
<path d="M 230 50 h 30 v 30 h -30 v -30" class="c" fill-opacity="0.26"/>
<path d="M 320 20 h 30 v 30 h -30 v -30" class="c" fill-opacity="0.26"/>
<path d="M 170 410 h 30 v 30 h -30 v -30" class="c" fill-opacity="0.26"/>
<path d="M 200 380 h 30 v 30 h -30 v -30" class="c" fill-opacity="0.26"/>
<path d="M 110 470 h 30 v 30 h -30 v -30" class="c" fill-opacity="0.26"/>
<path d="M 110 530 h 30 v 30 h -30 v -30" class="c" fill-opacity="0.26"/>
<path d="M 170 530 h 30 v 30 h -30 v -30" class="c" fill-opacity="0.26"/>
<path d="M 350 20 h 30 v 30 h -30 v -30" class="c" fill-opacity="0.27"/>
<path d="M 320 50 h 30 v 30 h -30 v -30" class="c" fill-opacity="0.27"/>
<path d="M 170 380 h 30 v 30 h -30 v -30" class="c" fill-opacity="0.27"/>
<path d="M 200 350 h 30 v 30 h -30 v -30" class="c" fill-opacity="0.27"/>
<path d="M 140 470 h 30 v 30 h -30 v -30" class="c" fill-opacity="0.27"/>
<path d="M 80 530 h 30 v 30 h -30 v -30" class="c" fill-opacity="0.27"/>
<path d="M 200 530 h 30 v 30 h -30 v -30" class="c" fill-opacity="0.27"/>
<path d="M 350 50 h 30 v 30 h -30 v -30" class="c" fill-opacity="0.28"/>
<path d="M 200 320 h 30 v 30 h -30 v -30" class="c" fill-opacity="0.28"/>
<path d="M 230 350 h 30 v 30 h -30 v -30" class="c" fill-opacity="0.28"/>
<path d="M 50 530 h 30 v 30 h -30 v -30" class="c" fill-opacity="0.28"/>
<path d="M 80 500 h 30 v 30 h -30 v -30" class="c" fill-opacity="0.28"/>
<path d="M 200 560 h 30 v 30 h -30 v -30" class="c" fill-opacity="0.28"/>
<path d="M 380 50 h 30 v 30 h -30 v -30" class="c" fill-opacity="0.29"/>
<path d="M 350 80 h 30 v 30 h -30 v -30" class="c" fill-opacity="0.29"/>
<path d="M 230 380 h 30 v 30 h -30 v -30" class="c" fill-opacity="0.29"/>
<path d="M 20 530 h 30 v 30 h -30 v -30" class="c" fill-opacity="0.29"/>
<path d="M 50 500 h 30 v 30 h -30 v -30" class="c" fill-opacity="0.29"/>
<path d="M 170 560 h 30 v 30 h -30 v -30" class="c" fill-opacity="0.29"/>
<path d="M 230 560 h 30 v 30 h -30 v -30" class="c" fill-opacity="0.29"/>
<path d="M 380 20 h 30 v 30 h -30 v -30" class="c" fill-opacity="0.3"/>
<path d="M 410 50 h 30 v 30 h -30 v -30" class="c" fill-opacity="0.3"/>
<path d="M 350 110 h 30 v 30 h -30 v -30" class="c" fill-opacity="0.3"/>
<path d="M 260 380 h 30 v 30 h -30 v -30" class="c" fill-opacity="0.3"/>
<path d="M 20 560 h 30 v 30 h -30 v -30" class="c" fill-opacity="0.3"/>
<path d="M 20 500 h 30 v 30 h -30 v -30" class="c" fill-opacity="0.3"/>
<path d="M 50 470 h 30 v 30 h -30 v -30" class="c" fill-opacity="0.3"/>
<path d="M 140 560 h 30 v 30 h -30 v -30" class="c" fill-opacity="0.3"/>
<path d="M 230 530 h 30 v 30 h -30 v -30" class="c" fill-opacity="0.3"/>
<path d="M 230 590 h 30 v 30 h -30 v -30" class="c" fill-opacity="0.3"/>
<path d="M 410 20 h 30 v 30 h -30 v -30" class="c" fill-opacity="0.31"/>
<path d="M 440 50 h 30 v 30 h -30 v -30" class="c" fill-opacity="0.31"/>
<path d="M 380 110 h 30 v 30 h -30 v -30" class="c" fill-opacity="0.31"/>
<path d="M 260 350 h 30 v 30 h -30 v -30" class="c" fill-opacity="0.31"/>
<path d="M 260 410 h 30 v 30 h -30 v -30" class="c" fill-opacity="0.31"/>
<path d="M 20 470 h 30 v 30 h -30 v -30" class="c" fill-opacity="0.31"/>
<path d="M 110 560 h 30 v 30 h -30 v -30" class="c" fill-opacity="0.31"/>
<path d="M 200 590 h 30 v 30 h -30 v -30" class="c" fill-opacity="0.31"/>
<path d="M 260 590 h 30 v 30 h -30 v -30" class="c" fill-opacity="0.31"/>
<path d="M 380 80 h 30 v 30 h -30 v -30" class="c" fill-opacity="0.32"/>
<path d="M 410 110 h 30 v 30 h -30 v -30" class="c" fill-opacity="0.32"/>
<path d="M 260 320 h 30 v 30 h -30 v -30" class="c" fill-opacity="0.32"/>
<path d="M 290 350 h 30 v 30 h -30 v -30" class="c" fill-opacity="0.32"/>
<path d="M 110 590 h 30 v 30 h -30 v -30" class="c" fill-opacity="0.32"/>
<path d="M 260 560 h 30 v 30 h -30 v -30" class="c" fill-opacity="0.32"/>
<path d="M 410 80 h 30 v 30 h -30 v -30" class="c" fill-opacity="0.33"/>
<path d="M 230 320 h 30 v 30 h -30 v -30" class="c" fill-opacity="0.33"/>
<path d="M 290 320 h 30 v 30 h -30 v -30" class="c" fill-opacity="0.33"/>
<path d="M 290 380 h 30 v 30 h -30 v -30" class="c" fill-opacity="0.33"/>
<path d="M 80 590 h 30 v 30 h -30 v -30" class="c" fill-opacity="0.33"/>
<path d="M 140 590 h 30 v 30 h -30 v -30" class="c" fill-opacity="0.33"/>
<path d="M 290 560 h 30 v 30 h -30 v -30" class="c" fill-opacity="0.33"/>
<path d="M 440 80 h 30 v 30 h -30 v -30" class="c" fill-opacity="0.34"/>
<path d="M 230 290 h 30 v 30 h -30 v -30" class="c" fill-opacity="0.34"/>
<path d="M 320 320 h 30 v 30 h -30 v -30" class="c" fill-opacity="0.34"/>
<path d="M 320 380 h 30 v 30 h -30 v -30" class="c" fill-opacity="0.34"/>
<path d="M 50 590 h 30 v 30 h -30 v -30" class="c" fill-opacity="0.34"/>
<path d="M 80 560 h 30 v 30 h -30 v -30" class="c" fill-opacity="0.34"/>
<path d="M 170 590 h 30 v 30 h -30 v -30" class="c" fill-opacity="0.34"/>
<path d="M 290 590 h 30 v 30 h -30 v -30" class="c" fill-opacity="0.34"/>
<path d="M 440 110 h 30 v 30 h -30 v -30" class="c" fill-opacity="0.35"/>
<path d="M 200 290 h 30 v 30 h -30 v -30" class="c" fill-opacity="0.35"/>
<path d="M 260 290 h 30 v 30 h -30 v -30" class="c" fill-opacity="0.35"/>
<path d="M 320 290 h 30 v 30 h -30 v -30" class="c" fill-opacity="0.35"/>
<path d="M 320 350 h 30 v 30 h -30 v -30" class="c" fill-opacity="0.35"/>
<path d="M 350 380 h 30 v 30 h -30 v -30" class="c" fill-opacity="0.35"/>
<path d="M 20 590 h 30 v 30 h -30 v -30" class="c" fill-opacity="0.35"/>
<path d="M 50 560 h 30 v 30 h -30 v -30" class="c" fill-opacity="0.35"/>
<path d="M 320 590 h 30 v 30 h -30 v -30" class="c" fill-opacity="0.35"/>
<path d="M 470 110 h 30 v 30 h -30 v -30" class="c" fill-opacity="0.35"/>
<path d="M 440 140 h 30 v 30 h -30 v -30" class="c" fill-opacity="0.35"/>
<path d="M 260 260 h 30 v 30 h -30 v -30" class="c" fill-opacity="0.35"/>
<path d="M 350 290 h 30 v 30 h -30 v -30" class="c" fill-opacity="0.35"/>
<path d="M 320 560 h 30 v 30 h -30 v -30" class="c" fill-opacity="0.35"/>
<path d="M 470 140 h 30 v 30 h -30 v -30" class="c" fill-opacity="0.36"/>
<path d="M 410 140 h 30 v 30 h -30 v -30" class="c" fill-opacity="0.36"/>
<path d="M 440 170 h 30 v 30 h -30 v -30" class="c" fill-opacity="0.36"/>
<path d="M 380 290 h 30 v 30 h -30 v -30" class="c" fill-opacity="0.36"/>
<path d="M 500 140 h 30 v 30 h -30 v -30" class="c" fill-opacity="0.37"/>
<path d="M 380 140 h 30 v 30 h -30 v -30" class="c" fill-opacity="0.37"/>
<path d="M 470 170 h 30 v 30 h -30 v -30" class="c" fill-opacity="0.37"/>
<path d="M 440 200 h 30 v 30 h -30 v -30" class="c" fill-opacity="0.37"/>
<path d="M 380 260 h 30 v 30 h -30 v -30" class="c" fill-opacity="0.37"/>
<path d="M 410 290 h 30 v 30 h -30 v -30" class="c" fill-opacity="0.37"/>
<path d="M 500 110 h 30 v 30 h -30 v -30" class="c" fill-opacity="0.38"/>
<path d="M 500 170 h 30 v 30 h -30 v -30" class="c" fill-opacity="0.38"/>
<path d="M 470 200 h 30 v 30 h -30 v -30" class="c" fill-opacity="0.38"/>
<path d="M 350 260 h 30 v 30 h -30 v -30" class="c" fill-opacity="0.38"/>
<path d="M 410 260 h 30 v 30 h -30 v -30" class="c" fill-opacity="0.38"/>
<path d="M 410 320 h 30 v 30 h -30 v -30" class="c" fill-opacity="0.38"/>
<path d="M 530 110 h 30 v 30 h -30 v -30" class="c" fill-opacity="0.39"/>
<path d="M 320 260 h 30 v 30 h -30 v -30" class="c" fill-opacity="0.39"/>
<path d="M 410 230 h 30 v 30 h -30 v -30" class="c" fill-opacity="0.39"/>
<path d="M 530 80 h 30 v 30 h -30 v -30" class="c" fill-opacity="0.4"/>
<path d="M 530 140 h 30 v 30 h -30 v -30" class="c" fill-opacity="0.4"/>
<path d="M 290 260 h 30 v 30 h -30 v -30" class="c" fill-opacity="0.4"/>
<path d="M 320 230 h 30 v 30 h -30 v -30" class="c" fill-opacity="0.4"/>
<path d="M 380 230 h 30 v 30 h -30 v -30" class="c" fill-opacity="0.4"/>
<path d="M 410 200 h 30 v 30 h -30 v -30" class="c" fill-opacity="0.4"/>
<path d="M 440 230 h 30 v 30 h -30 v -30" class="c" fill-opacity="0.4"/>
<path d="M 530 50 h 30 v 30 h -30 v -30" class="c" fill-opacity="0.41"/>
<path d="M 560 140 h 30 v 30 h -30 v -30" class="c" fill-opacity="0.41"/>
<path d="M 530 170 h 30 v 30 h -30 v -30" class="c" fill-opacity="0.41"/>
<path d="M 290 230 h 30 v 30 h -30 v -30" class="c" fill-opacity="0.41"/>
<path d="M 290 290 h 30 v 30 h -30 v -30" class="c" fill-opacity="0.41"/>
<path d="M 410 170 h 30 v 30 h -30 v -30" class="c" fill-opacity="0.41"/>
<path d="M 470 230 h 30 v 30 h -30 v -30" class="c" fill-opacity="0.41"/>
<path d="M 500 50 h 30 v 30 h -30 v -30" class="c" fill-opacity="0.42"/>
<path d="M 590 140 h 30 v 30 h -30 v -30" class="c" fill-opacity="0.42"/>
<path d="M 560 170 h 30 v 30 h -30 v -30" class="c" fill-opacity="0.42"/>
<path d="M 530 200 h 30 v 30 h -30 v -30" class="c" fill-opacity="0.42"/>
<path d="M 380 170 h 30 v 30 h -30 v -30" class="c" fill-opacity="0.42"/>
<path d="M 500 230 h 30 v 30 h -30 v -30" class="c" fill-opacity="0.42"/>
<path d="M 470 260 h 30 v 30 h -30 v -30" class="c" fill-opacity="0.42"/>
<path d="M 470 50 h 30 v 30 h -30 v -30" class="c" fill-opacity="0.43"/>
<path d="M 500 80 h 30 v 30 h -30 v -30" class="c" fill-opacity="0.43"/>
<path d="M 620 140 h 30 v 30 h -30 v -30" class="c" fill-opacity="0.43"/>
<path d="M 590 170 h 30 v 30 h -30 v -30" class="c" fill-opacity="0.43"/>
<path d="M 500 200 h 30 v 30 h -30 v -30" class="c" fill-opacity="0.43"/>
<path d="M 560 200 h 30 v 30 h -30 v -30" class="c" fill-opacity="0.43"/>
<path d="M 530 230 h 30 v 30 h -30 v -30" class="c" fill-opacity="0.43"/>
<path d="M 380 200 h 30 v 30 h -30 v -30" class="c" fill-opacity="0.43"/>
<path d="M 440 260 h 30 v 30 h -30 v -30" class="c" fill-opacity="0.43"/>
<path d="M 470 290 h 30 v 30 h -30 v -30" class="c" fill-opacity="0.43"/>
<path d="M 470 20 h 30 v 30 h -30 v -30" class="c" fill-opacity="0.44"/>
<path d="M 470 80 h 30 v 30 h -30 v -30" class="c" fill-opacity="0.44"/>
<path d="M 620 170 h 30 v 30 h -30 v -30" class="c" fill-opacity="0.44"/>
<path d="M 590 200 h 30 v 30 h -30 v -30" class="c" fill-opacity="0.44"/>
<path d="M 440 290 h 30 v 30 h -30 v -30" class="c" fill-opacity="0.44"/>
<path d="M 470 320 h 30 v 30 h -30 v -30" class="c" fill-opacity="0.44"/>
<path d="M 440 20 h 30 v 30 h -30 v -30" class="c" fill-opacity="0.45"/>
<path d="M 500 20 h 30 v 30 h -30 v -30" class="c" fill-opacity="0.45"/>
<path d="M 650 170 h 30 v 30 h -30 v -30" class="c" fill-opacity="0.45"/>
<path d="M 620 200 h 30 v 30 h -30 v -30" class="c" fill-opacity="0.45"/>
<path d="M 500 320 h 30 v 30 h -30 v -30" class="c" fill-opacity="0.45"/>
<path d="M 470 350 h 30 v 30 h -30 v -30" class="c" fill-opacity="0.45"/>
<path d="M 530 20 h 30 v 30 h -30 v -30" class="c" fill-opacity="0.45"/>
<path d="M 650 200 h 30 v 30 h -30 v -30" class="c" fill-opacity="0.45"/>
<path d="M 500 290 h 30 v 30 h -30 v -30" class="c" fill-opacity="0.45"/>
<path d="M 500 350 h 30 v 30 h -30 v -30" class="c" fill-opacity="0.45"/>
<path d="M 560 20 h 30 v 30 h -30 v -30" class="c" fill-opacity="0.46"/>
<path d="M 500 260 h 30 v 30 h -30 v -30" class="c" fill-opacity="0.46"/>
<path d="M 530 290 h 30 v 30 h -30 v -30" class="c" fill-opacity="0.46"/>
<path d="M 530 350 h 30 v 30 h -30 v -30" class="c" fill-opacity="0.46"/>
<path d="M 560 290 h 30 v 30 h -30 v -30" class="c" fill-opacity="0.47"/>
<path d="M 530 320 h 30 v 30 h -30 v -30" class="c" fill-opacity="0.47"/>
<path d="M 590 290 h 30 v 30 h -30 v -30" class="c" fill-opacity="0.48"/>
<path d="M 560 320 h 30 v 30 h -30 v -30" class="c" fill-opacity="0.48"/>
<path d="M 590 260 h 30 v 30 h -30 v -30" class="c" fill-opacity="0.49"/>
<path d="M 620 290 h 30 v 30 h -30 v -30" class="c" fill-opacity="0.49"/>
<path d="M 590 320 h 30 v 30 h -30 v -30" class="c" fill-opacity="0.49"/>
<path d="M 560 350 h 30 v 30 h -30 v -30" class="c" fill-opacity="0.49"/>
<path d="M 560 260 h 30 v 30 h -30 v -30" class="c" fill-opacity="0.5"/>
<path d="M 620 260 h 30 v 30 h -30 v -30" class="c" fill-opacity="0.5"/>
<path d="M 530 260 h 30 v 30 h -30 v -30" class="c" fill-opacity="0.51"/>
<path d="M 560 230 h 30 v 30 h -30 v -30" class="c" fill-opacity="0.51"/>
<path d="M 650 260 h 30 v 30 h -30 v -30" class="c" fill-opacity="0.51"/>
<path d="M 650 230 h 30 v 30 h -30 v -30" class="c" fill-opacity="0.52"/>
<path d="M 650 290 h 30 v 30 h -30 v -30" class="c" fill-opacity="0.52"/>
<path d="M 620 230 h 30 v 30 h -30 v -30" class="c" fill-opacity="0.53"/>
<path d="M 680 290 h 30 v 30 h -30 v -30" class="c" fill-opacity="0.53"/>
<path d="M 650 320 h 30 v 30 h -30 v -30" class="c" fill-opacity="0.53"/>
<path d="M 590 230 h 30 v 30 h -30 v -30" class="c" fill-opacity="0.54"/>
<path d="M 680 260 h 30 v 30 h -30 v -30" class="c" fill-opacity="0.54"/>
<path d="M 710 290 h 30 v 30 h -30 v -30" class="c" fill-opacity="0.54"/>
<path d="M 620 320 h 30 v 30 h -30 v -30" class="c" fill-opacity="0.54"/>
<path d="M 680 230 h 30 v 30 h -30 v -30" class="c" fill-opacity="0.55"/>
<path d="M 710 260 h 30 v 30 h -30 v -30" class="c" fill-opacity="0.55"/>
<path d="M 740 290 h 30 v 30 h -30 v -30" class="c" fill-opacity="0.55"/>
<path d="M 620 350 h 30 v 30 h -30 v -30" class="c" fill-opacity="0.55"/>
<path d="M 680 200 h 30 v 30 h -30 v -30" class="c" fill-opacity="0.55"/>
<path d="M 740 260 h 30 v 30 h -30 v -30" class="c" fill-opacity="0.55"/>
<path d="M 740 320 h 30 v 30 h -30 v -30" class="c" fill-opacity="0.55"/>
<path d="M 620 380 h 30 v 30 h -30 v -30" class="c" fill-opacity="0.55"/>
<path d="M 680 170 h 30 v 30 h -30 v -30" class="c" fill-opacity="0.56"/>
<path d="M 710 320 h 30 v 30 h -30 v -30" class="c" fill-opacity="0.56"/>
<path d="M 770 320 h 30 v 30 h -30 v -30" class="c" fill-opacity="0.56"/>
<path d="M 740 350 h 30 v 30 h -30 v -30" class="c" fill-opacity="0.56"/>
<path d="M 680 140 h 30 v 30 h -30 v -30" class="c" fill-opacity="0.57"/>
<path d="M 710 170 h 30 v 30 h -30 v -30" class="c" fill-opacity="0.57"/>
<path d="M 680 320 h 30 v 30 h -30 v -30" class="c" fill-opacity="0.57"/>
<path d="M 800 320 h 30 v 30 h -30 v -30" class="c" fill-opacity="0.57"/>
<path d="M 710 350 h 30 v 30 h -30 v -30" class="c" fill-opacity="0.57"/>
<path d="M 740 380 h 30 v 30 h -30 v -30" class="c" fill-opacity="0.57"/>
<path d="M 650 140 h 30 v 30 h -30 v -30" class="c" fill-opacity="0.58"/>
<path d="M 710 200 h 30 v 30 h -30 v -30" class="c" fill-opacity="0.58"/>
<path d="M 800 290 h 30 v 30 h -30 v -30" class="c" fill-opacity="0.58"/>
<path d="M 680 350 h 30 v 30 h -30 v -30" class="c" fill-opacity="0.58"/>
<path d="M 710 380 h 30 v 30 h -30 v -30" class="c" fill-opacity="0.58"/>
<path d="M 770 380 h 30 v 30 h -30 v -30" class="c" fill-opacity="0.58"/>
<path d="M 740 410 h 30 v 30 h -30 v -30" class="c" fill-opacity="0.58"/>
<path d="M 650 110 h 30 v 30 h -30 v -30" class="c" fill-opacity="0.59"/>
<path d="M 770 290 h 30 v 30 h -30 v -30" class="c" fill-opacity="0.59"/>
<path d="M 650 350 h 30 v 30 h -30 v -30" class="c" fill-opacity="0.59"/>
<path d="M 770 410 h 30 v 30 h -30 v -30" class="c" fill-opacity="0.59"/>
<path d="M 740 440 h 30 v 30 h -30 v -30" class="c" fill-opacity="0.59"/>
<path d="M 620 110 h 30 v 30 h -30 v -30" class="c" fill-opacity="0.6"/>
<path d="M 770 260 h 30 v 30 h -30 v -30" class="c" fill-opacity="0.6"/>
<path d="M 800 410 h 30 v 30 h -30 v -30" class="c" fill-opacity="0.6"/>
<path d="M 710 440 h 30 v 30 h -30 v -30" class="c" fill-opacity="0.6"/>
<path d="M 590 110 h 30 v 30 h -30 v -30" class="c" fill-opacity="0.61"/>
<path d="M 620 80 h 30 v 30 h -30 v -30" class="c" fill-opacity="0.61"/>
<path d="M 800 260 h 30 v 30 h -30 v -30" class="c" fill-opacity="0.61"/>
<path d="M 800 380 h 30 v 30 h -30 v -30" class="c" fill-opacity="0.61"/>
<path d="M 800 440 h 30 v 30 h -30 v -30" class="c" fill-opacity="0.61"/>
<path d="M 710 410 h 30 v 30 h -30 v -30" class="c" fill-opacity="0.61"/>
<path d="M 590 80 h 30 v 30 h -30 v -30" class="c" fill-opacity="0.62"/>
<path d="M 620 50 h 30 v 30 h -30 v -30" class="c" fill-opacity="0.62"/>
<path d="M 650 80 h 30 v 30 h -30 v -30" class="c" fill-opacity="0.62"/>
<path d="M 830 380 h 30 v 30 h -30 v -30" class="c" fill-opacity="0.62"/>
<path d="M 830 440 h 30 v 30 h -30 v -30" class="c" fill-opacity="0.62"/>
<path d="M 800 470 h 30 v 30 h -30 v -30" class="c" fill-opacity="0.62"/>
<path d="M 680 410 h 30 v 30 h -30 v -30" class="c" fill-opacity="0.62"/>
<path d="M 560 80 h 30 v 30 h -30 v -30" class="c" fill-opacity="0.63"/>
<path d="M 590 50 h 30 v 30 h -30 v -30" class="c" fill-opacity="0.63"/>
<path d="M 830 410 h 30 v 30 h -30 v -30" class="c" fill-opacity="0.63"/>
<path d="M 860 440 h 30 v 30 h -30 v -30" class="c" fill-opacity="0.63"/>
<path d="M 800 500 h 30 v 30 h -30 v -30" class="c" fill-opacity="0.63"/>
<path d="M 650 410 h 30 v 30 h -30 v -30" class="c" fill-opacity="0.63"/>
<path d="M 680 380 h 30 v 30 h -30 v -30" class="c" fill-opacity="0.63"/>
<path d="M 560 50 h 30 v 30 h -30 v -30" class="c" fill-opacity="0.64"/>
<path d="M 560 110 h 30 v 30 h -30 v -30" class="c" fill-opacity="0.64"/>
<path d="M 590 20 h 30 v 30 h -30 v -30" class="c" fill-opacity="0.64"/>
<path d="M 860 410 h 30 v 30 h -30 v -30" class="c" fill-opacity="0.64"/>
<path d="M 890 440 h 30 v 30 h -30 v -30" class="c" fill-opacity="0.64"/>
<path d="M 770 500 h 30 v 30 h -30 v -30" class="c" fill-opacity="0.64"/>
<path d="M 830 500 h 30 v 30 h -30 v -30" class="c" fill-opacity="0.64"/>
<path d="M 800 530 h 30 v 30 h -30 v -30" class="c" fill-opacity="0.64"/>
<path d="M 620 410 h 30 v 30 h -30 v -30" class="c" fill-opacity="0.64"/>
<path d="M 650 440 h 30 v 30 h -30 v -30" class="c" fill-opacity="0.64"/>
<path d="M 650 380 h 30 v 30 h -30 v -30" class="c" fill-opacity="0.64"/>
<path d="M 620 20 h 30 v 30 h -30 v -30" class="c" fill-opacity="0.65"/>
<path d="M 860 380 h 30 v 30 h -30 v -30" class="c" fill-opacity="0.65"/>
<path d="M 890 410 h 30 v 30 h -30 v -30" class="c" fill-opacity="0.65"/>
<path d="M 920 440 h 30 v 30 h -30 v -30" class="c" fill-opacity="0.65"/>
<path d="M 770 470 h 30 v 30 h -30 v -30" class="c" fill-opacity="0.65"/>
<path d="M 830 470 h 30 v 30 h -30 v -30" class="c" fill-opacity="0.65"/>
<path d="M 830 530 h 30 v 30 h -30 v -30" class="c" fill-opacity="0.65"/>
<path d="M 590 410 h 30 v 30 h -30 v -30" class="c" fill-opacity="0.65"/>
<path d="M 620 440 h 30 v 30 h -30 v -30" class="c" fill-opacity="0.65"/>
<path d="M 680 440 h 30 v 30 h -30 v -30" class="c" fill-opacity="0.65"/>
<path d="M 650 20 h 30 v 30 h -30 v -30" class="c" fill-opacity="0.65"/>
<path d="M 860 350 h 30 v 30 h -30 v -30" class="c" fill-opacity="0.65"/>
<path d="M 890 380 h 30 v 30 h -30 v -30" class="c" fill-opacity="0.65"/>
<path d="M 920 410 h 30 v 30 h -30 v -30" class="c" fill-opacity="0.65"/>
<path d="M 920 470 h 30 v 30 h -30 v -30" class="c" fill-opacity="0.65"/>
<path d="M 740 470 h 30 v 30 h -30 v -30" class="c" fill-opacity="0.65"/>
<path d="M 770 440 h 30 v 30 h -30 v -30" class="c" fill-opacity="0.65"/>
<path d="M 860 470 h 30 v 30 h -30 v -30" class="c" fill-opacity="0.65"/>
<path d="M 830 560 h 30 v 30 h -30 v -30" class="c" fill-opacity="0.65"/>
<path d="M 590 380 h 30 v 30 h -30 v -30" class="c" fill-opacity="0.65"/>
<path d="M 590 440 h 30 v 30 h -30 v -30" class="c" fill-opacity="0.65"/>
<path d="M 620 470 h 30 v 30 h -30 v -30" class="c" fill-opacity="0.65"/>
<path d="M 680 470 h 30 v 30 h -30 v -30" class="c" fill-opacity="0.65"/>
<path d="M 680 20 h 30 v 30 h -30 v -30" class="c" fill-opacity="0.66"/>
<path d="M 650 50 h 30 v 30 h -30 v -30" class="c" fill-opacity="0.66"/>
<path d="M 830 350 h 30 v 30 h -30 v -30" class="c" fill-opacity="0.66"/>
<path d="M 860 320 h 30 v 30 h -30 v -30" class="c" fill-opacity="0.66"/>
<path d="M 890 350 h 30 v 30 h -30 v -30" class="c" fill-opacity="0.66"/>
<path d="M 920 380 h 30 v 30 h -30 v -30" class="c" fill-opacity="0.66"/>
<path d="M 890 470 h 30 v 30 h -30 v -30" class="c" fill-opacity="0.66"/>
<path d="M 860 500 h 30 v 30 h -30 v -30" class="c" fill-opacity="0.66"/>
<path d="M 800 560 h 30 v 30 h -30 v -30" class="c" fill-opacity="0.66"/>
<path d="M 830 590 h 30 v 30 h -30 v -30" class="c" fill-opacity="0.66"/>
<path d="M 560 380 h 30 v 30 h -30 v -30" class="c" fill-opacity="0.66"/>
<path d="M 590 350 h 30 v 30 h -30 v -30" class="c" fill-opacity="0.66"/>
<path d="M 560 440 h 30 v 30 h -30 v -30" class="c" fill-opacity="0.66"/>
<path d="M 650 470 h 30 v 30 h -30 v -30" class="c" fill-opacity="0.66"/>
<path d="M 710 470 h 30 v 30 h -30 v -30" class="c" fill-opacity="0.66"/>
<path d="M 710 20 h 30 v 30 h -30 v -30" class="c" fill-opacity="0.67"/>
<path d="M 680 50 h 30 v 30 h -30 v -30" class="c" fill-opacity="0.67"/>
<path d="M 800 350 h 30 v 30 h -30 v -30" class="c" fill-opacity="0.67"/>
<path d="M 860 290 h 30 v 30 h -30 v -30" class="c" fill-opacity="0.67"/>
<path d="M 890 320 h 30 v 30 h -30 v -30" class="c" fill-opacity="0.67"/>
<path d="M 890 500 h 30 v 30 h -30 v -30" class="c" fill-opacity="0.67"/>
<path d="M 800 590 h 30 v 30 h -30 v -30" class="c" fill-opacity="0.67"/>
<path d="M 860 590 h 30 v 30 h -30 v -30" class="c" fill-opacity="0.67"/>
<path d="M 530 380 h 30 v 30 h -30 v -30" class="c" fill-opacity="0.67"/>
<path d="M 560 410 h 30 v 30 h -30 v -30" class="c" fill-opacity="0.67"/>
<path d="M 530 440 h 30 v 30 h -30 v -30" class="c" fill-opacity="0.67"/>
<path d="M 560 470 h 30 v 30 h -30 v -30" class="c" fill-opacity="0.67"/>
<path d="M 650 500 h 30 v 30 h -30 v -30" class="c" fill-opacity="0.67"/>
<path d="M 710 500 h 30 v 30 h -30 v -30" class="c" fill-opacity="0.67"/>
<path d="M 740 20 h 30 v 30 h -30 v -30" class="c" fill-opacity="0.68"/>
<path d="M 710 50 h 30 v 30 h -30 v -30" class="c" fill-opacity="0.68"/>
<path d="M 680 80 h 30 v 30 h -30 v -30" class="c" fill-opacity="0.68"/>
<path d="M 770 350 h 30 v 30 h -30 v -30" class="c" fill-opacity="0.68"/>
<path d="M 830 290 h 30 v 30 h -30 v -30" class="c" fill-opacity="0.68"/>
<path d="M 890 290 h 30 v 30 h -30 v -30" class="c" fill-opacity="0.68"/>
<path d="M 920 500 h 30 v 30 h -30 v -30" class="c" fill-opacity="0.68"/>
<path d="M 770 590 h 30 v 30 h -30 v -30" class="c" fill-opacity="0.68"/>
<path d="M 860 560 h 30 v 30 h -30 v -30" class="c" fill-opacity="0.68"/>
<path d="M 890 590 h 30 v 30 h -30 v -30" class="c" fill-opacity="0.68"/>
<path d="M 530 410 h 30 v 30 h -30 v -30" class="c" fill-opacity="0.68"/>
<path d="M 530 470 h 30 v 30 h -30 v -30" class="c" fill-opacity="0.68"/>
<path d="M 620 500 h 30 v 30 h -30 v -30" class="c" fill-opacity="0.68"/>
<path d="M 650 530 h 30 v 30 h -30 v -30" class="c" fill-opacity="0.68"/>
<path d="M 680 500 h 30 v 30 h -30 v -30" class="c" fill-opacity="0.68"/>
<path d="M 740 500 h 30 v 30 h -30 v -30" class="c" fill-opacity="0.68"/>
<path d="M 770 20 h 30 v 30 h -30 v -30" class="c" fill-opacity="0.69"/>
<path d="M 680 110 h 30 v 30 h -30 v -30" class="c" fill-opacity="0.69"/>
<path d="M 830 260 h 30 v 30 h -30 v -30" class="c" fill-opacity="0.69"/>
<path d="M 830 320 h 30 v 30 h -30 v -30" class="c" fill-opacity="0.69"/>
<path d="M 920 530 h 30 v 30 h -30 v -30" class="c" fill-opacity="0.69"/>
<path d="M 770 560 h 30 v 30 h -30 v -30" class="c" fill-opacity="0.69"/>
<path d="M 860 530 h 30 v 30 h -30 v -30" class="c" fill-opacity="0.69"/>
<path d="M 890 560 h 30 v 30 h -30 v -30" class="c" fill-opacity="0.69"/>
<path d="M 920 590 h 30 v 30 h -30 v -30" class="c" fill-opacity="0.69"/>
<path d="M 530 500 h 30 v 30 h -30 v -30" class="c" fill-opacity="0.69"/>
<path d="M 590 500 h 30 v 30 h -30 v -30" class="c" fill-opacity="0.69"/>
<path d="M 620 530 h 30 v 30 h -30 v -30" class="c" fill-opacity="0.69"/>
<path d="M 680 530 h 30 v 30 h -30 v -30" class="c" fill-opacity="0.69"/>
<path d="M 800 20 h 30 v 30 h -30 v -30" class="c" fill-opacity="0.7"/>
<path d="M 770 50 h 30 v 30 h -30 v -30" class="c" fill-opacity="0.7"/>
<path d="M 710 110 h 30 v 30 h -30 v -30" class="c" fill-opacity="0.7"/>
<path d="M 860 260 h 30 v 30 h -30 v -30" class="c" fill-opacity="0.7"/>
<path d="M 890 530 h 30 v 30 h -30 v -30" class="c" fill-opacity="0.7"/>
<path d="M 950 530 h 30 v 30 h -30 v -30" class="c" fill-opacity="0.7"/>
<path d="M 740 560 h 30 v 30 h -30 v -30" class="c" fill-opacity="0.7"/>
<path d="M 770 530 h 30 v 30 h -30 v -30" class="c" fill-opacity="0.7"/>
<path d="M 920 560 h 30 v 30 h -30 v -30" class="c" fill-opacity="0.7"/>
<path d="M 560 500 h 30 v 30 h -30 v -30" class="c" fill-opacity="0.7"/>
<path d="M 590 470 h 30 v 30 h -30 v -30" class="c" fill-opacity="0.7"/>
<path d="M 590 530 h 30 v 30 h -30 v -30" class="c" fill-opacity="0.7"/>
<path d="M 770 80 h 30 v 30 h -30 v -30" class="c" fill-opacity="0.71"/>
<path d="M 740 110 h 30 v 30 h -30 v -30" class="c" fill-opacity="0.71"/>
<path d="M 710 140 h 30 v 30 h -30 v -30" class="c" fill-opacity="0.71"/>
<path d="M 950 500 h 30 v 30 h -30 v -30" class="c" fill-opacity="0.71"/>
<path d="M 980 530 h 30 v 30 h -30 v -30" class="c" fill-opacity="0.71"/>
<path d="M 950 560 h 30 v 30 h -30 v -30" class="c" fill-opacity="0.71"/>
<path d="M 710 560 h 30 v 30 h -30 v -30" class="c" fill-opacity="0.71"/>
<path d="M 560 530 h 30 v 30 h -30 v -30" class="c" fill-opacity="0.71"/>
<path d="M 800 80 h 30 v 30 h -30 v -30" class="c" fill-opacity="0.72"/>
<path d="M 740 80 h 30 v 30 h -30 v -30" class="c" fill-opacity="0.72"/>
<path d="M 950 470 h 30 v 30 h -30 v -30" class="c" fill-opacity="0.72"/>
<path d="M 980 500 h 30 v 30 h -30 v -30" class="c" fill-opacity="0.72"/>
<path d="M 980 560 h 30 v 30 h -30 v -30" class="c" fill-opacity="0.72"/>
<path d="M 950 590 h 30 v 30 h -30 v -30" class="c" fill-opacity="0.72"/>
<path d="M 710 530 h 30 v 30 h -30 v -30" class="c" fill-opacity="0.72"/>
<path d="M 710 590 h 30 v 30 h -30 v -30" class="c" fill-opacity="0.72"/>
<path d="M 560 560 h 30 v 30 h -30 v -30" class="c" fill-opacity="0.72"/>
<path d="M 800 50 h 30 v 30 h -30 v -30" class="c" fill-opacity="0.73"/>
<path d="M 710 80 h 30 v 30 h -30 v -30" class="c" fill-opacity="0.73"/>
<path d="M 740 50 h 30 v 30 h -30 v -30" class="c" fill-opacity="0.73"/>
<path d="M 980 470 h 30 v 30 h -30 v -30" class="c" fill-opacity="0.73"/>
<path d="M 980 590 h 30 v 30 h -30 v -30" class="c" fill-opacity="0.73"/>
<path d="M 740 530 h 30 v 30 h -30 v -30" class="c" fill-opacity="0.73"/>
<path d="M 740 590 h 30 v 30 h -30 v -30" class="c" fill-opacity="0.73"/>
<path d="M 530 560 h 30 v 30 h -30 v -30" class="c" fill-opacity="0.73"/>
<path d="M 590 560 h 30 v 30 h -30 v -30" class="c" fill-opacity="0.73"/>
<path d="M 560 590 h 30 v 30 h -30 v -30" class="c" fill-opacity="0.73"/>
<path d="M 830 50 h 30 v 30 h -30 v -30" class="c" fill-opacity="0.74"/>
<path d="M 980 440 h 30 v 30 h -30 v -30" class="c" fill-opacity="0.74"/>
<path d="M 530 530 h 30 v 30 h -30 v -30" class="c" fill-opacity="0.74"/>
<path d="M 530 590 h 30 v 30 h -30 v -30" class="c" fill-opacity="0.74"/>
<path d="M 620 560 h 30 v 30 h -30 v -30" class="c" fill-opacity="0.74"/>
<path d="M 590 590 h 30 v 30 h -30 v -30" class="c" fill-opacity="0.74"/>
<path d="M 830 20 h 30 v 30 h -30 v -30" class="c" fill-opacity="0.75"/>
<path d="M 830 80 h 30 v 30 h -30 v -30" class="c" fill-opacity="0.75"/>
<path d="M 950 440 h 30 v 30 h -30 v -30" class="c" fill-opacity="0.75"/>
<path d="M 500 530 h 30 v 30 h -30 v -30" class="c" fill-opacity="0.75"/>
<path d="M 500 590 h 30 v 30 h -30 v -30" class="c" fill-opacity="0.75"/>
<path d="M 650 560 h 30 v 30 h -30 v -30" class="c" fill-opacity="0.75"/>
<path d="M 620 590 h 30 v 30 h -30 v -30" class="c" fill-opacity="0.75"/>
<path d="M 860 20 h 30 v 30 h -30 v -30" class="c" fill-opacity="0.75"/>
<path d="M 950 410 h 30 v 30 h -30 v -30" class="c" fill-opacity="0.75"/>
<path d="M 500 500 h 30 v 30 h -30 v -30" class="c" fill-opacity="0.75"/>
<path d="M 470 590 h 30 v 30 h -30 v -30" class="c" fill-opacity="0.75"/>
<path d="M 500 560 h 30 v 30 h -30 v -30" class="c" fill-opacity="0.75"/>
<path d="M 680 560 h 30 v 30 h -30 v -30" class="c" fill-opacity="0.75"/>
<path d="M 650 590 h 30 v 30 h -30 v -30" class="c" fill-opacity="0.75"/>
<path d="M 890 20 h 30 v 30 h -30 v -30" class="c" fill-opacity="0.76"/>
<path d="M 860 50 h 30 v 30 h -30 v -30" class="c" fill-opacity="0.76"/>
<path d="M 980 410 h 30 v 30 h -30 v -30" class="c" fill-opacity="0.76"/>
<path d="M 470 500 h 30 v 30 h -30 v -30" class="c" fill-opacity="0.76"/>
<path d="M 470 560 h 30 v 30 h -30 v -30" class="c" fill-opacity="0.76"/>
<path d="M 680 590 h 30 v 30 h -30 v -30" class="c" fill-opacity="0.76"/>
<path d="M 890 50 h 30 v 30 h -30 v -30" class="c" fill-opacity="0.77"/>
<path d="M 980 380 h 30 v 30 h -30 v -30" class="c" fill-opacity="0.77"/>
<path d="M 470 470 h 30 v 30 h -30 v -30" class="c" fill-opacity="0.77"/>
<path d="M 470 530 h 30 v 30 h -30 v -30" class="c" fill-opacity="0.77"/>
<path d="M 920 50 h 30 v 30 h -30 v -30" class="c" fill-opacity="0.78"/>
<path d="M 950 380 h 30 v 30 h -30 v -30" class="c" fill-opacity="0.78"/>
<path d="M 440 470 h 30 v 30 h -30 v -30" class="c" fill-opacity="0.78"/>
<path d="M 920 80 h 30 v 30 h -30 v -30" class="c" fill-opacity="0.79"/>
<path d="M 950 350 h 30 v 30 h -30 v -30" class="c" fill-opacity="0.79"/>
<path d="M 410 470 h 30 v 30 h -30 v -30" class="c" fill-opacity="0.79"/>
<path d="M 890 80 h 30 v 30 h -30 v -30" class="c" fill-opacity="0.8"/>
<path d="M 950 80 h 30 v 30 h -30 v -30" class="c" fill-opacity="0.8"/>
<path d="M 920 110 h 30 v 30 h -30 v -30" class="c" fill-opacity="0.8"/>
<path d="M 920 350 h 30 v 30 h -30 v -30" class="c" fill-opacity="0.8"/>
<path d="M 950 320 h 30 v 30 h -30 v -30" class="c" fill-opacity="0.8"/>
<path d="M 980 350 h 30 v 30 h -30 v -30" class="c" fill-opacity="0.8"/>
<path d="M 380 470 h 30 v 30 h -30 v -30" class="c" fill-opacity="0.8"/>
<path d="M 860 80 h 30 v 30 h -30 v -30" class="c" fill-opacity="0.81"/>
<path d="M 950 50 h 30 v 30 h -30 v -30" class="c" fill-opacity="0.81"/>
<path d="M 980 80 h 30 v 30 h -30 v -30" class="c" fill-opacity="0.81"/>
<path d="M 950 110 h 30 v 30 h -30 v -30" class="c" fill-opacity="0.81"/>
<path d="M 890 110 h 30 v 30 h -30 v -30" class="c" fill-opacity="0.81"/>
<path d="M 980 320 h 30 v 30 h -30 v -30" class="c" fill-opacity="0.81"/>
<path d="M 380 440 h 30 v 30 h -30 v -30" class="c" fill-opacity="0.81"/>
<path d="M 860 110 h 30 v 30 h -30 v -30" class="c" fill-opacity="0.82"/>
<path d="M 950 20 h 30 v 30 h -30 v -30" class="c" fill-opacity="0.82"/>
<path d="M 980 50 h 30 v 30 h -30 v -30" class="c" fill-opacity="0.82"/>
<path d="M 980 110 h 30 v 30 h -30 v -30" class="c" fill-opacity="0.82"/>
<path d="M 980 290 h 30 v 30 h -30 v -30" class="c" fill-opacity="0.82"/>
<path d="M 350 440 h 30 v 30 h -30 v -30" class="c" fill-opacity="0.82"/>
<path d="M 410 440 h 30 v 30 h -30 v -30" class="c" fill-opacity="0.82"/>
<path d="M 860 140 h 30 v 30 h -30 v -30" class="c" fill-opacity="0.83"/>
<path d="M 920 20 h 30 v 30 h -30 v -30" class="c" fill-opacity="0.83"/>
<path d="M 980 20 h 30 v 30 h -30 v -30" class="c" fill-opacity="0.83"/>
<path d="M 980 140 h 30 v 30 h -30 v -30" class="c" fill-opacity="0.83"/>
<path d="M 350 410 h 30 v 30 h -30 v -30" class="c" fill-opacity="0.83"/>
<path d="M 440 440 h 30 v 30 h -30 v -30" class="c" fill-opacity="0.83"/>
<path d="M 830 140 h 30 v 30 h -30 v -30" class="c" fill-opacity="0.84"/>
<path d="M 950 140 h 30 v 30 h -30 v -30" class="c" fill-opacity="0.84"/>
<path d="M 980 170 h 30 v 30 h -30 v -30" class="c" fill-opacity="0.84"/>
<path d="M 320 410 h 30 v 30 h -30 v -30" class="c" fill-opacity="0.84"/>
<path d="M 380 410 h 30 v 30 h -30 v -30" class="c" fill-opacity="0.84"/>
<path d="M 470 440 h 30 v 30 h -30 v -30" class="c" fill-opacity="0.84"/>
<path d="M 800 140 h 30 v 30 h -30 v -30" class="c" fill-opacity="0.85"/>
<path d="M 830 110 h 30 v 30 h -30 v -30" class="c" fill-opacity="0.85"/>
<path d="M 980 200 h 30 v 30 h -30 v -30" class="c" fill-opacity="0.85"/>
<path d="M 290 410 h 30 v 30 h -30 v -30" class="c" fill-opacity="0.85"/>
<path d="M 470 410 h 30 v 30 h -30 v -30" class="c" fill-opacity="0.85"/>
<path d="M 500 440 h 30 v 30 h -30 v -30" class="c" fill-opacity="0.85"/>
<path d="M 770 140 h 30 v 30 h -30 v -30" class="c" fill-opacity="0.85"/>
<path d="M 800 110 h 30 v 30 h -30 v -30" class="c" fill-opacity="0.85"/>
<path d="M 980 230 h 30 v 30 h -30 v -30" class="c" fill-opacity="0.85"/>
<path d="M 290 440 h 30 v 30 h -30 v -30" class="c" fill-opacity="0.85"/>
<path d="M 500 410 h 30 v 30 h -30 v -30" class="c" fill-opacity="0.85"/>
<path d="M 500 470 h 30 v 30 h -30 v -30" class="c" fill-opacity="0.85"/>
<path d="M 740 140 h 30 v 30 h -30 v -30" class="c" fill-opacity="0.86"/>
<path d="M 770 110 h 30 v 30 h -30 v -30" class="c" fill-opacity="0.86"/>
<path d="M 950 230 h 30 v 30 h -30 v -30" class="c" fill-opacity="0.86"/>
<path d="M 980 260 h 30 v 30 h -30 v -30" class="c" fill-opacity="0.86"/>
<path d="M 320 440 h 30 v 30 h -30 v -30" class="c" fill-opacity="0.86"/>
<path d="M 290 470 h 30 v 30 h -30 v -30" class="c" fill-opacity="0.86"/>
<path d="M 500 380 h 30 v 30 h -30 v -30" class="c" fill-opacity="0.86"/>
<path d="M 920 230 h 30 v 30 h -30 v -30" class="c" fill-opacity="0.87"/>
<path d="M 950 200 h 30 v 30 h -30 v -30" class="c" fill-opacity="0.87"/>
<path d="M 950 260 h 30 v 30 h -30 v -30" class="c" fill-opacity="0.87"/>
<path d="M 260 470 h 30 v 30 h -30 v -30" class="c" fill-opacity="0.87"/>
<path d="M 320 470 h 30 v 30 h -30 v -30" class="c" fill-opacity="0.87"/>
<path d="M 290 500 h 30 v 30 h -30 v -30" class="c" fill-opacity="0.87"/>
<path d="M 470 380 h 30 v 30 h -30 v -30" class="c" fill-opacity="0.87"/>
<path d="M 920 200 h 30 v 30 h -30 v -30" class="c" fill-opacity="0.88"/>
<path d="M 920 260 h 30 v 30 h -30 v -30" class="c" fill-opacity="0.88"/>
<path d="M 950 170 h 30 v 30 h -30 v -30" class="c" fill-opacity="0.88"/>
<path d="M 950 290 h 30 v 30 h -30 v -30" class="c" fill-opacity="0.88"/>
<path d="M 260 500 h 30 v 30 h -30 v -30" class="c" fill-opacity="0.88"/>
<path d="M 350 470 h 30 v 30 h -30 v -30" class="c" fill-opacity="0.88"/>
<path d="M 290 530 h 30 v 30 h -30 v -30" class="c" fill-opacity="0.88"/>
<path d="M 440 380 h 30 v 30 h -30 v -30" class="c" fill-opacity="0.88"/>
<path d="M 920 170 h 30 v 30 h -30 v -30" class="c" fill-opacity="0.89"/>
<path d="M 920 290 h 30 v 30 h -30 v -30" class="c" fill-opacity="0.89"/>
<path d="M 350 500 h 30 v 30 h -30 v -30" class="c" fill-opacity="0.89"/>
<path d="M 260 530 h 30 v 30 h -30 v -30" class="c" fill-opacity="0.89"/>
<path d="M 410 380 h 30 v 30 h -30 v -30" class="c" fill-opacity="0.89"/>
<path d="M 440 350 h 30 v 30 h -30 v -30" class="c" fill-opacity="0.89"/>
<path d="M 440 410 h 30 v 30 h -30 v -30" class="c" fill-opacity="0.89"/>
<path d="M 890 170 h 30 v 30 h -30 v -30" class="c" fill-opacity="0.9"/>
<path d="M 920 140 h 30 v 30 h -30 v -30" class="c" fill-opacity="0.9"/>
<path d="M 920 320 h 30 v 30 h -30 v -30" class="c" fill-opacity="0.9"/>
<path d="M 380 500 h 30 v 30 h -30 v -30" class="c" fill-opacity="0.9"/>
<path d="M 350 530 h 30 v 30 h -30 v -30" class="c" fill-opacity="0.9"/>
<path d="M 380 380 h 30 v 30 h -30 v -30" class="c" fill-opacity="0.9"/>
<path d="M 410 350 h 30 v 30 h -30 v -30" class="c" fill-opacity="0.9"/>
<path d="M 410 410 h 30 v 30 h -30 v -30" class="c" fill-opacity="0.9"/>
<path d="M 440 320 h 30 v 30 h -30 v -30" class="c" fill-opacity="0.9"/>
<path d="M 890 200 h 30 v 30 h -30 v -30" class="c" fill-opacity="0.91"/>
<path d="M 890 140 h 30 v 30 h -30 v -30" class="c" fill-opacity="0.91"/>
<path d="M 410 500 h 30 v 30 h -30 v -30" class="c" fill-opacity="0.91"/>
<path d="M 320 530 h 30 v 30 h -30 v -30" class="c" fill-opacity="0.91"/>
<path d="M 380 530 h 30 v 30 h -30 v -30" class="c" fill-opacity="0.91"/>
<path d="M 380 350 h 30 v 30 h -30 v -30" class="c" fill-opacity="0.91"/>
<path d="M 890 230 h 30 v 30 h -30 v -30" class="c" fill-opacity="0.92"/>
<path d="M 440 500 h 30 v 30 h -30 v -30" class="c" fill-opacity="0.92"/>
<path d="M 410 530 h 30 v 30 h -30 v -30" class="c" fill-opacity="0.92"/>
<path d="M 320 500 h 30 v 30 h -30 v -30" class="c" fill-opacity="0.92"/>
<path d="M 380 560 h 30 v 30 h -30 v -30" class="c" fill-opacity="0.92"/>
<path d="M 350 350 h 30 v 30 h -30 v -30" class="c" fill-opacity="0.92"/>
<path d="M 380 320 h 30 v 30 h -30 v -30" class="c" fill-opacity="0.92"/>
<path d="M 860 230 h 30 v 30 h -30 v -30" class="c" fill-opacity="0.93"/>
<path d="M 890 260 h 30 v 30 h -30 v -30" class="c" fill-opacity="0.93"/>
<path d="M 440 530 h 30 v 30 h -30 v -30" class="c" fill-opacity="0.93"/>
<path d="M 410 560 h 30 v 30 h -30 v -30" class="c" fill-opacity="0.93"/>
<path d="M 380 590 h 30 v 30 h -30 v -30" class="c" fill-opacity="0.93"/>
<path d="M 350 320 h 30 v 30 h -30 v -30" class="c" fill-opacity="0.93"/>
<path d="M 830 230 h 30 v 30 h -30 v -30" class="c" fill-opacity="0.94"/>
<path d="M 440 560 h 30 v 30 h -30 v -30" class="c" fill-opacity="0.94"/>
<path d="M 350 590 h 30 v 30 h -30 v -30" class="c" fill-opacity="0.94"/>
<path d="M 800 230 h 30 v 30 h -30 v -30" class="c" fill-opacity="0.95"/>
<path d="M 830 200 h 30 v 30 h -30 v -30" class="c" fill-opacity="0.95"/>
<path d="M 440 590 h 30 v 30 h -30 v -30" class="c" fill-opacity="0.95"/>
<path d="M 350 560 h 30 v 30 h -30 v -30" class="c" fill-opacity="0.95"/>
<path d="M 770 230 h 30 v 30 h -30 v -30" class="c" fill-opacity="0.95"/>
<path d="M 800 200 h 30 v 30 h -30 v -30" class="c" fill-opacity="0.95"/>
<path d="M 860 200 h 30 v 30 h -30 v -30" class="c" fill-opacity="0.95"/>
<path d="M 410 590 h 30 v 30 h -30 v -30" class="c" fill-opacity="0.95"/>
<path d="M 740 230 h 30 v 30 h -30 v -30" class="c" fill-opacity="0.96"/>
<path d="M 770 200 h 30 v 30 h -30 v -30" class="c" fill-opacity="0.96"/>
<path d="M 710 230 h 30 v 30 h -30 v -30" class="c" fill-opacity="0.97"/>
<path d="M 740 200 h 30 v 30 h -30 v -30" class="c" fill-opacity="0.97"/>
<path d="M 770 170 h 30 v 30 h -30 v -30" class="c" fill-opacity="0.97"/>
<path d="M 740 170 h 30 v 30 h -30 v -30" class="c" fill-opacity="0.98"/>
<path d="M 800 170 h 30 v 30 h -30 v -30" class="c" fill-opacity="0.98"/>
<path d="M 830 170 h 30 v 30 h -30 v -30" class="c" fill-opacity="0.99"/>
<path d="M 860 170 h 30 v 30 h -30 v -30" class="c" fill-opacity="1"/>
<path d="M 20 20 h 30 v 30 h -30 v -30" class="p"/>
<path d="M 20 50 h 30 v 30 h -30 v -30" class="p"/>
<path d="M 20 80 h 30 v 30 h -30 v -30" class="p"/>
<path d="M 50 80 h 30 v 30 h -30 v -30" class="p"/>
<path d="M 50 110 h 30 v 30 h -30 v -30" class="p"/>
<path d="M 20 110 h 30 v 30 h -30 v -30" class="p"/>
<path d="M 20 140 h 30 v 30 h -30 v -30" class="p"/>
<path d="M 50 140 h 30 v 30 h -30 v -30" class="p"/>
<path d="M 50 170 h 30 v 30 h -30 v -30" class="p"/>
<path d="M 50 200 h 30 v 30 h -30 v -30" class="p"/>
<path d="M 50 230 h 30 v 30 h -30 v -30" class="p"/>
<path d="M 80 230 h 30 v 30 h -30 v -30" class="p"/>
<path d="M 80 260 h 30 v 30 h -30 v -30" class="p"/>
<path d="M 80 290 h 30 v 30 h -30 v -30" class="p"/>
<path d="M 80 320 h 30 v 30 h -30 v -30" class="p"/>
<path d="M 110 320 h 30 v 30 h -30 v -30" class="p"/>
<path d="M 140 320 h 30 v 30 h -30 v -30" class="p"/>
<path d="M 140 350 h 30 v 30 h -30 v -30" class="p"/>
<path d="M 140 380 h 30 v 30 h -30 v -30" class="p"/>
<path d="M 110 380 h 30 v 30 h -30 v -30" class="p"/>
<path d="M 110 410 h 30 v 30 h -30 v -30" class="p"/>
<path d="M 140 410 h 30 v 30 h -30 v -30" class="p"/>
<path d="M 140 440 h 30 v 30 h -30 v -30" class="p"/>
<path d="M 170 440 h 30 v 30 h -30 v -30" class="p"/>
<path d="M 170 470 h 30 v 30 h -30 v -30" class="p"/>
<path d="M 200 470 h 30 v 30 h -30 v -30" class="p"/>
<path d="M 230 470 h 30 v 30 h -30 v -30" class="p"/>
<path d="M 230 440 h 30 v 30 h -30 v -30" class="p"/>
<path d="M 230 410 h 30 v 30 h -30 v -30" class="p"/>
<path d="M 200 410 h 30 v 30 h -30 v -30" class="p"/>
<path d="M 200 380 h 30 v 30 h -30 v -30" class="p"/>
<path d="M 200 350 h 30 v 30 h -30 v -30" class="p"/>
<path d="M 230 350 h 30 v 30 h -30 v -30" class="p"/>
<path d="M 230 380 h 30 v 30 h -30 v -30" class="p"/>
<path d="M 260 380 h 30 v 30 h -30 v -30" class="p"/>
<path d="M 260 350 h 30 v 30 h -30 v -30" class="p"/>
<path d="M 260 320 h 30 v 30 h -30 v -30" class="p"/>
<path d="M 290 320 h 30 v 30 h -30 v -30" class="p"/>
<path d="M 320 320 h 30 v 30 h -30 v -30" class="p"/>
<path d="M 320 290 h 30 v 30 h -30 v -30" class="p"/>
<path d="M 350 290 h 30 v 30 h -30 v -30" class="p"/>
<path d="M 380 290 h 30 v 30 h -30 v -30" class="p"/>
<path d="M 380 260 h 30 v 30 h -30 v -30" class="p"/>
<path d="M 410 260 h 30 v 30 h -30 v -30" class="p"/>
<path d="M 410 230 h 30 v 30 h -30 v -30" class="p"/>
<path d="M 440 230 h 30 v 30 h -30 v -30" class="p"/>
<path d="M 470 230 h 30 v 30 h -30 v -30" class="p"/>
<path d="M 470 260 h 30 v 30 h -30 v -30" class="p"/>
<path d="M 470 290 h 30 v 30 h -30 v -30" class="p"/>
<path d="M 470 320 h 30 v 30 h -30 v -30" class="p"/>
<path d="M 500 320 h 30 v 30 h -30 v -30" class="p"/>
<path d="M 500 290 h 30 v 30 h -30 v -30" class="p"/>
<path d="M 530 290 h 30 v 30 h -30 v -30" class="p"/>
<path d="M 560 290 h 30 v 30 h -30 v -30" class="p"/>
<path d="M 590 290 h 30 v 30 h -30 v -30" class="p"/>
<path d="M 590 260 h 30 v 30 h -30 v -30" class="p"/>
<path d="M 620 260 h 30 v 30 h -30 v -30" class="p"/>
<path d="M 650 260 h 30 v 30 h -30 v -30" class="p"/>
<path d="M 650 290 h 30 v 30 h -30 v -30" class="p"/>
<path d="M 680 290 h 30 v 30 h -30 v -30" class="p"/>
<path d="M 710 290 h 30 v 30 h -30 v -30" class="p"/>
<path d="M 740 290 h 30 v 30 h -30 v -30" class="p"/>
<path d="M 740 320 h 30 v 30 h -30 v -30" class="p"/>
<path d="M 740 350 h 30 v 30 h -30 v -30" class="p"/>
<path d="M 740 380 h 30 v 30 h -30 v -30" class="p"/>
<path d="M 740 410 h 30 v 30 h -30 v -30" class="p"/>
<path d="M 770 410 h 30 v 30 h -30 v -30" class="p"/>
<path d="M 800 410 h 30 v 30 h -30 v -30" class="p"/>
<path d="M 800 440 h 30 v 30 h -30 v -30" class="p"/>
<path d="M 800 470 h 30 v 30 h -30 v -30" class="p"/>
<path d="M 800 500 h 30 v 30 h -30 v -30" class="p"/>
<path d="M 830 500 h 30 v 30 h -30 v -30" class="p"/>
<path d="M 830 470 h 30 v 30 h -30 v -30" class="p"/>
<path d="M 860 470 h 30 v 30 h -30 v -30" class="p"/>
<path d="M 860 500 h 30 v 30 h -30 v -30" class="p"/>
<path d="M 890 500 h 30 v 30 h -30 v -30" class="p"/>
<path d="M 920 500 h 30 v 30 h -30 v -30" class="p"/>
<path d="M 920 530 h 30 v 30 h -30 v -30" class="p"/>
<path d="M 950 530 h 30 v 30 h -30 v -30" class="p"/>
<path d="M 950 560 h 30 v 30 h -30 v -30" class="p"/>
<path d="M 980 560 h 30 v 30 h -30 v -30" class="p"/>
<path d="M 980 590 h 30 v 30 h -30 v -30" class="p"/>
<path d="M 20 50 v -30 h 30" class="b"/>
<path d="M 50 20 h 30" class="b"/>
<path d="M 50 50 h 30 v -30" class="n"/>
<path d="M 80 20 h 30" class="b"/>
<path d="M 80 20 v 30" class="n"/>
<path d="M 110 20 h 30" class="b"/>
<path d="M 140 50 v -30" class="n"/>
<path d="M 140 20 h 30" class="b"/>
<path d="M 140 20 v 30 h 30" class="n"/>
<path d="M 170 20 h 30" class="b"/>
<path d="M 200 50 v -30" class="n"/>
<path d="M 200 20 h 30" class="b"/>
<path d="M 200 20 v 30 h 30" class="n"/>
<path d="M 230 20 h 30" class="b"/>
<path d="M 260 20 h 30" class="b"/>
<path d="M 290 50 v -30" class="n"/>
<path d="M 290 20 h 30" class="b"/>
<path d="M 290 20 v 30" class="n"/>
<path d="M 320 20 h 30" class="b"/>
<path d="M 350 20 h 30" class="b"/>
<path d="M 380 50 v -30" class="n"/>
<path d="M 380 20 h 30" class="b"/>
<path d="M 380 20 v 30" class="n"/>
<path d="M 410 50 v -30" class="n"/>
<path d="M 410 20 h 30" class="b"/>
<path d="M 410 20 v 30" class="n"/>
<path d="M 440 50 v -30" class="n"/>
<path d="M 440 20 h 30" class="b"/>
<path d="M 440 20 v 30 h 30" class="n"/>
<path d="M 470 20 h 30" class="b"/>
<path d="M 500 20 h 30" class="b"/>
<path d="M 530 50 h -30" class="n"/>
<path d="M 530 20 h 30" class="b"/>
<path d="M 560 50 h -30" class="n"/>
<path d="M 560 20 h 30" class="b"/>
<path d="M 560 50 h 30 v -30" class="n"/>
<path d="M 590 20 h 30" class="b"/>
<path d="M 590 20 v 30" class="n"/>
<path d="M 620 20 h 30" class="b"/>
<path d="M 650 50 h -30" class="n"/>
<path d="M 650 20 h 30" class="b"/>
<path d="M 680 20 h 30" class="b"/>
<path d="M 710 20 h 30" class="b"/>
<path d="M 740 20 h 30" class="b"/>
<path d="M 770 50 h -30" class="n"/>
<path d="M 770 20 h 30" class="b"/>
<path d="M 800 20 h 30" class="b"/>
<path d="M 800 50 h 30 v -30" class="n"/>
<path d="M 830 20 h 30" class="b"/>
<path d="M 830 20 v 30" class="n"/>
<path d="M 860 20 h 30" class="b"/>
<path d="M 890 20 h 30" class="b"/>
<path d="M 920 50 v -30" class="n"/>
<path d="M 920 20 h 30" class="b"/>
<path d="M 920 20 v 30 h 30" class="n"/>
<path d="M 950 20 h 30" class="b"/>
<path d="M 980 20 h 30 v 30" class="b"/>
<path d="M 1010 50 h -30" class="n"/>
<path d="M 20 50 v 30" class="b"/>
<path d="M 50 80 v -30" class="n"/>
<path d="M 80 80 v -30 h -30 v 30" class="n"/>
<path d="M 80 50 v 30 h 30 v -30" class="n"/>
<path d="M 110 50 v 30" class="n"/>
<path d="M 140 80 v -30" class="n"/>
<path d="M 140 80 v -30 h 30" class="n"/>
<path d="M 200 80 h -30" class="n"/>
<path d="M 200 50 h 30 v 30" class="n"/>
<path d="M 230 50 v 30 h 30 v -30" class="n"/>
<path d="M 260 50 v 30" class="n"/>
<path d="M 320 80 v -30" class="n"/>
<path d="M 320 50 v 30 h 30 v -30" class="n"/>
<path d="M 350 50 v 30" class="n"/>
<path d="M 410 80 h -30" class="n"/>
<path d="M 440 80 h -30" class="n"/>
<path d="M 440 50 h 30 v 30 h -30" class="n"/>
<path d="M 470 50 v 30 h 30" class="n"/>
<path d="M 500 50 h 30" class="n"/>
<path d="M 530 50 h 30 v 30" class="n"/>
<path d="M 590 80 v -30 h -30 v 30" class="n"/>
<path d="M 590 50 v 30 h 30" class="n"/>
<path d="M 620 50 h 30 v 30" class="n"/>
<path d="M 650 50 v 30 h 30 v -30" class="n"/>
<path d="M 680 50 v 30" class="n"/>
<path d="M 710 80 v -30" class="n"/>
<path d="M 710 50 v 30 h 30 v -30" class="n"/>
<path d="M 770 80 v -30 h -30 v 30" class="n"/>
<path d="M 770 50 v 30" class="n"/>
<path d="M 800 80 v -30" class="n"/>
<path d="M 800 80 v -30 h 30" class="n"/>
<path d="M 860 80 v -30" class="n"/>
<path d="M 860 50 v 30 h 30 v -30" class="n"/>
<path d="M 890 50 v 30 h 30" class="n"/>
<path d="M 920 50 h 30 v 30" class="n"/>
<path d="M 950 50 v 30" class="n"/>
<path d="M 1010 80 v -30" class="b"/>
<path d="M 980 50 h 30" class="n"/>
<path d="M 1010 80 h -30" class="n"/>
<path d="M 20 80 v 30" class="b"/>
<path d="M 50 110 h -30" class="n"/>
<path d="M 80 80 h 30" class="n"/>
<path d="M 110 110 h -30" class="n"/>
<path d="M 140 110 h -30" class="n"/>
<path d="M 170 110 h -30" class="n"/>
<path d="M 170 80 h 30 v 30 h -30" class="n"/>
<path d="M 200 80 v 30 h 30" class="n"/>
<path d="M 230 80 h 30 v 30" class="n"/>
<path d="M 260 80 v 30" class="n"/>
<path d="M 290 110 v -30" class="n"/>
<path d="M 290 80 v 30 h 30 v -30" class="n"/>
<path d="M 350 110 v -30 h -30 v 30" class="n"/>
<path d="M 350 80 v 30" class="n"/>
<path d="M 380 110 v -30" class="n"/>
<path d="M 380 110 v -30 h 30" class="n"/>
<path d="M 410 80 h 30" class="n"/>
<path d="M 440 110 h -30" class="n"/>
<path d="M 440 80 h 30 v 30" class="n"/>
<path d="M 500 110 h -30 v -30 h 30" class="n"/>
<path d="M 500 110 h 30 v -30" class="n"/>
<path d="M 530 80 v 30" class="n"/>
<path d="M 560 110 v -30" class="n"/>
<path d="M 560 80 v 30" class="n"/>
<path d="M 590 80 h 30" class="n"/>
<path d="M 620 110 h -30" class="n"/>
<path d="M 650 80 h 30 v 30 h -30" class="n"/>
<path d="M 680 80 v 30" class="n"/>
<path d="M 710 110 v -30" class="n"/>
<path d="M 740 110 h -30 v -30 h 30" class="n"/>
<path d="M 770 110 v -30" class="n"/>
<path d="M 770 80 v 30 h 30" class="n"/>
<path d="M 800 110 h 30 v -30" class="n"/>
<path d="M 830 80 v 30 h 30 v -30" class="n"/>
<path d="M 860 110 v -30 h 30" class="n"/>
<path d="M 890 80 h 30" class="n"/>
<path d="M 920 110 h -30" class="n"/>
<path d="M 1010 110 v -30" class="b"/>
<path d="M 980 80 h 30" class="n"/>
<path d="M 1010 110 h -30" class="n"/>
<path d="M 20 110 v 30" class="b"/>
<path d="M 20 110 h 30" class="n"/>
<path d="M 50 140 h 30 v -30" class="n"/>
<path d="M 110 140 h -30 v -30 h 30" class="n"/>
<path d="M 110 110 h 30" class="n"/>
<path d="M 140 140 h -30" class="n"/>
<path d="M 140 110 h 30" class="n"/>
<path d="M 170 140 h -30" class="n"/>
<path d="M 170 110 h 30" class="n"/>
<path d="M 200 110 h 30 v 30" class="n"/>
<path d="M 230 110 v 30 h 30 v -30" class="n"/>
<path d="M 260 110 v 30 h 30" class="n"/>
<path d="M 290 110 h 30" class="n"/>
<path d="M 320 140 h -30" class="n"/>
<path d="M 350 140 v -30" class="n"/>
<path d="M 350 110 v 30 h 30" class="n"/>
<path d="M 410 140 h -30" class="n"/>
<path d="M 410 110 h 30 v 30 h -30" class="n"/>
<path d="M 440 110 v 30" class="n"/>
<path d="M 470 110 h 30 v 30" class="n"/>
<path d="M 500 140 v -30 h 30" class="n"/>
<path d="M 560 140 v -30" class="n"/>
<path d="M 560 110 v 30 h 30 v -30" class="n"/>
<path d="M 620 140 h -30 v -30 h 30" class="n"/>
<path d="M 650 140 h -30" class="n"/>
<path d="M 650 110 h 30 v 30" class="n"/>
<path d="M 680 110 v 30 h 30" class="n"/>
<path d="M 710 110 h 30" class="n"/>
<path d="M 740 140 h 30 v -30" class="n"/>
<path d="M 800 140 h -30 v -30 h 30" class="n"/>
<path d="M 800 110 h 30" class="n"/>
<path d="M 830 140 h -30" class="n"/>
<path d="M 830 110 h 30 v 30" class="n"/>
<path d="M 860 110 v 30" class="n"/>
<path d="M 890 140 v -30" class="n"/>
<path d="M 920 140 h -30 v -30 h 30" class="n"/>
<path d="M 920 140 h 30 v -30" class="n"/>
<path d="M 950 110 v 30 h 30" class="n"/>
<path d="M 1010 140 v -30" class="b"/>
<path d="M 980 110 h 30" class="n"/>
<path d="M 20 140 v 30" class="b"/>
<path d="M 50 140 h 30" class="n"/>
<path d="M 80 140 h 30 v 30 h -30" class="n"/>
<path d="M 140 170 v -30 h -30 v 30" class="n"/>
<path d="M 170 170 h -30 v -30 h 30" class="n"/>
<path d="M 170 170 h 30 v -30" class="n"/>
<path d="M 200 140 v 30 h 30" class="n"/>
<path d="M 230 140 h 30" class="n"/>
<path d="M 260 140 h 30" class="n"/>
<path d="M 290 170 h -30" class="n"/>
<path d="M 290 140 h 30" class="n"/>
<path d="M 320 170 h -30" class="n"/>
<path d="M 350 170 h -30" class="n"/>
<path d="M 350 140 h 30 v 30" class="n"/>
<path d="M 410 170 h -30 v -30 h 30" class="n"/>
<path d="M 410 140 h 30" class="n"/>
<path d="M 440 170 h -30" class="n"/>
<path d="M 470 170 v -30" class="n"/>
<path d="M 470 140 v 30 h 30" class="n"/>
<path d="M 500 170 h 30 v -30" class="n"/>
<path d="M 530 140 v 30" class="n"/>
<path d="M 560 140 h 30" class="n"/>
<path d="M 590 170 h -30" class="n"/>
<path d="M 590 140 h 30" class="n"/>
<path d="M 620 140 h 30 v 30" class="n"/>
<path d="M 650 140 v 30 h 30" class="n"/>
<path d="M 680 140 h 30 v 30" class="n"/>
<path d="M 710 140 v 30 h 30 v -30" class="n"/>
<path d="M 770 170 h -30 v -30 h 30" class="n"/>
<path d="M 770 140 h 30" class="n"/>
<path d="M 800 170 h -30" class="n"/>
<path d="M 800 140 h 30" class="n"/>
<path d="M 830 170 h -30" class="n"/>
<path d="M 860 170 h -30" class="n"/>
<path d="M 860 170 h 30 v -30" class="n"/>
<path d="M 920 170 h -30 v -30 h 30" class="n"/>
<path d="M 920 140 h 30 v 30" class="n"/>
<path d="M 980 170 h -30 v -30 h 30" class="n"/>
<path d="M 1010 170 v -30" class="b"/>
<path d="M 20 170 v 30" class="b"/>
<path d="M 20 200 h 30 v -30" class="n"/>
<path d="M 50 170 v 30" class="n"/>
<path d="M 80 170 h 30 v 30 h -30" class="n"/>
<path d="M 110 170 v 30" class="n"/>
<path d="M 140 170 h 30" class="n"/>
<path d="M 170 170 h 30 v 30 h -30" class="n"/>
<path d="M 200 200 v -30 h 30" class="n"/>
<path d="M 230 200 h 30 v -30" class="n"/>
<path d="M 290 200 v -30 h -30 v 30" class="n"/>
<path d="M 320 200 h -30 v -30 h 30" class="n"/>
<path d="M 320 170 h 30" class="n"/>
<path d="M 350 200 h -30" class="n"/>
<path d="M 380 200 v -30" class="n"/>
<path d="M 380 200 v -30 h 30" class="n"/>
<path d="M 410 170 h 30 v 30" class="n"/>
<path d="M 440 170 v 30" class="n"/>
<path d="M 470 170 h 30" class="n"/>
<path d="M 500 200 h -30" class="n"/>
<path d="M 500 170 h 30 v 30 h -30" class="n"/>
<path d="M 530 170 v 30" class="n"/>
<path d="M 560 170 h 30 v 30 h -30" class="n"/>
<path d="M 590 170 v 30" class="n"/>
<path d="M 620 200 v -30" class="n"/>
<path d="M 620 170 v 30 h 30" class="n"/>
<path d="M 650 170 h 30 v 30 h -30" class="n"/>
<path d="M 680 170 v 30" class="n"/>
<path d="M 710 170 h 30 v 30" class="n"/>
<path d="M 770 200 v -30 h -30 v 30" class="n"/>
<path d="M 770 200 v -30 h 30" class="n"/>
<path d="M 800 170 h 30" class="n"/>
<path d="M 830 200 h -30" class="n"/>
<path d="M 830 170 h 30" class="n"/>
<path d="M 860 200 h -30" class="n"/>
<path d="M 860 170 h 30 v 30 h -30" class="n"/>
<path d="M 890 200 v -30 h 30" class="n"/>
<path d="M 950 200 h -30" class="n"/>
<path d="M 950 170 h 30 v 30" class="n"/>
<path d="M 1010 200 v -30" class="b"/>
<path d="M 980 170 v 30" class="n"/>
<path d="M 20 200 v 30" class="b"/>
<path d="M 20 200 h 30 v 30" class="n"/>
<path d="M 50 200 v 30" class="n"/>
<path d="M 80 200 h 30 v 30 h -30" class="n"/>
<path d="M 110 200 v 30 h 30 v -30" class="n"/>
<path d="M 140 200 v 30" class="n"/>
<path d="M 170 230 v -30" class="n"/>
<path d="M 170 230 v -30 h 30" class="n"/>
<path d="M 230 230 h -30" class="n"/>
<path d="M 230 200 h 30 v 30 h -30" class="n"/>
<path d="M 260 200 v 30 h 30" class="n"/>
<path d="M 290 200 h 30" class="n"/>
<path d="M 320 230 h -30" class="n"/>
<path d="M 320 200 h 30" class="n"/>
<path d="M 350 230 h -30" class="n"/>
<path d="M 380 230 v -30" class="n"/>
<path d="M 380 200 v 30 h 30 v -30" class="n"/>
<path d="M 410 200 v 30" class="n"/>
<path d="M 440 230 v -30" class="n"/>
<path d="M 440 200 v 30 h 30" class="n"/>
<path d="M 470 200 h 30 v 30 h -30" class="n"/>
<path d="M 530 230 h -30 v -30 h 30" class="n"/>
<path d="M 560 200 h 30 v 30 h -30" class="n"/>
<path d="M 590 200 v 30 h 30" class="n"/>
<path d="M 620 200 h 30" class="n"/>
<path d="M 650 230 h -30" class="n"/>
<path d="M 650 200 h 30 v 30 h -30" class="n"/>
<path d="M 680 200 v 30" class="n"/>
<path d="M 710 230 v -30" class="n"/>
<path d="M 710 200 v 30 h 30 v -30" class="n"/>
<path d="M 740 200 v 30 h 30" class="n"/>
<path d="M 800 230 h -30" class="n"/>
<path d="M 800 200 h 30 v 30" class="n"/>
<path d="M 830 230 v -30 h 30" class="n"/>
<path d="M 860 200 h 30 v 30 h -30" class="n"/>
<path d="M 890 200 v 30" class="n"/>
<path d="M 920 230 v -30" class="n"/>
<path d="M 950 230 v -30 h -30 v 30" class="n"/>
<path d="M 950 200 v 30" class="n"/>
<path d="M 980 230 v -30" class="n"/>
<path d="M 1010 230 v -30" class="b"/>
<path d="M 980 200 v 30" class="n"/>
<path d="M 20 230 v 30" class="b"/>
<path d="M 50 260 v -30" class="n"/>
<path d="M 50 230 v 30 h 30" class="n"/>
<path d="M 80 230 h 30" class="n"/>
<path d="M 110 230 h 30" class="n"/>
<path d="M 170 260 h -30" class="n"/>
<path d="M 200 260 h -30" class="n"/>
<path d="M 200 230 h 30" class="n"/>
<path d="M 230 230 h 30" class="n"/>
<path d="M 260 260 h -30" class="n"/>
<path d="M 260 230 h 30 v 30 h -30" class="n"/>
<path d="M 320 260 v -30 h -30 v 30" class="n"/>
<path d="M 350 260 v -30 h -30 v 30" class="n"/>
<path d="M 350 230 v 30 h 30 v -30" class="n"/>
<path d="M 410 260 h -30 v -30 h 30" class="n"/>
<path d="M 440 230 h 30" class="n"/>
<path d="M 470 260 h -30" class="n"/>
<path d="M 470 230 h 30" class="n"/>
<path d="M 500 230 h 30 v 30 h -30" class="n"/>
<path d="M 530 230 v 30 h 30 v -30" class="n"/>
<path d="M 590 260 v -30 h -30 v 30" class="n"/>
<path d="M 620 260 h -30 v -30 h 30" class="n"/>
<path d="M 620 230 h 30" class="n"/>
<path d="M 650 260 h -30" class="n"/>
<path d="M 650 230 h 30 v 30" class="n"/>
<path d="M 680 230 v 30" class="n"/>
<path d="M 710 260 v -30" class="n"/>
<path d="M 740 260 h -30 v -30 h 30" class="n"/>
<path d="M 740 230 h 30" class="n"/>
<path d="M 770 260 h -30" class="n"/>
<path d="M 770 230 h 30" class="n"/>
<path d="M 800 260 h -30" class="n"/>
<path d="M 830 260 h -30" class="n"/>
<path d="M 860 260 h -30" class="n"/>
<path d="M 860 230 h 30" class="n"/>
<path d="M 890 260 h -30" class="n"/>
<path d="M 920 260 v -30" class="n"/>
<path d="M 920 230 v 30" class="n"/>
<path d="M 1010 260 v -30" class="b"/>
<path d="M 20 260 v 30" class="b"/>
<path d="M 50 290 v -30" class="n"/>
<path d="M 80 290 v -30 h -30 v 30" class="n"/>
<path d="M 80 260 v 30" class="n"/>
<path d="M 110 290 v -30" class="n"/>
<path d="M 110 260 v 30 h 30 v -30" class="n"/>
<path d="M 170 290 h -30 v -30 h 30" class="n"/>
<path d="M 170 260 h 30" class="n"/>
<path d="M 200 290 h -30" class="n"/>
<path d="M 230 290 h -30" class="n"/>
<path d="M 230 260 h 30 v 30 h -30" class="n"/>
<path d="M 290 290 v -30 h -30 v 30" class="n"/>
<path d="M 290 260 v 30" class="n"/>
<path d="M 350 290 h -30" class="n"/>
<path d="M 350 260 h 30" class="n"/>
<path d="M 380 290 h -30" class="n"/>
<path d="M 380 260 h 30" class="n"/>
<path d="M 410 290 h 30 v -30" class="n"/>
<path d="M 470 290 h -30 v -30 h 30" class="n"/>
<path d="M 500 290 v -30" class="n"/>
<path d="M 530 290 v -30 h -30 v 30" class="n"/>
<path d="M 560 290 h -30 v -30 h 30" class="n"/>
<path d="M 590 290 h -30" class="n"/>
<path d="M 590 260 h 30" class="n"/>
<path d="M 620 260 h 30" class="n"/>
<path d="M 650 290 h -30" class="n"/>
<path d="M 680 290 v -30" class="n"/>
<path d="M 680 260 v 30" class="n"/>
<path d="M 710 290 v -30" class="n"/>
<path d="M 710 290 v -30 h 30" class="n"/>
<path d="M 740 260 h 30 v 30 h -30" class="n"/>
<path d="M 770 290 v -30 h 30" class="n"/>
<path d="M 800 260 h 30 v 30 h -30" class="n"/>
<path d="M 830 290 v -30 h 30" class="n"/>
<path d="M 860 260 h 30 v 30 h -30" class="n"/>
<path d="M 890 260 v 30 h 30 v -30" class="n"/>
<path d="M 920 260 v 30 h 30 v -30" class="n"/>
<path d="M 950 260 v 30" class="n"/>
<path d="M 980 290 v -30" class="n"/>
<path d="M 1010 290 v -30" class="b"/>
<path d="M 980 260 v 30 h 30" class="n"/>
<path d="M 20 290 v 30" class="b"/>
<path d="M 50 320 h -30" class="n"/>
<path d="M 80 320 v -30" class="n"/>
<path d="M 80 290 v 30" class="n"/>
<path d="M 110 320 v -30" class="n"/>
<path d="M 140 320 h -30 v -30 h 30" class="n"/>
<path d="M 140 290 h 30" class="n"/>
<path d="M 170 320 h -30" class="n"/>
<path d="M 170 290 h 30 v 30" class="n"/>
<path d="M 230 320 h -30 v -30 h 30" class="n"/>
<path d="M 230 290 h 30" class="n"/>
<path d="M 260 320 h 30 v -30" class="n"/>
<path d="M 290 290 v 30 h 30 v -30" class="n"/>
<path d="M 320 320 v -30 h 30" class="n"/>
<path d="M 350 290 h 30" class="n"/>
<path d="M 380 320 h -30" class="n"/>
<path d="M 410 320 h -30" class="n"/>
<path d="M 410 290 h 30 v 30" class="n"/>
<path d="M 470 320 h -30 v -30 h 30" class="n"/>
<path d="M 500 320 v -30" class="n"/>
<path d="M 500 290 v 30" class="n"/>
<path d="M 530 290 h 30" class="n"/>
<path d="M 560 320 h -30" class="n"/>
<path d="M 560 290 h 30" class="n"/>
<path d="M 620 290 h 30 v 30 h -30" class="n"/>
<path d="M 650 290 v 30" class="n"/>
<path d="M 710 320 h -30" class="n"/>
<path d="M 740 320 h -30" class="n"/>
<path d="M 740 290 h 30 v 30" class="n"/>
<path d="M 770 290 v 30 h 30" class="n"/>
<path d="M 800 290 h 30 v 30" class="n"/>
<path d="M 830 290 v 30" class="n"/>
<path d="M 860 290 h 30" class="n"/>
<path d="M 890 290 h 30 v 30 h -30" class="n"/>
<path d="M 920 320 v -30 h 30" class="n"/>
<path d="M 950 320 h 30 v -30" class="n"/>
<path d="M 1010 320 v -30" class="b"/>
<path d="M 980 320 v -30 h 30" class="n"/>
<path d="M 20 320 v 30" class="b"/>
<path d="M 20 320 h 30 v 30" class="n"/>
<path d="M 50 320 v 30" class="n"/>
<path d="M 80 350 v -30" class="n"/>
<path d="M 80 320 v 30 h 30" class="n"/>
<path d="M 110 320 h 30" class="n"/>
<path d="M 140 320 h 30" class="n"/>
<path d="M 200 350 v -30" class="n"/>
<path d="M 230 350 v -30 h -30 v 30" class="n"/>
<path d="M 230 320 v 30 h 30" class="n"/>
<path d="M 260 320 h 30" class="n"/>
<path d="M 290 320 h 30" class="n"/>
<path d="M 320 350 h -30" class="n"/>
<path d="M 350 350 v -30" class="n"/>
<path d="M 380 350 v -30 h -30 v 30" class="n"/>
<path d="M 410 350 v -30 h -30 v 30" class="n"/>
<path d="M 410 320 v 30 h 30 v -30" class="n"/>
<path d="M 470 350 v -30 h -30 v 30" class="n"/>
<path d="M 470 320 v 30" class="n"/>
<path d="M 500 350 h 30 v -30" class="n"/>
<path d="M 560 350 v -30 h -30 v 30" class="n"/>
<path d="M 560 320 v 30" class="n"/>
<path d="M 590 350 v -30" class="n"/>
<path d="M 590 320 v 30 h 30 v -30" class="n"/>
<path d="M 620 350 v -30 h 30" class="n"/>
<path d="M 650 350 h 30 v -30" class="n"/>
<path d="M 710 350 h -30 v -30 h 30" class="n"/>
<path d="M 710 320 h 30" class="n"/>
<path d="M 740 350 h -30" class="n"/>
<path d="M 770 320 h 30" class="n"/>
<path d="M 800 350 h -30" class="n"/>
<path d="M 800 350 h 30 v -30" class="n"/>
<path d="M 830 320 v 30 h 30 v -30" class="n"/>
<path d="M 860 320 v 30" class="n"/>
<path d="M 890 320 h 30 v 30 h -30" class="n"/>
<path d="M 920 320 v 30 h 30 v -30" class="n"/>
<path d="M 980 350 v -30 h -30 v 30" class="n"/>
<path d="M 1010 350 v -30" class="b"/>
<path d="M 980 320 v 30" class="n"/>
<path d="M 20 350 v 30" class="b"/>
<path d="M 80 380 h -30" class="n"/>
<path d="M 80 350 h 30 v 30" class="n"/>
<path d="M 110 350 v 30 h 30 v -30" class="n"/>
<path d="M 140 350 v 30" class="n"/>
<path d="M 170 380 v -30" class="n"/>
<path d="M 170 350 v 30 h 30 v -30" class="n"/>
<path d="M 200 350 v 30" class="n"/>
<path d="M 230 350 h 30 v 30" class="n"/>
<path d="M 260 350 v 30" class="n"/>
<path d="M 290 350 h 30 v 30" class="n"/>
<path d="M 320 350 v 30 h 30 v -30" class="n"/>
<path d="M 350 350 v 30 h 30" class="n"/>
<path d="M 410 380 h -30" class="n"/>
<path d="M 410 350 h 30 v 30" class="n"/>
<path d="M 440 350 v 30" class="n"/>
<path d="M 470 380 v -30" class="n"/>
<path d="M 470 350 v 30 h 30" class="n"/>
<path d="M 500 350 h 30" class="n"/>
<path d="M 530 380 h -30" class="n"/>
<path d="M 530 380 h 30 v -30" class="n"/>
<path d="M 560 350 v 30 h 30 v -30" class="n"/>
<path d="M 620 380 v -30 h -30 v 30" class="n"/>
<path d="M 620 350 v 30" class="n"/>
<path d="M 650 380 v -30" class="n"/>
<path d="M 680 380 h -30 v -30 h 30" class="n"/>
<path d="M 680 350 h 30" class="n"/>
<path d="M 710 380 h -30" class="n"/>
<path d="M 710 350 h 30" class="n"/>
<path d="M 740 380 h -30" class="n"/>
<path d="M 770 380 v -30" class="n"/>
<path d="M 800 380 h -30 v -30 h 30" class="n"/>
<path d="M 800 350 h 30" class="n"/>
<path d="M 830 380 h -30" class="n"/>
<path d="M 830 350 h 30" class="n"/>
<path d="M 860 380 h -30" class="n"/>
<path d="M 890 350 h 30 v 30 h -30" class="n"/>
<path d="M 950 380 h -30 v -30 h 30" class="n"/>
<path d="M 1010 380 v -30" class="b"/>
<path d="M 1010 380 h -30" class="n"/>
<path d="M 20 380 v 30" class="b"/>
<path d="M 50 410 h -30" class="n"/>
<path d="M 50 380 h 30 v 30 h -30" class="n"/>
<path d="M 80 380 v 30 h 30" class="n"/>
<path d="M 110 380 h 30" class="n"/>
<path d="M 140 410 h 30 v -30" class="n"/>
<path d="M 200 410 v -30 h -30 v 30" class="n"/>
<path d="M 200 380 v 30" class="n"/>
<path d="M 230 410 v -30" class="n"/>
<path d="M 230 380 v 30 h 30" class="n"/>
<path d="M 290 410 v -30" class="n"/>
<path d="M 290 380 v 30 h 30" class="n"/>
<path d="M 320 380 h 30" class="n"/>
<path d="M 350 410 h -30" class="n"/>
<path d="M 350 380 h 30 v 30 h -30" class="n"/>
<path d="M 410 410 h -30 v -30 h 30" class="n"/>
<path d="M 470 380 h 30" class="n"/>
<path d="M 500 410 h -30" class="n"/>
<path d="M 500 380 h 30 v 30" class="n"/>
<path d="M 560 410 h -30 v -30 h 30" class="n"/>
<path d="M 560 380 h 30" class="n"/>
<path d="M 620 410 v -30" class="n"/>
<path d="M 620 380 v 30 h 30 v -30" class="n"/>
<path d="M 680 410 h -30 v -30 h 30" class="n"/>
<path d="M 680 380 h 30 v 30" class="n"/>
<path d="M 740 410 h -30 v -30 h 30" class="n"/>
<path d="M 770 380 h 30 v 30 h -30" class="n"/>
<path d="M 800 410 v -30 h 30" class="n"/>
<path d="M 830 380 h 30 v 30" class="n"/>
<path d="M 860 380 v 30" class="n"/>
<path d="M 890 410 v -30" class="n"/>
<path d="M 890 410 v -30 h 30" class="n"/>
<path d="M 920 380 h 30 v 30 h -30" class="n"/>
<path d="M 950 380 v 30 h 30" class="n"/>
<path d="M 1010 410 v -30" class="b"/>
<path d="M 980 380 h 30" class="n"/>
<path d="M 20 410 v 30" class="b"/>
<path d="M 20 410 h 30" class="n"/>
<path d="M 50 410 h 30" class="n"/>
<path d="M 80 410 h 30" class="n"/>
<path d="M 110 440 h -30" class="n"/>
<path d="M 140 440 h -30" class="n"/>
<path d="M 140 410 h 30 v 30" class="n"/>
<path d="M 170 410 v 30 h 30" class="n"/>
<path d="M 230 440 h -30" class="n"/>
<path d="M 230 410 h 30 v 30" class="n"/>
<path d="M 260 410 v 30 h 30 v -30" class="n"/>
<path d="M 290 440 v -30 h 30" class="n"/>
<path d="M 320 410 h 30" class="n"/>
<path d="M 350 440 h -30" class="n"/>
<path d="M 350 410 h 30" class="n"/>
<path d="M 380 410 h 30 v 30 h -30" class="n"/>
<path d="M 410 410 v 30 h 30 v -30" class="n"/>
<path d="M 440 410 v 30 h 30 v -30" class="n"/>
<path d="M 500 440 v -30 h -30 v 30" class="n"/>
<path d="M 500 410 v 30" class="n"/>
<path d="M 530 440 v -30" class="n"/>
<path d="M 560 440 v -30 h -30 v 30" class="n"/>
<path d="M 560 410 v 30 h 30 v -30" class="n"/>
<path d="M 590 410 v 30" class="n"/>
<path d="M 620 410 h 30" class="n"/>
<path d="M 650 440 h -30" class="n"/>
<path d="M 650 410 h 30" class="n"/>
<path d="M 710 440 h -30" class="n"/>
<path d="M 710 410 h 30 v 30" class="n"/>
<path d="M 740 410 v 30" class="n"/>
<path d="M 770 410 h 30" class="n"/>
<path d="M 800 440 h -30" class="n"/>
<path d="M 830 440 v -30" class="n"/>
<path d="M 830 410 v 30 h 30" class="n"/>
<path d="M 860 440 h 30 v -30" class="n"/>
<path d="M 890 410 v 30" class="n"/>
<path d="M 920 410 h 30 v 30 h -30" class="n"/>
<path d="M 950 440 v -30 h 30" class="n"/>
<path d="M 1010 440 v -30" class="b"/>
<path d="M 1010 440 h -30" class="n"/>
<path d="M 20 440 v 30" class="b"/>
<path d="M 20 470 h 30 v -30" class="n"/>
<path d="M 50 440 v 30 h 30" class="n"/>
<path d="M 80 440 h 30 v 30" class="n"/>
<path d="M 140 470 h -30 v -30 h 30" class="n"/>
<path d="M 170 470 h -30" class="n"/>
<path d="M 170 440 h 30 v 30" class="n"/>
<path d="M 230 470 h -30 v -30 h 30" class="n"/>
<path d="M 260 440 h 30 v 30 h -30" class="n"/>
<path d="M 290 440 v 30" class="n"/>
<path d="M 320 440 h 30 v 30 h -30" class="n"/>
<path d="M 350 440 v 30 h 30" class="n"/>
<path d="M 380 440 h 30" class="n"/>
<path d="M 410 440 h 30" class="n"/>
<path d="M 440 470 h -30" class="n"/>
<path d="M 440 440 h 30" class="n"/>
<path d="M 470 470 h -30" class="n"/>
<path d="M 500 470 h -30" class="n"/>
<path d="M 530 470 v -30" class="n"/>
<path d="M 530 440 v 30" class="n"/>
<path d="M 560 440 h 30" class="n"/>
<path d="M 590 470 h 30 v -30" class="n"/>
<path d="M 620 470 v -30 h 30" class="n"/>
<path d="M 680 470 h -30" class="n"/>
<path d="M 680 440 h 30 v 30" class="n"/>
<path d="M 710 440 v 30 h 30" class="n"/>
<path d="M 740 470 h 30 v -30" class="n"/>
<path d="M 800 470 v -30 h -30 v 30" class="n"/>
<path d="M 800 440 v 30" class="n"/>
<path d="M 830 440 h 30" class="n"/>
<path d="M 860 470 h -30" class="n"/>
<path d="M 860 440 h 30" class="n"/>
<path d="M 890 470 h -30" class="n"/>
<path d="M 920 470 h -30" class="n"/>
<path d="M 920 440 h 30 v 30" class="n"/>
<path d="M 950 440 v 30 h 30" class="n"/>
<path d="M 1010 470 v -30" class="b"/>
<path d="M 980 440 h 30" class="n"/>
<path d="M 20 470 v 30" class="b"/>
<path d="M 20 470 h 30" class="n"/>
<path d="M 50 500 h -30" class="n"/>
<path d="M 50 470 h 30 v 30" class="n"/>
<path d="M 80 470 v 30 h 30 v -30" class="n"/>
<path d="M 110 500 v -30 h 30" class="n"/>
<path d="M 140 470 h 30 v 30 h -30" class="n"/>
<path d="M 170 470 v 30 h 30" class="n"/>
<path d="M 200 470 h 30" class="n"/>
<path d="M 260 500 v -30" class="n"/>
<path d="M 260 500 v -30 h 30" class="n"/>
<path d="M 320 470 h 30" class="n"/>
<path d="M 350 500 h -30" class="n"/>
<path d="M 350 470 h 30 v 30" class="n"/>
<path d="M 380 470 v 30 h 30" class="n"/>
<path d="M 410 470 h 30" class="n"/>
<path d="M 440 500 h -30" class="n"/>
<path d="M 440 470 h 30" class="n"/>
<path d="M 470 500 h -30" class="n"/>
<path d="M 470 470 h 30 v 30" class="n"/>
<path d="M 500 470 v 30 h 30 v -30" class="n"/>
<path d="M 530 470 v 30" class="n"/>
<path d="M 560 500 v -30" class="n"/>
<path d="M 560 470 v 30 h 30 v -30" class="n"/>
<path d="M 620 500 v -30 h -30 v 30" class="n"/>
<path d="M 620 470 v 30 h 30" class="n"/>
<path d="M 650 470 h 30 v 30" class="n"/>
<path d="M 680 470 v 30 h 30" class="n"/>
<path d="M 710 470 h 30 v 30" class="n"/>
<path d="M 770 500 h -30 v -30 h 30" class="n"/>
<path d="M 800 500 v -30" class="n"/>
<path d="M 800 470 v 30" class="n"/>
<path d="M 830 500 v -30" class="n"/>
<path d="M 830 500 v -30 h 30" class="n"/>
<path d="M 860 470 h 30 v 30" class="n"/>
<path d="M 920 500 h -30 v -30 h 30" class="n"/>
<path d="M 920 500 h 30 v -30" class="n"/>
<path d="M 950 500 v -30 h 30" class="n"/>
<path d="M 1010 500 v -30" class="b"/>
<path d="M 1010 500 h -30" class="n"/>
<path d="M 20 500 v 30" class="b"/>
<path d="M 20 500 h 30" class="n"/>
<path d="M 50 530 h -30" class="n"/>
<path d="M 80 530 v -30" class="n"/>
<path d="M 110 530 v -30 h -30 v 30" class="n"/>
<path d="M 110 500 v 30" class="n"/>
<path d="M 140 500 h 30" class="n"/>
<path d="M 170 500 h 30" class="n"/>
<path d="M 200 530 h -30" class="n"/>
<path d="M 200 530 h 30 v -30" class="n"/>
<path d="M 230 500 v 30 h 30 v -30" class="n"/>
<path d="M 260 500 v 30 h 30 v -30" class="n"/>
<path d="M 290 500 v 30" class="n"/>
<path d="M 320 530 v -30" class="n"/>
<path d="M 350 530 v -30 h -30 v 30" class="n"/>
<path d="M 350 500 v 30" class="n"/>
<path d="M 380 500 h 30" class="n"/>
<path d="M 410 530 h -30" class="n"/>
<path d="M 410 500 h 30" class="n"/>
<path d="M 440 500 h 30 v 30 h -30" class="n"/>
<path d="M 470 500 v 30" class="n"/>
<path d="M 500 500 h 30 v 30" class="n"/>
<path d="M 530 500 v 30 h 30 v -30" class="n"/>
<path d="M 590 530 h -30 v -30 h 30" class="n"/>
<path d="M 620 530 h -30" class="n"/>
<path d="M 620 500 h 30" class="n"/>
<path d="M 650 530 h -30" class="n"/>
<path d="M 680 530 v -30" class="n"/>
<path d="M 710 530 h -30 v -30 h 30" class="n"/>
<path d="M 740 530 h -30" class="n"/>
<path d="M 740 500 h 30 v 30 h -30" class="n"/>
<path d="M 770 500 v 30 h 30" class="n"/>
<path d="M 860 530 v -30" class="n"/>
<path d="M 860 500 v 30 h 30" class="n"/>
<path d="M 890 500 h 30" class="n"/>
<path d="M 920 530 h -30" class="n"/>
<path d="M 920 500 h 30 v 30" class="n"/>
<path d="M 950 500 v 30" class="n"/>
<path d="M 1010 530 v -30" class="b"/>
<path d="M 980 500 h 30" class="n"/>
<path d="M 1010 530 h -30" class="n"/>
<path d="M 20 530 v 30" class="b"/>
<path d="M 20 530 h 30" class="n"/>
<path d="M 80 560 h -30" class="n"/>
<path d="M 110 560 h -30" class="n"/>
<path d="M 110 560 h 30 v -30" class="n"/>
<path d="M 140 530 v 30 h 30" class="n"/>
<path d="M 170 530 h 30" class="n"/>
<path d="M 200 560 h -30" class="n"/>
<path d="M 200 530 h 30 v 30" class="n"/>
<path d="M 260 560 v -30 h -30 v 30" class="n"/>
<path d="M 290 560 h -30 v -30 h 30" class="n"/>
<path d="M 290 560 h 30 v -30" class="n"/>
<path d="M 320 530 v 30 h 30" class="n"/>
<path d="M 380 560 h -30" class="n"/>
<path d="M 380 530 h 30 v 30" class="n"/>
<path d="M 410 530 v 30" class="n"/>
<path d="M 440 530 h 30 v 30 h -30" class="n"/>
<path d="M 470 530 v 30 h 30 v -30" class="n"/>
<path d="M 500 530 v 30 h 30" class="n"/>
<path d="M 530 530 h 30 v 30" class="n"/>
<path d="M 560 560 v -30 h 30" class="n"/>
<path d="M 590 530 h 30" class="n"/>
<path d="M 620 560 h -30" class="n"/>
<path d="M 620 530 h 30" class="n"/>
<path d="M 650 560 h -30" class="n"/>
<path d="M 680 560 h -30" class="n"/>
<path d="M 680 530 h 30 v 30 h -30" class="n"/>
<path d="M 710 560 v -30 h 30" class="n"/>
<path d="M 740 530 h 30 v 30 h -30" class="n"/>
<path d="M 800 560 v -30 h -30 v 30" class="n"/>
<path d="M 800 530 v 30 h 30 v -30" class="n"/>
<path d="M 830 530 v 30" class="n"/>
<path d="M 860 560 v -30" class="n"/>
<path d="M 890 560 v -30 h -30 v 30" class="n"/>
<path d="M 920 560 h -30 v -30 h 30" class="n"/>
<path d="M 950 560 h -30" class="n"/>
<path d="M 1010 560 v -30" class="b"/>
<path d="M 980 530 h 30" class="n"/>
<path d="M 1010 560 h -30" class="n"/>
<path d="M 20 560 v 30" class="b"/>
<path d="M 20 590 h 30 v -30" class="n"/>
<path d="M 80 590 h -30 v -30 h 30" class="n"/>
<path d="M 80 560 h 30 v 30" class="n"/>
<path d="M 110 590 v -30 h 30" class="n"/>
<path d="M 140 560 h 30" class="n"/>
<path d="M 170 590 h -30" class="n"/>
<path d="M 170 560 h 30" class="n"/>
<path d="M 200 590 h -30" class="n"/>
<path d="M 230 590 h -30" class="n"/>
<path d="M 260 590 v -30" class="n"/>
<path d="M 260 590 v -30 h 30" class="n"/>
<path d="M 290 560 h 30 v 30" class="n"/>
<path d="M 350 590 v -30 h -30 v 30" class="n"/>
<path d="M 380 590 v -30 h -30 v 30" class="n"/>
<path d="M 380 560 v 30" class="n"/>
<path d="M 410 590 v -30" class="n"/>
<path d="M 410 560 v 30 h 30" class="n"/>
<path d="M 440 560 h 30 v 30" class="n"/>
<path d="M 500 590 h -30 v -30 h 30" class="n"/>
<path d="M 500 560 h 30 v 30" class="n"/>
<path d="M 530 560 v 30" class="n"/>
<path d="M 590 560 h 30" class="n"/>
<path d="M 620 590 h -30" class="n"/>
<path d="M 620 560 h 30" class="n"/>
<path d="M 650 590 h -30" class="n"/>
<path d="M 650 560 h 30" class="n"/>
<path d="M 680 560 h 30 v 30 h -30" class="n"/>
<path d="M 710 560 v 30" class="n"/>
<path d="M 740 560 h 30" class="n"/>
<path d="M 770 590 h -30" class="n"/>
<path d="M 800 590 v -30" class="n"/>
<path d="M 800 590 v -30 h 30" class="n"/>
<path d="M 860 590 v -30" class="n"/>
<path d="M 860 560 v 30" class="n"/>
<path d="M 890 560 h 30 v 30 h -30" class="n"/>
<path d="M 950 590 v -30 h -30 v 30" class="n"/>
<path d="M 950 560 v 30" class="n"/>
<path d="M 1010 590 v -30" class="b"/>
<path d="M 980 560 h 30" class="n"/>
<path d="M 20 590 v 30 h 30" class="b"/>
<path d="M 20 590 h 30" class="n"/>
<path d="M 80 620 h -30" class="b"/>
<path d="M 50 590 h 30" class="n"/>
<path d="M 110 620 h -30" class="b"/>
<path d="M 140 620 h -30" class="b"/>
<path d="M 170 620 h -30" class="b"/>
<path d="M 140 590 h 30" class="n"/>
<path d="M 200 620 h -30" class="b"/>
<path d="M 170 590 h 30 v 30" class="n"/>
<path d="M 230 620 h -30" class="b"/>
<path d="M 200 620 v -30 h 30" class="n"/>
<path d="M 260 620 h -30" class="b"/>
<path d="M 290 620 h -30" class="b"/>
<path d="M 290 620 v -30" class="n"/>
<path d="M 320 620 h -30" class="b"/>
<path d="M 290 590 v 30" class="n"/>
<path d="M 350 620 h -30" class="b"/>
<path d="M 350 620 v -30" class="n"/>
<path d="M 380 620 h -30" class="b"/>
<path d="M 350 590 v 30" class="n"/>
<path d="M 410 620 h -30" class="b"/>
<path d="M 410 620 v -30" class="n"/>
<path d="M 440 620 h -30" class="b"/>
<path d="M 410 620 v -30 h 30" class="n"/>
<path d="M 470 620 h -30" class="b"/>
<path d="M 470 620 v -30" class="n"/>
<path d="M 500 620 h -30" class="b"/>
<path d="M 470 620 v -30 h 30" class="n"/>
<path d="M 530 620 h -30" class="b"/>
<path d="M 560 620 h -30" class="b"/>
<path d="M 560 620 v -30" class="n"/>
<path d="M 590 620 h -30" class="b"/>
<path d="M 560 590 v 30" class="n"/>
<path d="M 620 620 h -30" class="b"/>
<path d="M 590 590 h 30" class="n"/>
<path d="M 650 620 h -30" class="b"/>
<path d="M 620 590 h 30 v 30" class="n"/>
<path d="M 680 620 h -30" class="b"/>
<path d="M 650 590 v 30" class="n"/>
<path d="M 710 620 h -30" class="b"/>
<path d="M 680 590 h 30 v 30" class="n"/>
<path d="M 740 620 h -30" class="b"/>
<path d="M 710 590 v 30" class="n"/>
<path d="M 770 620 h -30" class="b"/>
<path d="M 740 590 h 30 v 30" class="n"/>
<path d="M 800 620 h -30" class="b"/>
<path d="M 770 590 v 30" class="n"/>
<path d="M 830 620 h -30" class="b"/>
<path d="M 830 620 v -30" class="n"/>
<path d="M 860 620 h -30" class="b"/>
<path d="M 830 590 v 30" class="n"/>
<path d="M 890 620 h -30" class="b"/>
<path d="M 920 620 h -30" class="b"/>
<path d="M 890 590 h 30" class="n"/>
<path d="M 950 620 h -30" class="b"/>
<path d="M 950 620 v -30" class="n"/>
<path d="M 980 620 h -30" class="b"/>
<path d="M 950 590 v 30" class="n"/>
<path d="M 980 620 v -30" class="n"/>
<path d="M 980 620 h 30 v -30" class="b"/>
<path d="M 980 590 v 30" class="n"/>
</svg>