<?xml version="1.0" standalone="no"?>
<!-- Copyright 2020-2021 Patrizio Amella. All rights reserved. See License at https://github.com/aPixelInSpace/F-a-maze-ing/blob/main/LICENSE for more information. -->
<svg width="490" height="340" version="1.1" xmlns="http://www.w3.org/2000/svg" xmlns:xlink="http://www.w3.org/1999/xlink"><defs>
                <style>
                    .nwc {
                        stroke: #666666;
                        fill: none;
                        stroke-width: 1;
                        stroke-linecap: round;
                        stroke-linejoin: round;
                    }
                    .bwc {
                        stroke: #333;
                        fill: none;
                        stroke-width: 2;
                        stroke-linecap: round;
                        stroke-linejoin: round;
                    }
                    .nwibc {
                        fill: none;
                        stroke: #333;
                        stroke-width: 10;
                        stroke-linecap: round;
                        stroke-linejoin: round;
                    }
                    .nwifc {
                        fill: none;
                        stroke: white;
                        stroke-width: 8;
                        stroke-linecap: round;
                        stroke-linejoin: round;
                    }
                    .bwibc {
                        stroke: #333;
                        fill: none;
                        stroke-width: 10;
                        stroke-linecap: round;
                        stroke-linejoin: round;
                    }
                    .bwifc {
                        stroke: white;
                        fill: none;
                        stroke-width: 4;
                        stroke-linecap: round;
                        stroke-linejoin: round;
                    }
                    .nwbc {
                        stroke: #333;
                        fill: none;
                        stroke-width: 2;
                        //stroke-linecap: round;
                        //stroke-linejoin: round;
                    }
                    .pc {
                        stroke: none;
                        fill: #3498DB;
                        fill-opacity: 0.4;
                    }
                    .pac {
                        stroke: none;
                        fill: #3498DB;
                        fill-opacity: 0.0;
                    }
                    .lc {
                        stroke: none;
                        fill: #70361f;
                        fill-opacity: 0.2;
                    }
                    .cdc {
                        stroke: none;
                        fill: #4287f5;
                    }
                    .cc {
                        stroke: none;
                        shape-rendering: crispEdges;
                    }
                </style>
            </defs><rect width="100%" height="100%" fill="transparent"/><path d="M 20 20 A 42.31 42.31, 0, 0, 0, 20 50 A 30.61 30.61, 0, 0, 0, 50 50 A 60.84 60.84, 0, 0, 1, 50 20 A 86.69 86.69, 0, 0, 0, 20 20 " class="cc" fill-opacity="1" fill="#EDE3A5"/>
<path d="M 50 20 A 60.84 60.84, 0, 0, 0, 50 50 A 77.01 77.01, 0, 0, 1, 80 50 A 57.94 57.94, 0, 0, 0, 80 20 A 51.26 51.26, 0, 0, 1, 50 20 " class="cc" fill-opacity="1" fill="#EDEDA5"/>
<path d="M 80 20 A 57.94 57.94, 0, 0, 1, 80 50 A 101.3 101.3, 0, 0, 0, 110 50 A 29.81 29.81, 0, 0, 1, 110 20 A 75.73 75.73, 0, 0, 0, 80 20 " class="cc" fill-opacity="1" fill="#EDF29E"/>
<path d="M 110 20 A 29.81 29.81, 0, 0, 0, 110 50 A 23.64 23.64, 0, 0, 1, 140 50 A 42.26 42.26, 0, 0, 0, 140 20 A 48.38 48.38, 0, 0, 1, 110 20 " class="cc" fill-opacity="1" fill="#EDE2A1"/>
<path d="M 140 20 A 42.26 42.26, 0, 0, 1, 140 50 A 105.2 105.2, 0, 0, 0, 170 50 A 79.09 79.09, 0, 0, 1, 170 20 A 76.78 76.78, 0, 0, 0, 140 20 " class="cc" fill-opacity="1" fill="#EDF2A9"/>
<path d="M 170 20 A 79.09 79.09, 0, 0, 0, 170 50 A 45.2 45.2, 0, 0, 1, 200 50 A 73.43 73.43, 0, 0, 0, 200 20 A 80.97 80.97, 0, 0, 1, 170 20 " class="cc" fill-opacity="1" fill="#EDE6A8"/>
<path d="M 200 20 A 73.43 73.43, 0, 0, 1, 200 50 A 80.76 80.76, 0, 0, 0, 230 50 A 101.8 101.8, 0, 0, 1, 230 20 A 29.14 29.14, 0, 0, 0, 200 20 " class="cc" fill-opacity="1" fill="#EDEDAF"/>
<path d="M 230 20 A 101.8 101.8, 0, 0, 0, 230 50 A 34.87 34.87, 0, 0, 1, 260 50 A 53.62 53.62, 0, 0, 0, 260 20 A 88.92 88.92, 0, 0, 1, 230 20 " class="cc" fill-opacity="1" fill="#EDE4A4"/>
<path d="M 260 20 A 53.62 53.62, 0, 0, 1, 260 50 A 35.59 35.59, 0, 0, 0, 290 50 A 88.57 88.57, 0, 0, 1, 290 20 A 47.28 47.28, 0, 0, 0, 260 20 " class="cc" fill-opacity="1" fill="#EDE4AC"/>
<path d="M 290 20 A 88.57 88.57, 0, 0, 0, 290 50 A 91.05 91.05, 0, 0, 1, 320 50 A 96.43 96.43, 0, 0, 0, 320 20 A 68.42 68.42, 0, 0, 1, 290 20 " class="cc" fill-opacity="1" fill="#EDEFAD"/>
<path d="M 320 20 A 96.43 96.43, 0, 0, 1, 320 50 A 82.03 82.03, 0, 0, 0, 350 50 A 80.55 80.55, 0, 0, 1, 350 20 A 22.37 22.37, 0, 0, 0, 320 20 " class="cc" fill-opacity="1" fill="#EDEEAA"/>
<path d="M 350 20 A 80.55 80.55, 0, 0, 0, 350 50 A 105.38 105.38, 0, 0, 1, 380 50 A 89.63 89.63, 0, 0, 0, 380 20 A 94.08 94.08, 0, 0, 1, 350 20 " class="cc" fill-opacity="1" fill="#EDF2AC"/>
<path d="M 380 20 A 89.63 89.63, 0, 0, 1, 380 50 A 26.52 26.52, 0, 0, 0, 410 50 A 64.86 64.86, 0, 0, 1, 410 20 A 65.78 65.78, 0, 0, 0, 380 20 " class="cc" fill-opacity="1" fill="#EDE3A6"/>
<path d="M 410 20 A 64.86 64.86, 0, 0, 0, 410 50 A 44.36 44.36, 0, 0, 1, 440 50 A 105.54 105.54, 0, 0, 0, 440 20 A 79.86 79.86, 0, 0, 1, 410 20 " class="cc" fill-opacity="1" fill="#EDE6AF"/>
<path d="M 440 20 A 105.54 105.54, 0, 0, 1, 440 50 A 54.02 54.02, 0, 0, 0, 470 50 A 58.07 58.07, 0, 0, 1, 470 20 A 78.52 78.52, 0, 0, 0, 440 20 " class="cc" fill-opacity="1" fill="#EDE8A5"/>
<path d="M 20 50 A 78.69 78.69, 0, 0, 1, 20 80 A 61.34 61.34, 0, 0, 1, 50 80 A 41.96 41.96, 0, 0, 0, 50 50 A 30.61 30.61, 0, 0, 1, 20 50 " class="cc" fill-opacity="1" fill="#EDEDA5"/>
<path d="M 50 50 A 41.96 41.96, 0, 0, 1, 50 80 A 51.21 51.21, 0, 0, 0, 80 80 A 65.87 65.87, 0, 0, 1, 80 50 A 77.01 77.01, 0, 0, 0, 50 50 " class="cc" fill-opacity="1" fill="#EDE8A6"/>
<path d="M 80 50 A 65.87 65.87, 0, 0, 0, 80 80 A 35.59 35.59, 0, 0, 1, 110 80 A 50.62 50.62, 0, 0, 0, 110 50 A 101.3 101.3, 0, 0, 1, 80 50 " class="cc" fill-opacity="1" fill="#EDE7AA"/>
<path d="M 110 50 A 50.62 50.62, 0, 0, 1, 110 80 A 79.91 79.91, 0, 0, 0, 140 80 A 54.74 54.74, 0, 0, 1, 140 50 A 23.64 23.64, 0, 0, 0, 110 50 " class="cc" fill-opacity="1" fill="#EDE4AF"/>
<path d="M 140 50 A 54.74 54.74, 0, 0, 0, 140 80 A 34.39 34.39, 0, 0, 1, 170 80 A 101.81 101.81, 0, 0, 0, 170 50 A 105.2 105.2, 0, 0, 1, 140 50 " class="cc" fill-opacity="1" fill="#EDF2A6"/>
<path d="M 170 50 A 101.81 101.81, 0, 0, 1, 170 80 A 28.43 28.43, 0, 0, 0, 200 80 A 103.83 103.83, 0, 0, 1, 200 50 A 45.2 45.2, 0, 0, 0, 170 50 " class="cc" fill-opacity="1" fill="#EDE29F"/>
<path d="M 200 50 A 103.83 103.83, 0, 0, 0, 200 80 A 62.63 62.63, 0, 0, 1, 230 80 A 75.43 75.43, 0, 0, 0, 230 50 A 80.76 80.76, 0, 0, 1, 200 50 " class="cc" fill-opacity="1" fill="#EDE3A2"/>
<path d="M 230 50 A 75.43 75.43, 0, 0, 1, 230 80 A 25.19 25.19, 0, 0, 0, 260 80 A 31.47 31.47, 0, 0, 1, 260 50 A 34.87 34.87, 0, 0, 0, 230 50 " class="cc" fill-opacity="1" fill="#EDE7AF"/>
<path d="M 260 50 A 31.47 31.47, 0, 0, 0, 260 80 A 39.44 39.44, 0, 0, 1, 290 80 A 28.52 28.52, 0, 0, 0, 290 50 A 35.59 35.59, 0, 0, 1, 260 50 " class="cc" fill-opacity="1" fill="#EDEFA1"/>
<path d="M 290 50 A 28.52 28.52, 0, 0, 1, 290 80 A 47.68 47.68, 0, 0, 0, 320 80 A 67.77 67.77, 0, 0, 1, 320 50 A 91.05 91.05, 0, 0, 0, 290 50 " class="cc" fill-opacity="1" fill="#EDE5A5"/>
<path d="M 320 50 A 67.77 67.77, 0, 0, 0, 320 80 A 47.22 47.22, 0, 0, 1, 350 80 A 105.89 105.89, 0, 0, 0, 350 50 A 82.03 82.03, 0, 0, 1, 320 50 " class="cc" fill-opacity="1" fill="#EDE8AB"/>
<path d="M 350 50 A 105.89 105.89, 0, 0, 1, 350 80 A 95.53 95.53, 0, 0, 0, 380 80 A 88.77 88.77, 0, 0, 1, 380 50 A 105.38 105.38, 0, 0, 0, 350 50 " class="cc" fill-opacity="1" fill="#EDE4A6"/>
<path d="M 380 50 A 88.77 88.77, 0, 0, 0, 380 80 A 39.9 39.9, 0, 0, 1, 410 80 A 29.78 29.78, 0, 0, 0, 410 50 A 26.52 26.52, 0, 0, 1, 380 50 " class="cc" fill-opacity="1" fill="#EDE3A5"/>
<path d="M 410 50 A 29.78 29.78, 0, 0, 1, 410 80 A 36.4 36.4, 0, 0, 0, 440 80 A 57.61 57.61, 0, 0, 1, 440 50 A 44.36 44.36, 0, 0, 0, 410 50 " class="cc" fill-opacity="1" fill="#EDE8A4"/>
<path d="M 440 50 A 57.61 57.61, 0, 0, 0, 440 80 A 102.33 102.33, 0, 0, 1, 470 80 A 55.35 55.35, 0, 0, 0, 470 50 A 54.02 54.02, 0, 0, 1, 440 50 " class="cc" fill-opacity="1" fill="#EDECAC"/>
<path d="M 20 80 A 86.91 86.91, 0, 0, 0, 20 110 A 101.62 101.62, 0, 0, 0, 50 110 A 31.61 31.61, 0, 0, 1, 50 80 A 61.34 61.34, 0, 0, 0, 20 80 " class="cc" fill-opacity="1" fill="#EDEF9E"/>
<path d="M 50 80 A 31.61 31.61, 0, 0, 0, 50 110 A 62.97 62.97, 0, 0, 1, 80 110 A 48.44 48.44, 0, 0, 0, 80 80 A 51.21 51.21, 0, 0, 1, 50 80 " class="cc" fill-opacity="1" fill="#EDF1A1"/>
<path d="M 80 80 A 48.44 48.44, 0, 0, 1, 80 110 A 26.53 26.53, 0, 0, 0, 110 110 A 61.06 61.06, 0, 0, 1, 110 80 A 35.59 35.59, 0, 0, 0, 80 80 " class="cc" fill-opacity="1" fill="#EDEAA2"/>
<path d="M 110 80 A 61.06 61.06, 0, 0, 0, 110 110 A 51.78 51.78, 0, 0, 1, 140 110 A 54.04 54.04, 0, 0, 0, 140 80 A 79.91 79.91, 0, 0, 1, 110 80 " class="cc" fill-opacity="1" fill="#EDE4A4"/>
<path d="M 140 80 A 54.04 54.04, 0, 0, 1, 140 110 A 52.62 52.62, 0, 0, 0, 170 110 A 21.86 21.86, 0, 0, 1, 170 80 A 34.39 34.39, 0, 0, 0, 140 80 " class="cc" fill-opacity="1" fill="#EDE8A7"/>
<path d="M 170 80 A 21.86 21.86, 0, 0, 0, 170 110 A 73.69 73.69, 0, 0, 1, 200 110 A 92.2 92.2, 0, 0, 0, 200 80 A 28.43 28.43, 0, 0, 1, 170 80 " class="cc" fill-opacity="1" fill="#EDE3A0"/>
<path d="M 200 80 A 92.2 92.2, 0, 0, 1, 200 110 A 93.89 93.89, 0, 0, 0, 230 110 A 86.86 86.86, 0, 0, 1, 230 80 A 62.63 62.63, 0, 0, 0, 200 80 " class="cc" fill-opacity="1" fill="#EDE9AB"/>
<path d="M 230 80 A 86.86 86.86, 0, 0, 0, 230 110 A 28.75 28.75, 0, 0, 1, 260 110 A 23.45 23.45, 0, 0, 0, 260 80 A 25.19 25.19, 0, 0, 1, 230 80 " class="cc" fill-opacity="1" fill="#EDE4AD"/>
<path d="M 260 80 A 23.45 23.45, 0, 0, 1, 260 110 A 96.41 96.41, 0, 0, 0, 290 110 A 40.39 40.39, 0, 0, 1, 290 80 A 39.44 39.44, 0, 0, 0, 260 80 " class="cc" fill-opacity="1" fill="#EDE7AF"/>
<path d="M 290 80 A 40.39 40.39, 0, 0, 0, 290 110 A 95.29 95.29, 0, 0, 1, 320 110 A 61.63 61.63, 0, 0, 0, 320 80 A 47.68 47.68, 0, 0, 1, 290 80 " class="cc" fill-opacity="1" fill="#EDF0AA"/>
<path d="M 320 80 A 61.63 61.63, 0, 0, 1, 320 110 A 46.71 46.71, 0, 0, 0, 350 110 A 31.6 31.6, 0, 0, 1, 350 80 A 47.22 47.22, 0, 0, 0, 320 80 " class="cc" fill-opacity="1" fill="#EDEBAA"/>
<path d="M 350 80 A 31.6 31.6, 0, 0, 0, 350 110 A 31.96 31.96, 0, 0, 1, 380 110 A 52.68 52.68, 0, 0, 0, 380 80 A 95.53 95.53, 0, 0, 1, 350 80 " class="cc" fill-opacity="1" fill="#EDE29D"/>
<path d="M 380 80 A 52.68 52.68, 0, 0, 1, 380 110 A 61.52 61.52, 0, 0, 0, 410 110 A 52.5 52.5, 0, 0, 1, 410 80 A 39.9 39.9, 0, 0, 0, 380 80 " class="cc" fill-opacity="1" fill="#EDE3A2"/>
<path d="M 410 80 A 52.5 52.5, 0, 0, 0, 410 110 A 68.51 68.51, 0, 0, 1, 440 110 A 47.18 47.18, 0, 0, 0, 440 80 A 36.4 36.4, 0, 0, 1, 410 80 " class="cc" fill-opacity="1" fill="#EDE3AE"/>
<path d="M 440 80 A 47.18 47.18, 0, 0, 1, 440 110 A 27.02 27.02, 0, 0, 0, 470 110 A 35.43 35.43, 0, 0, 1, 470 80 A 102.33 102.33, 0, 0, 0, 440 80 " class="cc" fill-opacity="1" fill="#EDF0AF"/>
<path d="M 20 110 A 43.51 43.51, 0, 0, 1, 20 140 A 58.48 58.48, 0, 0, 1, 50 140 A 85.11 85.11, 0, 0, 0, 50 110 A 101.62 101.62, 0, 0, 1, 20 110 " class="cc" fill-opacity="1" fill="#EDF0AA"/>
<path d="M 50 110 A 85.11 85.11, 0, 0, 1, 50 140 A 36.11 36.11, 0, 0, 0, 80 140 A 32.87 32.87, 0, 0, 1, 80 110 A 62.97 62.97, 0, 0, 0, 50 110 " class="cc" fill-opacity="1" fill="#EDE2A3"/>
<path d="M 80 110 A 32.87 32.87, 0, 0, 0, 80 140 A 93.43 93.43, 0, 0, 1, 110 140 A 105.72 105.72, 0, 0, 0, 110 110 A 26.53 26.53, 0, 0, 1, 80 110 " class="cc" fill-opacity="1" fill="#EDEEA0"/>
<path d="M 110 110 A 105.72 105.72, 0, 0, 1, 110 140 A 48.2 48.2, 0, 0, 0, 140 140 A 104.72 104.72, 0, 0, 1, 140 110 A 51.78 51.78, 0, 0, 0, 110 110 " class="cc" fill-opacity="1" fill="#EDEDA9"/>
<path d="M 140 110 A 104.72 104.72, 0, 0, 0, 140 140 A 76.48 76.48, 0, 0, 1, 170 140 A 93.73 93.73, 0, 0, 0, 170 110 A 52.62 52.62, 0, 0, 1, 140 110 " class="cc" fill-opacity="1" fill="#EDE2A7"/>
<path d="M 170 110 A 93.73 93.73, 0, 0, 1, 170 140 A 80.55 80.55, 0, 0, 0, 200 140 A 101.12 101.12, 0, 0, 1, 200 110 A 73.69 73.69, 0, 0, 0, 170 110 " class="cc" fill-opacity="1" fill="#EDE5A8"/>
<path d="M 200 110 A 101.12 101.12, 0, 0, 0, 200 140 A 67.13 67.13, 0, 0, 1, 230 140 A 79.59 79.59, 0, 0, 0, 230 110 A 93.89 93.89, 0, 0, 1, 200 110 " class="cc" fill-opacity="1" fill="#EDE5A8"/>
<path d="M 230 110 A 79.59 79.59, 0, 0, 1, 230 140 A 34.9 34.9, 0, 0, 0, 260 140 A 22.86 22.86, 0, 0, 1, 260 110 A 28.75 28.75, 0, 0, 0, 230 110 " class="cc" fill-opacity="1" fill="#EDE7A3"/>
<path d="M 260 110 A 22.86 22.86, 0, 0, 0, 260 140 A 23.12 23.12, 0, 0, 1, 290 140 A 32.36 32.36, 0, 0, 0, 290 110 A 96.41 96.41, 0, 0, 1, 260 110 " class="cc" fill-opacity="1" fill="#EDE4AF"/>
<path d="M 290 110 A 32.36 32.36, 0, 0, 1, 290 140 A 27.54 27.54, 0, 0, 0, 320 140 A 46.05 46.05, 0, 0, 1, 320 110 A 95.29 95.29, 0, 0, 0, 290 110 " class="cc" fill-opacity="1" fill="#EDE3A3"/>
<path d="M 320 110 A 46.05 46.05, 0, 0, 0, 320 140 A 38.44 38.44, 0, 0, 1, 350 140 A 28.26 28.26, 0, 0, 0, 350 110 A 46.71 46.71, 0, 0, 1, 320 110 " class="cc" fill-opacity="1" fill="#EDEDA2"/>
<path d="M 350 110 A 28.26 28.26, 0, 0, 1, 350 140 A 99.78 99.78, 0, 0, 0, 380 140 A 61.42 61.42, 0, 0, 1, 380 110 A 31.96 31.96, 0, 0, 0, 350 110 " class="cc" fill-opacity="1" fill="#EDF0A5"/>
<path d="M 380 110 A 61.42 61.42, 0, 0, 0, 380 140 A 91.23 91.23, 0, 0, 1, 410 140 A 105.72 105.72, 0, 0, 0, 410 110 A 61.52 61.52, 0, 0, 1, 380 110 " class="cc" fill-opacity="1" fill="#EDEEAC"/>
<path d="M 410 110 A 105.72 105.72, 0, 0, 1, 410 140 A 31.5 31.5, 0, 0, 0, 440 140 A 92.99 92.99, 0, 0, 1, 440 110 A 68.51 68.51, 0, 0, 0, 410 110 " class="cc" fill-opacity="1" fill="#EDEEAC"/>
<path d="M 440 110 A 92.99 92.99, 0, 0, 0, 440 140 A 80.1 80.1, 0, 0, 1, 470 140 A 98.62 98.62, 0, 0, 0, 470 110 A 27.02 27.02, 0, 0, 1, 440 110 " class="cc" fill-opacity="1" fill="#EDE3A3"/>
<path d="M 20 140 A 25.81 25.81, 0, 0, 0, 20 170 A 48.23 48.23, 0, 0, 0, 50 170 A 38.4 38.4, 0, 0, 1, 50 140 A 58.48 58.48, 0, 0, 0, 20 140 " class="cc" fill-opacity="1" fill="#EDF19D"/>
<path d="M 50 140 A 38.4 38.4, 0, 0, 0, 50 170 A 84.42 84.42, 0, 0, 1, 80 170 A 36.43 36.43, 0, 0, 0, 80 140 A 36.11 36.11, 0, 0, 1, 50 140 " class="cc" fill-opacity="1" fill="#EDF2AD"/>
<path d="M 80 140 A 36.43 36.43, 0, 0, 1, 80 170 A 28.31 28.31, 0, 0, 0, 110 170 A 78.99 78.99, 0, 0, 1, 110 140 A 93.43 93.43, 0, 0, 0, 80 140 " class="cc" fill-opacity="1" fill="#EDF0A9"/>
<path d="M 110 140 A 78.99 78.99, 0, 0, 0, 110 170 A 75.21 75.21, 0, 0, 1, 140 170 A 41.39 41.39, 0, 0, 0, 140 140 A 48.2 48.2, 0, 0, 1, 110 140 " class="cc" fill-opacity="1" fill="#EDE9A7"/>
<path d="M 140 140 A 41.39 41.39, 0, 0, 1, 140 170 A 23.79 23.79, 0, 0, 0, 170 170 A 69.42 69.42, 0, 0, 1, 170 140 A 76.48 76.48, 0, 0, 0, 140 140 " class="cc" fill-opacity="1" fill="#EDE8AD"/>
<path d="M 170 140 A 69.42 69.42, 0, 0, 0, 170 170 A 41.73 41.73, 0, 0, 1, 200 170 A 40.02 40.02, 0, 0, 0, 200 140 A 80.55 80.55, 0, 0, 1, 170 140 " class="cc" fill-opacity="1" fill="#EDE7AA"/>
<path d="M 200 140 A 40.02 40.02, 0, 0, 1, 200 170 A 73.97 73.97, 0, 0, 0, 230 170 A 72.23 72.23, 0, 0, 1, 230 140 A 67.13 67.13, 0, 0, 0, 200 140 " class="cc" fill-opacity="1" fill="#EDE6AF"/>
<path d="M 230 140 A 72.23 72.23, 0, 0, 0, 230 170 A 36.54 36.54, 0, 0, 1, 260 170 A 70.9 70.9, 0, 0, 0, 260 140 A 34.9 34.9, 0, 0, 1, 230 140 " class="cc" fill-opacity="1" fill="#EDE89F"/>
<path d="M 260 140 A 70.9 70.9, 0, 0, 1, 260 170 A 79.16 79.16, 0, 0, 0, 290 170 A 47.83 47.83, 0, 0, 1, 290 140 A 23.12 23.12, 0, 0, 0, 260 140 " class="cc" fill-opacity="1" fill="#EDF2A6"/>
<path d="M 290 140 A 47.83 47.83, 0, 0, 0, 290 170 A 50.86 50.86, 0, 0, 1, 320 170 A 66.6 66.6, 0, 0, 0, 320 140 A 27.54 27.54, 0, 0, 1, 290 140 " class="cc" fill-opacity="1" fill="#EDE5A5"/>
<path d="M 320 140 A 66.6 66.6, 0, 0, 1, 320 170 A 36.03 36.03, 0, 0, 0, 350 170 A 105.55 105.55, 0, 0, 1, 350 140 A 38.44 38.44, 0, 0, 0, 320 140 " class="cc" fill-opacity="1" fill="#EDE4A1"/>
<path d="M 350 140 A 105.55 105.55, 0, 0, 0, 350 170 A 95.45 95.45, 0, 0, 1, 380 170 A 26.28 26.28, 0, 0, 0, 380 140 A 99.78 99.78, 0, 0, 1, 350 140 " class="cc" fill-opacity="1" fill="#EDE4A2"/>
<path d="M 380 140 A 26.28 26.28, 0, 0, 1, 380 170 A 51.43 51.43, 0, 0, 0, 410 170 A 91.39 91.39, 0, 0, 1, 410 140 A 91.23 91.23, 0, 0, 0, 380 140 " class="cc" fill-opacity="1" fill="#EDE49E"/>
<path d="M 410 140 A 91.39 91.39, 0, 0, 0, 410 170 A 80.76 80.76, 0, 0, 1, 440 170 A 47.7 47.7, 0, 0, 0, 440 140 A 31.5 31.5, 0, 0, 1, 410 140 " class="cc" fill-opacity="1" fill="#EDEAAC"/>
<path d="M 440 140 A 47.7 47.7, 0, 0, 1, 440 170 A 93.78 93.78, 0, 0, 0, 470 170 A 95.44 95.44, 0, 0, 1, 470 140 A 80.1 80.1, 0, 0, 0, 440 140 " class="cc" fill-opacity="1" fill="#EDE9A5"/>
<path d="M 20 170 A 61.28 61.28, 0, 0, 1, 20 200 A 45.83 45.83, 0, 0, 1, 50 200 A 83.93 83.93, 0, 0, 0, 50 170 A 48.23 48.23, 0, 0, 1, 20 170 " class="cc" fill-opacity="1" fill="#EDF2A3"/>
<path d="M 50 170 A 83.93 83.93, 0, 0, 1, 50 200 A 89.13 89.13, 0, 0, 0, 80 200 A 53.53 53.53, 0, 0, 1, 80 170 A 84.42 84.42, 0, 0, 0, 50 170 " class="cc" fill-opacity="1" fill="#EDE2A4"/>
<path d="M 80 170 A 53.53 53.53, 0, 0, 0, 80 200 A 83.94 83.94, 0, 0, 1, 110 200 A 88.78 88.78, 0, 0, 0, 110 170 A 28.31 28.31, 0, 0, 1, 80 170 " class="cc" fill-opacity="1" fill="#EDEDAC"/>
<path d="M 110 170 A 88.78 88.78, 0, 0, 1, 110 200 A 64.38 64.38, 0, 0, 0, 140 200 A 27.81 27.81, 0, 0, 1, 140 170 A 75.21 75.21, 0, 0, 0, 110 170 " class="cc" fill-opacity="1" fill="#EDE3A6"/>
<path d="M 140 170 A 27.81 27.81, 0, 0, 0, 140 200 A 49.93 49.93, 0, 0, 1, 170 200 A 53.98 53.98, 0, 0, 0, 170 170 A 23.79 23.79, 0, 0, 1, 140 170 " class="cc" fill-opacity="1" fill="#EDEC9D"/>
<path d="M 170 170 A 53.98 53.98, 0, 0, 1, 170 200 A 97.04 97.04, 0, 0, 0, 200 200 A 24.97 24.97, 0, 0, 1, 200 170 A 41.73 41.73, 0, 0, 0, 170 170 " class="cc" fill-opacity="1" fill="#EDEAA9"/>
<path d="M 200 170 A 24.97 24.97, 0, 0, 0, 200 200 A 82.69 82.69, 0, 0, 1, 230 200 A 102.77 102.77, 0, 0, 0, 230 170 A 73.97 73.97, 0, 0, 1, 200 170 " class="cc" fill-opacity="1" fill="#EDECA2"/>
<path d="M 230 170 A 102.77 102.77, 0, 0, 1, 230 200 A 94.3 94.3, 0, 0, 0, 260 200 A 47.03 47.03, 0, 0, 1, 260 170 A 36.54 36.54, 0, 0, 0, 230 170 " class="cc" fill-opacity="1" fill="#EDE7A1"/>
<path d="M 260 170 A 47.03 47.03, 0, 0, 0, 260 200 A 95.26 95.26, 0, 0, 1, 290 200 A 75.9 75.9, 0, 0, 0, 290 170 A 79.16 79.16, 0, 0, 1, 260 170 " class="cc" fill-opacity="1" fill="#EDE8A0"/>
<path d="M 290 170 A 75.9 75.9, 0, 0, 1, 290 200 A 56.03 56.03, 0, 0, 0, 320 200 A 58.41 58.41, 0, 0, 1, 320 170 A 50.86 50.86, 0, 0, 0, 290 170 " class="cc" fill-opacity="1" fill="#EDE7AA"/>
<path d="M 320 170 A 58.41 58.41, 0, 0, 0, 320 200 A 66.37 66.37, 0, 0, 1, 350 200 A 50.46 50.46, 0, 0, 0, 350 170 A 36.03 36.03, 0, 0, 1, 320 170 " class="cc" fill-opacity="1" fill="#EDEDAE"/>
<path d="M 350 170 A 50.46 50.46, 0, 0, 1, 350 200 A 53.23 53.23, 0, 0, 0, 380 200 A 95.84 95.84, 0, 0, 1, 380 170 A 95.45 95.45, 0, 0, 0, 350 170 " class="cc" fill-opacity="1" fill="#EDE49D"/>
<path d="M 380 170 A 95.84 95.84, 0, 0, 0, 380 200 A 48.75 48.75, 0, 0, 1, 410 200 A 49.02 49.02, 0, 0, 0, 410 170 A 51.43 51.43, 0, 0, 1, 380 170 " class="cc" fill-opacity="1" fill="#EDF1A0"/>
<path d="M 410 170 A 49.02 49.02, 0, 0, 1, 410 200 A 79.35 79.35, 0, 0, 0, 440 200 A 91.06 91.06, 0, 0, 1, 440 170 A 80.76 80.76, 0, 0, 0, 410 170 " class="cc" fill-opacity="1" fill="#EDEDA6"/>
<path d="M 440 170 A 91.06 91.06, 0, 0, 0, 440 200 A 42.98 42.98, 0, 0, 1, 470 200 A 104.3 104.3, 0, 0, 0, 470 170 A 93.78 93.78, 0, 0, 1, 440 170 " class="cc" fill-opacity="1" fill="#EDED9E"/>
<path d="M 20 200 A 48.71 48.71, 0, 0, 0, 20 230 A 53.67 53.67, 0, 0, 0, 50 230 A 34.42 34.42, 0, 0, 1, 50 200 A 45.83 45.83, 0, 0, 0, 20 200 " class="cc" fill-opacity="1" fill="#EDE3A6"/>
<path d="M 50 200 A 34.42 34.42, 0, 0, 0, 50 230 A 29.36 29.36, 0, 0, 1, 80 230 A 101.97 101.97, 0, 0, 0, 80 200 A 89.13 89.13, 0, 0, 1, 50 200 " class="cc" fill-opacity="1" fill="#EDE39D"/>
<path d="M 80 200 A 101.97 101.97, 0, 0, 1, 80 230 A 62.16 62.16, 0, 0, 0, 110 230 A 90.91 90.91, 0, 0, 1, 110 200 A 83.94 83.94, 0, 0, 0, 80 200 " class="cc" fill-opacity="1" fill="#EDE9AC"/>
<path d="M 110 200 A 90.91 90.91, 0, 0, 0, 110 230 A 39.91 39.91, 0, 0, 1, 140 230 A 58.67 58.67, 0, 0, 0, 140 200 A 64.38 64.38, 0, 0, 1, 110 200 " class="cc" fill-opacity="1" fill="#EDECA8"/>
<path d="M 140 200 A 58.67 58.67, 0, 0, 1, 140 230 A 88.19 88.19, 0, 0, 0, 170 230 A 35.99 35.99, 0, 0, 1, 170 200 A 49.93 49.93, 0, 0, 0, 140 200 " class="cc" fill-opacity="1" fill="#EDE7A9"/>
<path d="M 170 200 A 35.99 35.99, 0, 0, 0, 170 230 A 41.24 41.24, 0, 0, 1, 200 230 A 22.14 22.14, 0, 0, 0, 200 200 A 97.04 97.04, 0, 0, 1, 170 200 " class="cc" fill-opacity="1" fill="#EDEAA3"/>
<path d="M 200 200 A 22.14 22.14, 0, 0, 1, 200 230 A 33.84 33.84, 0, 0, 0, 230 230 A 45.06 45.06, 0, 0, 1, 230 200 A 82.69 82.69, 0, 0, 0, 200 200 " class="cc" fill-opacity="1" fill="#EDE5A4"/>
<path d="M 230 200 A 45.06 45.06, 0, 0, 0, 230 230 A 101.79 101.79, 0, 0, 1, 260 230 A 33.97 33.97, 0, 0, 0, 260 200 A 94.3 94.3, 0, 0, 1, 230 200 " class="cc" fill-opacity="1" fill="#EDE4A5"/>
<path d="M 260 200 A 33.97 33.97, 0, 0, 1, 260 230 A 29.57 29.57, 0, 0, 0, 290 230 A 63.2 63.2, 0, 0, 1, 290 200 A 95.26 95.26, 0, 0, 0, 260 200 " class="cc" fill-opacity="1" fill="#EDE6A8"/>
<path d="M 290 200 A 63.2 63.2, 0, 0, 0, 290 230 A 65.57 65.57, 0, 0, 1, 320 230 A 91.56 91.56, 0, 0, 0, 320 200 A 56.03 56.03, 0, 0, 1, 290 200 " class="cc" fill-opacity="1" fill="#EDE4AE"/>
<path d="M 320 200 A 91.56 91.56, 0, 0, 1, 320 230 A 77.87 77.87, 0, 0, 0, 350 230 A 58.97 58.97, 0, 0, 1, 350 200 A 66.37 66.37, 0, 0, 0, 320 200 " class="cc" fill-opacity="1" fill="#EDF0A9"/>
<path d="M 350 200 A 58.97 58.97, 0, 0, 0, 350 230 A 58.25 58.25, 0, 0, 1, 380 230 A 100.97 100.97, 0, 0, 0, 380 200 A 53.23 53.23, 0, 0, 1, 350 200 " class="cc" fill-opacity="1" fill="#EDF0A2"/>
<path d="M 380 200 A 100.97 100.97, 0, 0, 1, 380 230 A 101.44 101.44, 0, 0, 0, 410 230 A 51.91 51.91, 0, 0, 1, 410 200 A 48.75 48.75, 0, 0, 0, 380 200 " class="cc" fill-opacity="1" fill="#EDEAA1"/>
<path d="M 410 200 A 51.91 51.91, 0, 0, 0, 410 230 A 99.35 99.35, 0, 0, 1, 440 230 A 25.99 25.99, 0, 0, 0, 440 200 A 79.35 79.35, 0, 0, 1, 410 200 " class="cc" fill-opacity="1" fill="#EDF2A0"/>
<path d="M 440 200 A 25.99 25.99, 0, 0, 1, 440 230 A 56.13 56.13, 0, 0, 0, 470 230 A 30.64 30.64, 0, 0, 1, 470 200 A 42.98 42.98, 0, 0, 0, 440 200 " class="cc" fill-opacity="1" fill="#EDEBA6"/>
<path d="M 20 230 A 79.38 79.38, 0, 0, 1, 20 260 A 90.89 90.89, 0, 0, 1, 50 260 A 51.7 51.7, 0, 0, 0, 50 230 A 53.67 53.67, 0, 0, 1, 20 230 " class="cc" fill-opacity="1" fill="#EDF2A7"/>
<path d="M 50 230 A 51.7 51.7, 0, 0, 1, 50 260 A 26.48 26.48, 0, 0, 0, 80 260 A 64.59 64.59, 0, 0, 1, 80 230 A 29.36 29.36, 0, 0, 0, 50 230 " class="cc" fill-opacity="1" fill="#EDEF9F"/>
<path d="M 80 230 A 64.59 64.59, 0, 0, 0, 80 260 A 96.62 96.62, 0, 0, 1, 110 260 A 74.55 74.55, 0, 0, 0, 110 230 A 62.16 62.16, 0, 0, 1, 80 230 " class="cc" fill-opacity="1" fill="#EDE7A5"/>
<path d="M 110 230 A 74.55 74.55, 0, 0, 1, 110 260 A 22.02 22.02, 0, 0, 0, 140 260 A 53.35 53.35, 0, 0, 1, 140 230 A 39.91 39.91, 0, 0, 0, 110 230 " class="cc" fill-opacity="1" fill="#EDE5AD"/>
<path d="M 140 230 A 53.35 53.35, 0, 0, 0, 140 260 A 62.19 62.19, 0, 0, 1, 170 260 A 76.57 76.57, 0, 0, 0, 170 230 A 88.19 88.19, 0, 0, 1, 140 230 " class="cc" fill-opacity="1" fill="#EDE3AD"/>
<path d="M 170 230 A 76.57 76.57, 0, 0, 1, 170 260 A 38.44 38.44, 0, 0, 0, 200 260 A 73.91 73.91, 0, 0, 1, 200 230 A 41.24 41.24, 0, 0, 0, 170 230 " class="cc" fill-opacity="1" fill="#EDEDA2"/>
<path d="M 200 230 A 73.91 73.91, 0, 0, 0, 200 260 A 43.63 43.63, 0, 0, 1, 230 260 A 46.35 46.35, 0, 0, 0, 230 230 A 33.84 33.84, 0, 0, 1, 200 230 " class="cc" fill-opacity="1" fill="#EDE8AB"/>
<path d="M 230 230 A 46.35 46.35, 0, 0, 1, 230 260 A 49.53 49.53, 0, 0, 0, 260 260 A 40.61 40.61, 0, 0, 1, 260 230 A 101.79 101.79, 0, 0, 0, 230 230 " class="cc" fill-opacity="1" fill="#EDF2A6"/>
<path d="M 260 230 A 40.61 40.61, 0, 0, 0, 260 260 A 72 72, 0, 0, 1, 290 260 A 53.03 53.03, 0, 0, 0, 290 230 A 29.57 29.57, 0, 0, 1, 260 230 " class="cc" fill-opacity="1" fill="#EDEB9D"/>
<path d="M 290 230 A 53.03 53.03, 0, 0, 1, 290 260 A 36.27 36.27, 0, 0, 0, 320 260 A 70.99 70.99, 0, 0, 1, 320 230 A 65.57 65.57, 0, 0, 0, 290 230 " class="cc" fill-opacity="1" fill="#EDE8A1"/>
<path d="M 320 230 A 70.99 70.99, 0, 0, 0, 320 260 A 49.08 49.08, 0, 0, 1, 350 260 A 83.48 83.48, 0, 0, 0, 350 230 A 77.87 77.87, 0, 0, 1, 320 230 " class="cc" fill-opacity="1" fill="#EDE9A8"/>
<path d="M 350 230 A 83.48 83.48, 0, 0, 1, 350 260 A 33.95 33.95, 0, 0, 0, 380 260 A 76.91 76.91, 0, 0, 1, 380 230 A 58.25 58.25, 0, 0, 0, 350 230 " class="cc" fill-opacity="1" fill="#EDECA2"/>
<path d="M 380 230 A 76.91 76.91, 0, 0, 0, 380 260 A 100.77 100.77, 0, 0, 1, 410 260 A 82.24 82.24, 0, 0, 0, 410 230 A 101.44 101.44, 0, 0, 1, 380 230 " class="cc" fill-opacity="1" fill="#EDE2A4"/>
<path d="M 410 230 A 82.24 82.24, 0, 0, 1, 410 260 A 34.46 34.46, 0, 0, 0, 440 260 A 21.74 21.74, 0, 0, 1, 440 230 A 99.35 99.35, 0, 0, 0, 410 230 " class="cc" fill-opacity="1" fill="#EDECA7"/>
<path d="M 440 230 A 21.74 21.74, 0, 0, 0, 440 260 A 31.46 31.46, 0, 0, 1, 470 260 A 97.62 97.62, 0, 0, 0, 470 230 A 56.13 56.13, 0, 0, 1, 440 230 " class="cc" fill-opacity="1" fill="#EDE9A9"/>
<path d="M 20 260 A 35.13 35.13, 0, 0, 0, 20 290 A 23.76 23.76, 0, 0, 0, 50 290 A 78.76 78.76, 0, 0, 1, 50 260 A 90.89 90.89, 0, 0, 0, 20 260 " class="cc" fill-opacity="1" fill="#EDECA4"/>
<path d="M 50 260 A 78.76 78.76, 0, 0, 0, 50 290 A 62.67 62.67, 0, 0, 1, 80 290 A 56.42 56.42, 0, 0, 0, 80 260 A 26.48 26.48, 0, 0, 1, 50 260 " class="cc" fill-opacity="1" fill="#EDE6A2"/>
<path d="M 80 260 A 56.42 56.42, 0, 0, 1, 80 290 A 76.51 76.51, 0, 0, 0, 110 290 A 28.57 28.57, 0, 0, 1, 110 260 A 96.62 96.62, 0, 0, 0, 80 260 " class="cc" fill-opacity="1" fill="#EDE59F"/>
<path d="M 110 260 A 28.57 28.57, 0, 0, 0, 110 290 A 86.54 86.54, 0, 0, 1, 140 290 A 26.39 26.39, 0, 0, 0, 140 260 A 22.02 22.02, 0, 0, 1, 110 260 " class="cc" fill-opacity="1" fill="#EDE9AF"/>
<path d="M 140 260 A 26.39 26.39, 0, 0, 1, 140 290 A 65.48 65.48, 0, 0, 0, 170 290 A 28.77 28.77, 0, 0, 1, 170 260 A 62.19 62.19, 0, 0, 0, 140 260 " class="cc" fill-opacity="1" fill="#EDE3A1"/>
<path d="M 170 260 A 28.77 28.77, 0, 0, 0, 170 290 A 31.06 31.06, 0, 0, 1, 200 290 A 24.6 24.6, 0, 0, 0, 200 260 A 38.44 38.44, 0, 0, 1, 170 260 " class="cc" fill-opacity="1" fill="#EDF2AE"/>
<path d="M 200 260 A 24.6 24.6, 0, 0, 1, 200 290 A 36.21 36.21, 0, 0, 0, 230 290 A 60.64 60.64, 0, 0, 1, 230 260 A 43.63 43.63, 0, 0, 0, 200 260 " class="cc" fill-opacity="1" fill="#EDE9AA"/>
<path d="M 230 260 A 60.64 60.64, 0, 0, 0, 230 290 A 91.12 91.12, 0, 0, 1, 260 290 A 35.83 35.83, 0, 0, 0, 260 260 A 49.53 49.53, 0, 0, 1, 230 260 " class="cc" fill-opacity="1" fill="#EDE3A6"/>
<path d="M 260 260 A 35.83 35.83, 0, 0, 1, 260 290 A 75.83 75.83, 0, 0, 0, 290 290 A 73.12 73.12, 0, 0, 1, 290 260 A 72 72, 0, 0, 0, 260 260 " class="cc" fill-opacity="1" fill="#EDE9A9"/>
<path d="M 290 260 A 73.12 73.12, 0, 0, 0, 290 290 A 32.52 32.52, 0, 0, 1, 320 290 A 48.56 48.56, 0, 0, 0, 320 260 A 36.27 36.27, 0, 0, 1, 290 260 " class="cc" fill-opacity="1" fill="#EDE3AB"/>
<path d="M 320 260 A 48.56 48.56, 0, 0, 1, 320 290 A 79.03 79.03, 0, 0, 0, 350 290 A 41.08 41.08, 0, 0, 1, 350 260 A 49.08 49.08, 0, 0, 0, 320 260 " class="cc" fill-opacity="1" fill="#EDEDA7"/>
<path d="M 350 260 A 41.08 41.08, 0, 0, 0, 350 290 A 65.72 65.72, 0, 0, 1, 380 290 A 51.52 51.52, 0, 0, 0, 380 260 A 33.95 33.95, 0, 0, 1, 350 260 " class="cc" fill-opacity="1" fill="#EDF2AF"/>
<path d="M 380 260 A 51.52 51.52, 0, 0, 1, 380 290 A 28.62 28.62, 0, 0, 0, 410 290 A 38.96 38.96, 0, 0, 1, 410 260 A 100.77 100.77, 0, 0, 0, 380 260 " class="cc" fill-opacity="1" fill="#EDEF9F"/>
<path d="M 410 260 A 38.96 38.96, 0, 0, 0, 410 290 A 55.63 55.63, 0, 0, 1, 440 290 A 69.88 69.88, 0, 0, 0, 440 260 A 34.46 34.46, 0, 0, 1, 410 260 " class="cc" fill-opacity="1" fill="#EDE7A1"/>
<path d="M 440 260 A 69.88 69.88, 0, 0, 1, 440 290 A 35.59 35.59, 0, 0, 0, 470 290 A 61.3 61.3, 0, 0, 1, 470 260 A 31.46 31.46, 0, 0, 0, 440 260 " class="cc" fill-opacity="1" fill="#EDE59F"/>
<path d="M 20 290 A 21.49 21.49, 0, 0, 1, 20 320 A 43.1 43.1, 0, 0, 1, 50 320 A 70.63 70.63, 0, 0, 0, 50 290 A 23.76 23.76, 0, 0, 1, 20 290 " class="cc" fill-opacity="1" fill="#EDF1AD"/>
<path d="M 50 290 A 70.63 70.63, 0, 0, 1, 50 320 A 62.65 62.65, 0, 0, 0, 80 320 A 35.9 35.9, 0, 0, 1, 80 290 A 62.67 62.67, 0, 0, 0, 50 290 " class="cc" fill-opacity="1" fill="#EDEDA9"/>
<path d="M 80 290 A 35.9 35.9, 0, 0, 0, 80 320 A 101.22 101.22, 0, 0, 1, 110 320 A 87.02 87.02, 0, 0, 0, 110 290 A 76.51 76.51, 0, 0, 1, 80 290 " class="cc" fill-opacity="1" fill="#EDE2AF"/>
<path d="M 110 290 A 87.02 87.02, 0, 0, 1, 110 320 A 96 96, 0, 0, 0, 140 320 A 79.09 79.09, 0, 0, 1, 140 290 A 86.54 86.54, 0, 0, 0, 110 290 " class="cc" fill-opacity="1" fill="#EDE4A6"/>
<path d="M 140 290 A 79.09 79.09, 0, 0, 0, 140 320 A 33.25 33.25, 0, 0, 1, 170 320 A 91.53 91.53, 0, 0, 0, 170 290 A 65.48 65.48, 0, 0, 1, 140 290 " class="cc" fill-opacity="1" fill="#EDEFAB"/>
<path d="M 170 290 A 91.53 91.53, 0, 0, 1, 170 320 A 47.85 47.85, 0, 0, 0, 200 320 A 76.85 76.85, 0, 0, 1, 200 290 A 31.06 31.06, 0, 0, 0, 170 290 " class="cc" fill-opacity="1" fill="#EDF29F"/>
<path d="M 200 290 A 76.85 76.85, 0, 0, 0, 200 320 A 63.43 63.43, 0, 0, 1, 230 320 A 39.23 39.23, 0, 0, 0, 230 290 A 36.21 36.21, 0, 0, 1, 200 290 " class="cc" fill-opacity="1" fill="#EDEBAB"/>
<path d="M 230 290 A 39.23 39.23, 0, 0, 1, 230 320 A 80.1 80.1, 0, 0, 0, 260 320 A 103.81 103.81, 0, 0, 1, 260 290 A 91.12 91.12, 0, 0, 0, 230 290 " class="cc" fill-opacity="1" fill="#EDE5A0"/>
<path d="M 260 290 A 103.81 103.81, 0, 0, 0, 260 320 A 37.49 37.49, 0, 0, 1, 290 320 A 30.86 30.86, 0, 0, 0, 290 290 A 75.83 75.83, 0, 0, 1, 260 290 " class="cc" fill-opacity="1" fill="#EDEAA0"/>
<path d="M 290 290 A 30.86 30.86, 0, 0, 1, 290 320 A 67.62 67.62, 0, 0, 0, 320 320 A 64.69 64.69, 0, 0, 1, 320 290 A 32.52 32.52, 0, 0, 0, 290 290 " class="cc" fill-opacity="1" fill="#EDE69F"/>
<path d="M 320 290 A 64.69 64.69, 0, 0, 0, 320 320 A 54.69 54.69, 0, 0, 1, 350 320 A 105.01 105.01, 0, 0, 0, 350 290 A 79.03 79.03, 0, 0, 1, 320 290 " class="cc" fill-opacity="1" fill="#EDEFAD"/>
<path d="M 350 290 A 105.01 105.01, 0, 0, 1, 350 320 A 70.27 70.27, 0, 0, 0, 380 320 A 62.16 62.16, 0, 0, 1, 380 290 A 65.72 65.72, 0, 0, 0, 350 290 " class="cc" fill-opacity="1" fill="#EDE7A7"/>
<path d="M 380 290 A 62.16 62.16, 0, 0, 0, 380 320 A 88.74 88.74, 0, 0, 1, 410 320 A 34.25 34.25, 0, 0, 0, 410 290 A 28.62 28.62, 0, 0, 1, 380 290 " class="cc" fill-opacity="1" fill="#EDEEA5"/>
<path d="M 410 290 A 34.25 34.25, 0, 0, 1, 410 320 A 32.37 32.37, 0, 0, 0, 440 320 A 49.01 49.01, 0, 0, 1, 440 290 A 55.63 55.63, 0, 0, 0, 410 290 " class="cc" fill-opacity="1" fill="#EDECA9"/>
<path d="M 440 290 A 49.01 49.01, 0, 0, 0, 440 320 A 58.77 58.77, 0, 0, 1, 470 320 A 79.01 79.01, 0, 0, 0, 470 290 A 35.59 35.59, 0, 0, 1, 440 290 " class="cc" fill-opacity="1" fill="#EDF2AC"/>
<path d="M 20 20 A 86.69 86.69, 0, 0, 1, 50 20" class="bwc"/>
<path d="M 50 20 A 51.26 51.26, 0, 0, 0, 80 20" class="bwc"/>
<path d="M 80 20 A 57.94 57.94, 0, 0, 1, 80 50" class="nwc"/>
<path d="M 80 20 A 75.73 75.73, 0, 0, 1, 110 20" class="bwc"/>
<path d="M 80 50 A 101.3 101.3, 0, 0, 0, 110 50" class="nwc"/>
<path d="M 110 20 A 48.38 48.38, 0, 0, 0, 140 20" class="bwc"/>
<path d="M 140 20 A 42.26 42.26, 0, 0, 1, 140 50" class="nwc"/>
<path d="M 140 20 A 76.78 76.78, 0, 0, 1, 170 20" class="bwc"/>
<path d="M 170 20 A 79.09 79.09, 0, 0, 0, 170 50" class="nwc"/>
<path d="M 170 20 A 80.97 80.97, 0, 0, 0, 200 20" class="bwc"/>
<path d="M 200 20 A 73.43 73.43, 0, 0, 1, 200 50" class="nwc"/>
<path d="M 200 20 A 29.14 29.14, 0, 0, 1, 230 20" class="bwc"/>
<path d="M 200 50 A 80.76 80.76, 0, 0, 0, 230 50" class="nwc"/>
<path d="M 230 20 A 88.92 88.92, 0, 0, 0, 260 20" class="bwc"/>
<path d="M 230 50 A 34.87 34.87, 0, 0, 1, 260 50" class="nwc"/>
<path d="M 260 20 A 47.28 47.28, 0, 0, 1, 290 20" class="bwc"/>
<path d="M 260 50 A 35.59 35.59, 0, 0, 0, 290 50" class="nwc"/>
<path d="M 290 20 A 68.42 68.42, 0, 0, 0, 320 20" class="bwc"/>
<path d="M 290 50 A 91.05 91.05, 0, 0, 1, 320 50" class="nwc"/>
<path d="M 320 20 A 22.37 22.37, 0, 0, 1, 350 20" class="bwc"/>
<path d="M 350 20 A 80.55 80.55, 0, 0, 0, 350 50" class="nwc"/>
<path d="M 350 20 A 94.08 94.08, 0, 0, 0, 380 20" class="bwc"/>
<path d="M 380 20 A 65.78 65.78, 0, 0, 1, 410 20" class="bwc"/>
<path d="M 380 50 A 26.52 26.52, 0, 0, 0, 410 50" class="nwc"/>
<path d="M 410 20 A 79.86 79.86, 0, 0, 0, 440 20" class="bwc"/>
<path d="M 440 20 A 105.54 105.54, 0, 0, 1, 440 50" class="nwc"/>
<path d="M 410 50 A 44.36 44.36, 0, 0, 1, 440 50" class="nwc"/>
<path d="M 440 20 A 78.52 78.52, 0, 0, 1, 470 20" class="bwc"/>
<path d="M 470 20 A 58.07 58.07, 0, 0, 0, 470 50" class="bwc"/>
<path d="M 20 50 A 78.69 78.69, 0, 0, 1, 20 80" class="bwc"/>
<path d="M 50 50 A 41.96 41.96, 0, 0, 1, 50 80" class="nwc"/>
<path d="M 20 80 A 61.34 61.34, 0, 0, 1, 50 80" class="nwc"/>
<path d="M 50 80 A 51.21 51.21, 0, 0, 0, 80 80" class="nwc"/>
<path d="M 170 50 A 101.81 101.81, 0, 0, 1, 170 80" class="nwc"/>
<path d="M 140 80 A 34.39 34.39, 0, 0, 1, 170 80" class="nwc"/>
<path d="M 170 80 A 28.43 28.43, 0, 0, 0, 200 80" class="nwc"/>
<path d="M 260 50 A 31.47 31.47, 0, 0, 0, 260 80" class="nwc"/>
<path d="M 230 80 A 25.19 25.19, 0, 0, 0, 260 80" class="nwc"/>
<path d="M 260 80 A 39.44 39.44, 0, 0, 1, 290 80" class="nwc"/>
<path d="M 350 80 A 95.53 95.53, 0, 0, 0, 380 80" class="nwc"/>
<path d="M 380 80 A 39.9 39.9, 0, 0, 1, 410 80" class="nwc"/>
<path d="M 470 50 A 55.35 55.35, 0, 0, 1, 470 80" class="bwc"/>
<path d="M 440 80 A 102.33 102.33, 0, 0, 1, 470 80" class="nwc"/>
<path d="M 20 80 A 86.91 86.91, 0, 0, 0, 20 110" class="bwc"/>
<path d="M 20 110 A 101.62 101.62, 0, 0, 0, 50 110" class="nwc"/>
<path d="M 50 110 A 62.97 62.97, 0, 0, 1, 80 110" class="nwc"/>
<path d="M 110 80 A 61.06 61.06, 0, 0, 0, 110 110" class="nwc"/>
<path d="M 80 110 A 26.53 26.53, 0, 0, 0, 110 110" class="nwc"/>
<path d="M 140 80 A 54.04 54.04, 0, 0, 1, 140 110" class="nwc"/>
<path d="M 170 80 A 21.86 21.86, 0, 0, 0, 170 110" class="nwc"/>
<path d="M 230 80 A 86.86 86.86, 0, 0, 0, 230 110" class="nwc"/>
<path d="M 260 80 A 23.45 23.45, 0, 0, 1, 260 110" class="nwc"/>
<path d="M 320 80 A 61.63 61.63, 0, 0, 1, 320 110" class="nwc"/>
<path d="M 290 110 A 95.29 95.29, 0, 0, 1, 320 110" class="nwc"/>
<path d="M 320 110 A 46.71 46.71, 0, 0, 0, 350 110" class="nwc"/>
<path d="M 380 80 A 52.68 52.68, 0, 0, 1, 380 110" class="nwc"/>
<path d="M 350 110 A 31.96 31.96, 0, 0, 1, 380 110" class="nwc"/>
<path d="M 410 110 A 68.51 68.51, 0, 0, 1, 440 110" class="nwc"/>
<path d="M 470 80 A 35.43 35.43, 0, 0, 0, 470 110" class="bwc"/>
<path d="M 20 110 A 43.51 43.51, 0, 0, 1, 20 140" class="bwc"/>
<path d="M 20 140 A 58.48 58.48, 0, 0, 1, 50 140" class="nwc"/>
<path d="M 50 140 A 36.11 36.11, 0, 0, 0, 80 140" class="nwc"/>
<path d="M 80 140 A 93.43 93.43, 0, 0, 1, 110 140" class="nwc"/>
<path d="M 170 110 A 93.73 93.73, 0, 0, 1, 170 140" class="nwc"/>
<path d="M 200 110 A 101.12 101.12, 0, 0, 0, 200 140" class="nwc"/>
<path d="M 200 140 A 67.13 67.13, 0, 0, 1, 230 140" class="nwc"/>
<path d="M 290 110 A 32.36 32.36, 0, 0, 1, 290 140" class="nwc"/>
<path d="M 260 140 A 23.12 23.12, 0, 0, 1, 290 140" class="nwc"/>
<path d="M 320 110 A 46.05 46.05, 0, 0, 0, 320 140" class="nwc"/>
<path d="M 410 110 A 105.72 105.72, 0, 0, 1, 410 140" class="nwc"/>
<path d="M 470 110 A 98.62 98.62, 0, 0, 1, 470 140" class="bwc"/>
<path d="M 440 140 A 80.1 80.1, 0, 0, 1, 470 140" class="nwc"/>
<path d="M 20 140 A 25.81 25.81, 0, 0, 0, 20 170" class="bwc"/>
<path d="M 50 170 A 84.42 84.42, 0, 0, 1, 80 170" class="nwc"/>
<path d="M 80 170 A 28.31 28.31, 0, 0, 0, 110 170" class="nwc"/>
<path d="M 140 140 A 41.39 41.39, 0, 0, 1, 140 170" class="nwc"/>
<path d="M 140 170 A 23.79 23.79, 0, 0, 0, 170 170" class="nwc"/>
<path d="M 200 140 A 40.02 40.02, 0, 0, 1, 200 170" class="nwc"/>
<path d="M 170 170 A 41.73 41.73, 0, 0, 1, 200 170" class="nwc"/>
<path d="M 230 170 A 36.54 36.54, 0, 0, 1, 260 170" class="nwc"/>
<path d="M 290 140 A 47.83 47.83, 0, 0, 0, 290 170" class="nwc"/>
<path d="M 290 170 A 50.86 50.86, 0, 0, 1, 320 170" class="nwc"/>
<path d="M 350 140 A 105.55 105.55, 0, 0, 0, 350 170" class="nwc"/>
<path d="M 320 170 A 36.03 36.03, 0, 0, 0, 350 170" class="nwc"/>
<path d="M 380 140 A 26.28 26.28, 0, 0, 1, 380 170" class="nwc"/>
<path d="M 350 170 A 95.45 95.45, 0, 0, 1, 380 170" class="nwc"/>
<path d="M 410 140 A 91.39 91.39, 0, 0, 0, 410 170" class="nwc"/>
<path d="M 410 170 A 80.76 80.76, 0, 0, 1, 440 170" class="nwc"/>
<path d="M 470 140 A 95.44 95.44, 0, 0, 0, 470 170" class="bwc"/>
<path d="M 440 170 A 93.78 93.78, 0, 0, 0, 470 170" class="nwc"/>
<path d="M 20 170 A 61.28 61.28, 0, 0, 1, 20 200" class="bwc"/>
<path d="M 50 170 A 83.93 83.93, 0, 0, 1, 50 200" class="nwc"/>
<path d="M 110 170 A 88.78 88.78, 0, 0, 1, 110 200" class="nwc"/>
<path d="M 80 200 A 83.94 83.94, 0, 0, 1, 110 200" class="nwc"/>
<path d="M 110 200 A 64.38 64.38, 0, 0, 0, 140 200" class="nwc"/>
<path d="M 170 170 A 53.98 53.98, 0, 0, 1, 170 200" class="nwc"/>
<path d="M 140 200 A 49.93 49.93, 0, 0, 1, 170 200" class="nwc"/>
<path d="M 200 170 A 24.97 24.97, 0, 0, 0, 200 200" class="nwc"/>
<path d="M 230 170 A 102.77 102.77, 0, 0, 1, 230 200" class="nwc"/>
<path d="M 290 170 A 75.9 75.9, 0, 0, 1, 290 200" class="nwc"/>
<path d="M 260 200 A 95.26 95.26, 0, 0, 1, 290 200" class="nwc"/>
<path d="M 320 200 A 66.37 66.37, 0, 0, 1, 350 200" class="nwc"/>
<path d="M 350 200 A 53.23 53.23, 0, 0, 0, 380 200" class="nwc"/>
<path d="M 410 170 A 49.02 49.02, 0, 0, 1, 410 200" class="nwc"/>
<path d="M 440 170 A 91.06 91.06, 0, 0, 0, 440 200" class="nwc"/>
<path d="M 470 170 A 104.3 104.3, 0, 0, 1, 470 200" class="bwc"/>
<path d="M 20 200 A 48.71 48.71, 0, 0, 0, 20 230" class="bwc"/>
<path d="M 50 200 A 34.42 34.42, 0, 0, 0, 50 230" class="nwc"/>
<path d="M 20 230 A 53.67 53.67, 0, 0, 0, 50 230" class="nwc"/>
<path d="M 80 230 A 62.16 62.16, 0, 0, 0, 110 230" class="nwc"/>
<path d="M 110 230 A 39.91 39.91, 0, 0, 1, 140 230" class="nwc"/>
<path d="M 200 200 A 22.14 22.14, 0, 0, 1, 200 230" class="nwc"/>
<path d="M 170 230 A 41.24 41.24, 0, 0, 1, 200 230" class="nwc"/>
<path d="M 230 200 A 45.06 45.06, 0, 0, 0, 230 230" class="nwc"/>
<path d="M 200 230 A 33.84 33.84, 0, 0, 0, 230 230" class="nwc"/>
<path d="M 260 200 A 33.97 33.97, 0, 0, 1, 260 230" class="nwc"/>
<path d="M 230 230 A 101.79 101.79, 0, 0, 1, 260 230" class="nwc"/>
<path d="M 290 200 A 63.2 63.2, 0, 0, 0, 290 230" class="nwc"/>
<path d="M 290 230 A 65.57 65.57, 0, 0, 1, 320 230" class="nwc"/>
<path d="M 350 200 A 58.97 58.97, 0, 0, 0, 350 230" class="nwc"/>
<path d="M 380 200 A 100.97 100.97, 0, 0, 1, 380 230" class="nwc"/>
<path d="M 410 200 A 51.91 51.91, 0, 0, 0, 410 230" class="nwc"/>
<path d="M 440 200 A 25.99 25.99, 0, 0, 1, 440 230" class="nwc"/>
<path d="M 470 200 A 30.64 30.64, 0, 0, 0, 470 230" class="bwc"/>
<path d="M 20 230 A 79.38 79.38, 0, 0, 1, 20 260" class="bwc"/>
<path d="M 50 230 A 51.7 51.7, 0, 0, 1, 50 260" class="nwc"/>
<path d="M 80 230 A 64.59 64.59, 0, 0, 0, 80 260" class="nwc"/>
<path d="M 50 260 A 26.48 26.48, 0, 0, 0, 80 260" class="nwc"/>
<path d="M 110 230 A 74.55 74.55, 0, 0, 1, 110 260" class="nwc"/>
<path d="M 110 260 A 22.02 22.02, 0, 0, 0, 140 260" class="nwc"/>
<path d="M 200 230 A 73.91 73.91, 0, 0, 0, 200 260" class="nwc"/>
<path d="M 170 260 A 38.44 38.44, 0, 0, 0, 200 260" class="nwc"/>
<path d="M 200 260 A 43.63 43.63, 0, 0, 1, 230 260" class="nwc"/>
<path d="M 260 260 A 72 72, 0, 0, 1, 290 260" class="nwc"/>
<path d="M 320 230 A 70.99 70.99, 0, 0, 0, 320 260" class="nwc"/>
<path d="M 290 260 A 36.27 36.27, 0, 0, 0, 320 260" class="nwc"/>
<path d="M 380 230 A 76.91 76.91, 0, 0, 0, 380 260" class="nwc"/>
<path d="M 350 260 A 33.95 33.95, 0, 0, 0, 380 260" class="nwc"/>
<path d="M 410 230 A 82.24 82.24, 0, 0, 1, 410 260" class="nwc"/>
<path d="M 380 260 A 100.77 100.77, 0, 0, 1, 410 260" class="nwc"/>
<path d="M 410 260 A 34.46 34.46, 0, 0, 0, 440 260" class="nwc"/>
<path d="M 470 230 A 97.62 97.62, 0, 0, 1, 470 260" class="bwc"/>
<path d="M 20 260 A 35.13 35.13, 0, 0, 0, 20 290" class="bwc"/>
<path d="M 80 290 A 76.51 76.51, 0, 0, 0, 110 290" class="nwc"/>
<path d="M 140 260 A 26.39 26.39, 0, 0, 1, 140 290" class="nwc"/>
<path d="M 200 260 A 24.6 24.6, 0, 0, 1, 200 290" class="nwc"/>
<path d="M 230 260 A 60.64 60.64, 0, 0, 0, 230 290" class="nwc"/>
<path d="M 260 290 A 75.83 75.83, 0, 0, 0, 290 290" class="nwc"/>
<path d="M 350 260 A 41.08 41.08, 0, 0, 0, 350 290" class="nwc"/>
<path d="M 380 260 A 51.52 51.52, 0, 0, 1, 380 290" class="nwc"/>
<path d="M 380 290 A 28.62 28.62, 0, 0, 0, 410 290" class="nwc"/>
<path d="M 440 260 A 69.88 69.88, 0, 0, 1, 440 290" class="nwc"/>
<path d="M 470 260 A 61.3 61.3, 0, 0, 0, 470 290" class="bwc"/>
<path d="M 20 290 A 21.49 21.49, 0, 0, 1, 20 320" class="bwc"/>
<path d="M 50 290 A 70.63 70.63, 0, 0, 1, 50 320" class="nwc"/>
<path d="M 20 320 A 43.1 43.1, 0, 0, 1, 50 320" class="bwc"/>
<path d="M 80 290 A 35.9 35.9, 0, 0, 0, 80 320" class="nwc"/>
<path d="M 50 320 A 62.65 62.65, 0, 0, 0, 80 320" class="bwc"/>
<path d="M 80 320 A 101.22 101.22, 0, 0, 1, 110 320" class="bwc"/>
<path d="M 110 320 A 96 96, 0, 0, 0, 140 320" class="bwc"/>
<path d="M 170 290 A 91.53 91.53, 0, 0, 1, 170 320" class="nwc"/>
<path d="M 140 320 A 33.25 33.25, 0, 0, 1, 170 320" class="bwc"/>
<path d="M 170 320 A 47.85 47.85, 0, 0, 0, 200 320" class="bwc"/>
<path d="M 200 320 A 63.43 63.43, 0, 0, 1, 230 320" class="bwc"/>
<path d="M 260 290 A 103.81 103.81, 0, 0, 0, 260 320" class="nwc"/>
<path d="M 230 320 A 80.1 80.1, 0, 0, 0, 260 320" class="bwc"/>
<path d="M 260 320 A 37.49 37.49, 0, 0, 1, 290 320" class="bwc"/>
<path d="M 320 290 A 64.69 64.69, 0, 0, 0, 320 320" class="nwc"/>
<path d="M 290 320 A 67.62 67.62, 0, 0, 0, 320 320" class="bwc"/>
<path d="M 320 320 A 54.69 54.69, 0, 0, 1, 350 320" class="bwc"/>
<path d="M 350 320 A 70.27 70.27, 0, 0, 0, 380 320" class="bwc"/>
<path d="M 380 320 A 88.74 88.74, 0, 0, 1, 410 320" class="bwc"/>
<path d="M 410 320 A 32.37 32.37, 0, 0, 0, 440 320" class="bwc"/>
<path d="M 440 320 A 58.77 58.77, 0, 0, 1, 470 320" class="bwc"/>
<path id="eip0" d="M 20 20 A 42.31 42.31, 0, 0, 0, 20 50 A 30.61 30.61, 0, 0, 0, 50 50 A 60.84 60.84, 0, 0, 1, 50 20 A 86.69 86.69, 0, 0, 0, 20 20 " class="pac"/>
<animate id="aipeip0" xlink:href="#eip0" attributeName="fill-opacity" fill="freeze" from="0" to="0.4" dur="0.02s" />
<path id="eip2" d="M 50 20 A 60.84 60.84, 0, 0, 0, 50 50 A 77.01 77.01, 0, 0, 1, 80 50 A 57.94 57.94, 0, 0, 0, 80 20 A 51.26 51.26, 0, 0, 1, 50 20 " class="pac"/>
<animate id="aipeip2" xlink:href="#eip2" attributeName="fill-opacity" fill="freeze" from="0" to="0.4" dur="0.02s" begin="aipeip0.end"/>
<path id="eip4" d="M 50 50 A 41.96 41.96, 0, 0, 1, 50 80 A 51.21 51.21, 0, 0, 0, 80 80 A 65.87 65.87, 0, 0, 1, 80 50 A 77.01 77.01, 0, 0, 0, 50 50 " class="pac"/>
<animate id="aipeip4" xlink:href="#eip4" attributeName="fill-opacity" fill="freeze" from="0" to="0.4" dur="0.02s" begin="aipeip2.end"/>
<path id="eip6" d="M 80 50 A 65.87 65.87, 0, 0, 0, 80 80 A 35.59 35.59, 0, 0, 1, 110 80 A 50.62 50.62, 0, 0, 0, 110 50 A 101.3 101.3, 0, 0, 1, 80 50 " class="pac"/>
<animate id="aipeip6" xlink:href="#eip6" attributeName="fill-opacity" fill="freeze" from="0" to="0.4" dur="0.02s" begin="aipeip4.end"/>
<path id="eip8" d="M 110 50 A 50.62 50.62, 0, 0, 1, 110 80 A 79.91 79.91, 0, 0, 0, 140 80 A 54.74 54.74, 0, 0, 1, 140 50 A 23.64 23.64, 0, 0, 0, 110 50 " class="pac"/>
<animate id="aipeip8" xlink:href="#eip8" attributeName="fill-opacity" fill="freeze" from="0" to="0.4" dur="0.02s" begin="aipeip6.end"/>
<path id="eip10" d="M 110 80 A 61.06 61.06, 0, 0, 0, 110 110 A 51.78 51.78, 0, 0, 1, 140 110 A 54.04 54.04, 0, 0, 0, 140 80 A 79.91 79.91, 0, 0, 1, 110 80 " class="pac"/>
<animate id="aipeip10" xlink:href="#eip10" attributeName="fill-opacity" fill="freeze" from="0" to="0.4" dur="0.02s" begin="aipeip8.end"/>
<path id="eip12" d="M 110 110 A 105.72 105.72, 0, 0, 1, 110 140 A 48.2 48.2, 0, 0, 0, 140 140 A 104.72 104.72, 0, 0, 1, 140 110 A 51.78 51.78, 0, 0, 0, 110 110 " class="pac"/>
<animate id="aipeip12" xlink:href="#eip12" attributeName="fill-opacity" fill="freeze" from="0" to="0.4" dur="0.02s" begin="aipeip10.end"/>
<path id="eip14" d="M 140 110 A 104.72 104.72, 0, 0, 0, 140 140 A 76.48 76.48, 0, 0, 1, 170 140 A 93.73 93.73, 0, 0, 0, 170 110 A 52.62 52.62, 0, 0, 1, 140 110 " class="pac"/>
<animate id="aipeip14" xlink:href="#eip14" attributeName="fill-opacity" fill="freeze" from="0" to="0.4" dur="0.02s" begin="aipeip12.end"/>
<path id="eip16" d="M 140 140 A 41.39 41.39, 0, 0, 1, 140 170 A 23.79 23.79, 0, 0, 0, 170 170 A 69.42 69.42, 0, 0, 1, 170 140 A 76.48 76.48, 0, 0, 0, 140 140 " class="pac"/>
<animate id="aipeip16" xlink:href="#eip16" attributeName="fill-opacity" fill="freeze" from="0" to="0.4" dur="0.02s" begin="aipeip14.end"/>
<path id="eip18" d="M 170 140 A 69.42 69.42, 0, 0, 0, 170 170 A 41.73 41.73, 0, 0, 1, 200 170 A 40.02 40.02, 0, 0, 0, 200 140 A 80.55 80.55, 0, 0, 1, 170 140 " class="pac"/>
<animate id="aipeip18" xlink:href="#eip18" attributeName="fill-opacity" fill="freeze" from="0" to="0.4" dur="0.02s" begin="aipeip16.end"/>
<path id="eip20" d="M 170 110 A 93.73 93.73, 0, 0, 1, 170 140 A 80.55 80.55, 0, 0, 0, 200 140 A 101.12 101.12, 0, 0, 1, 200 110 A 73.69 73.69, 0, 0, 0, 170 110 " class="pac"/>
<animate id="aipeip20" xlink:href="#eip20" attributeName="fill-opacity" fill="freeze" from="0" to="0.4" dur="0.02s" begin="aipeip18.end"/>
<path id="eip22" d="M 170 80 A 21.86 21.86, 0, 0, 0, 170 110 A 73.69 73.69, 0, 0, 1, 200 110 A 92.2 92.2, 0, 0, 0, 200 80 A 28.43 28.43, 0, 0, 1, 170 80 " class="pac"/>
<animate id="aipeip22" xlink:href="#eip22" attributeName="fill-opacity" fill="freeze" from="0" to="0.4" dur="0.02s" begin="aipeip20.end"/>
<path id="eip24" d="M 200 80 A 92.2 92.2, 0, 0, 1, 200 110 A 93.89 93.89, 0, 0, 0, 230 110 A 86.86 86.86, 0, 0, 1, 230 80 A 62.63 62.63, 0, 0, 0, 200 80 " class="pac"/>
<animate id="aipeip24" xlink:href="#eip24" attributeName="fill-opacity" fill="freeze" from="0" to="0.4" dur="0.02s" begin="aipeip22.end"/>
<path id="eip26" d="M 200 110 A 101.12 101.12, 0, 0, 0, 200 140 A 67.13 67.13, 0, 0, 1, 230 140 A 79.59 79.59, 0, 0, 0, 230 110 A 93.89 93.89, 0, 0, 1, 200 110 " class="pac"/>
<animate id="aipeip26" xlink:href="#eip26" attributeName="fill-opacity" fill="freeze" from="0" to="0.4" dur="0.02s" begin="aipeip24.end"/>
<path id="eip28" d="M 230 110 A 79.59 79.59, 0, 0, 1, 230 140 A 34.9 34.9, 0, 0, 0, 260 140 A 22.86 22.86, 0, 0, 1, 260 110 A 28.75 28.75, 0, 0, 0, 230 110 " class="pac"/>
<animate id="aipeip28" xlink:href="#eip28" attributeName="fill-opacity" fill="freeze" from="0" to="0.4" dur="0.02s" begin="aipeip26.end"/>
<path id="eip30" d="M 260 110 A 22.86 22.86, 0, 0, 0, 260 140 A 23.12 23.12, 0, 0, 1, 290 140 A 32.36 32.36, 0, 0, 0, 290 110 A 96.41 96.41, 0, 0, 1, 260 110 " class="pac"/>
<animate id="aipeip30" xlink:href="#eip30" attributeName="fill-opacity" fill="freeze" from="0" to="0.4" dur="0.02s" begin="aipeip28.end"/>
<path id="eip32" d="M 260 80 A 23.45 23.45, 0, 0, 1, 260 110 A 96.41 96.41, 0, 0, 0, 290 110 A 40.39 40.39, 0, 0, 1, 290 80 A 39.44 39.44, 0, 0, 0, 260 80 " class="pac"/>
<animate id="aipeip32" xlink:href="#eip32" attributeName="fill-opacity" fill="freeze" from="0" to="0.4" dur="0.02s" begin="aipeip30.end"/>
<path id="eip34" d="M 290 80 A 40.39 40.39, 0, 0, 0, 290 110 A 95.29 95.29, 0, 0, 1, 320 110 A 61.63 61.63, 0, 0, 0, 320 80 A 47.68 47.68, 0, 0, 1, 290 80 " class="pac"/>
<animate id="aipeip34" xlink:href="#eip34" attributeName="fill-opacity" fill="freeze" from="0" to="0.4" dur="0.02s" begin="aipeip32.end"/>
<path id="eip36" d="M 290 50 A 28.52 28.52, 0, 0, 1, 290 80 A 47.68 47.68, 0, 0, 0, 320 80 A 67.77 67.77, 0, 0, 1, 320 50 A 91.05 91.05, 0, 0, 0, 290 50 " class="pac"/>
<animate id="aipeip36" xlink:href="#eip36" attributeName="fill-opacity" fill="freeze" from="0" to="0.4" dur="0.02s" begin="aipeip34.end"/>
<path id="eip38" d="M 320 50 A 67.77 67.77, 0, 0, 0, 320 80 A 47.22 47.22, 0, 0, 1, 350 80 A 105.89 105.89, 0, 0, 0, 350 50 A 82.03 82.03, 0, 0, 1, 320 50 " class="pac"/>
<animate id="aipeip38" xlink:href="#eip38" attributeName="fill-opacity" fill="freeze" from="0" to="0.4" dur="0.02s" begin="aipeip36.end"/>
<path id="eip40" d="M 350 50 A 105.89 105.89, 0, 0, 1, 350 80 A 95.53 95.53, 0, 0, 0, 380 80 A 88.77 88.77, 0, 0, 1, 380 50 A 105.38 105.38, 0, 0, 0, 350 50 " class="pac"/>
<animate id="aipeip40" xlink:href="#eip40" attributeName="fill-opacity" fill="freeze" from="0" to="0.4" dur="0.02s" begin="aipeip38.end"/>
<path id="eip42" d="M 380 50 A 88.77 88.77, 0, 0, 0, 380 80 A 39.9 39.9, 0, 0, 1, 410 80 A 29.78 29.78, 0, 0, 0, 410 50 A 26.52 26.52, 0, 0, 1, 380 50 " class="pac"/>
<animate id="aipeip42" xlink:href="#eip42" attributeName="fill-opacity" fill="freeze" from="0" to="0.4" dur="0.02s" begin="aipeip40.end"/>
<path id="eip44" d="M 410 50 A 29.78 29.78, 0, 0, 1, 410 80 A 36.4 36.4, 0, 0, 0, 440 80 A 57.61 57.61, 0, 0, 1, 440 50 A 44.36 44.36, 0, 0, 0, 410 50 " class="pac"/>
<animate id="aipeip44" xlink:href="#eip44" attributeName="fill-opacity" fill="freeze" from="0" to="0.4" dur="0.02s" begin="aipeip42.end"/>
<path id="eip46" d="M 410 80 A 52.5 52.5, 0, 0, 0, 410 110 A 68.51 68.51, 0, 0, 1, 440 110 A 47.18 47.18, 0, 0, 0, 440 80 A 36.4 36.4, 0, 0, 1, 410 80 " class="pac"/>
<animate id="aipeip46" xlink:href="#eip46" attributeName="fill-opacity" fill="freeze" from="0" to="0.4" dur="0.02s" begin="aipeip44.end"/>
<path id="eip48" d="M 380 80 A 52.68 52.68, 0, 0, 1, 380 110 A 61.52 61.52, 0, 0, 0, 410 110 A 52.5 52.5, 0, 0, 1, 410 80 A 39.9 39.9, 0, 0, 0, 380 80 " class="pac"/>
<animate id="aipeip48" xlink:href="#eip48" attributeName="fill-opacity" fill="freeze" from="0" to="0.4" dur="0.02s" begin="aipeip46.end"/>
<path id="eip50" d="M 380 110 A 61.42 61.42, 0, 0, 0, 380 140 A 91.23 91.23, 0, 0, 1, 410 140 A 105.72 105.72, 0, 0, 0, 410 110 A 61.52 61.52, 0, 0, 1, 380 110 " class="pac"/>
<animate id="aipeip50" xlink:href="#eip50" attributeName="fill-opacity" fill="freeze" from="0" to="0.4" dur="0.02s" begin="aipeip48.end"/>
<path id="eip52" d="M 380 140 A 26.28 26.28, 0, 0, 1, 380 170 A 51.43 51.43, 0, 0, 0, 410 170 A 91.39 91.39, 0, 0, 1, 410 140 A 91.23 91.23, 0, 0, 0, 380 140 " class="pac"/>
<animate id="aipeip52" xlink:href="#eip52" attributeName="fill-opacity" fill="freeze" from="0" to="0.4" dur="0.02s" begin="aipeip50.end"/>
<path id="eip54" d="M 380 170 A 95.84 95.84, 0, 0, 0, 380 200 A 48.75 48.75, 0, 0, 1, 410 200 A 49.02 49.02, 0, 0, 0, 410 170 A 51.43 51.43, 0, 0, 1, 380 170 " class="pac"/>
<animate id="aipeip54" xlink:href="#eip54" attributeName="fill-opacity" fill="freeze" from="0" to="0.4" dur="0.02s" begin="aipeip52.end"/>
<path id="eip56" d="M 350 170 A 50.46 50.46, 0, 0, 1, 350 200 A 53.23 53.23, 0, 0, 0, 380 200 A 95.84 95.84, 0, 0, 1, 380 170 A 95.45 95.45, 0, 0, 0, 350 170 " class="pac"/>
<animate id="aipeip56" xlink:href="#eip56" attributeName="fill-opacity" fill="freeze" from="0" to="0.4" dur="0.02s" begin="aipeip54.end"/>
<path id="eip58" d="M 320 170 A 58.41 58.41, 0, 0, 0, 320 200 A 66.37 66.37, 0, 0, 1, 350 200 A 50.46 50.46, 0, 0, 0, 350 170 A 36.03 36.03, 0, 0, 1, 320 170 " class="pac"/>
<animate id="aipeip58" xlink:href="#eip58" attributeName="fill-opacity" fill="freeze" from="0" to="0.4" dur="0.02s" begin="aipeip56.end"/>
<path id="eip60" d="M 290 170 A 75.9 75.9, 0, 0, 1, 290 200 A 56.03 56.03, 0, 0, 0, 320 200 A 58.41 58.41, 0, 0, 1, 320 170 A 50.86 50.86, 0, 0, 0, 290 170 " class="pac"/>
<animate id="aipeip60" xlink:href="#eip60" attributeName="fill-opacity" fill="freeze" from="0" to="0.4" dur="0.02s" begin="aipeip58.end"/>
<path id="eip62" d="M 290 200 A 63.2 63.2, 0, 0, 0, 290 230 A 65.57 65.57, 0, 0, 1, 320 230 A 91.56 91.56, 0, 0, 0, 320 200 A 56.03 56.03, 0, 0, 1, 290 200 " class="pac"/>
<animate id="aipeip62" xlink:href="#eip62" attributeName="fill-opacity" fill="freeze" from="0" to="0.4" dur="0.02s" begin="aipeip60.end"/>
<path id="eip64" d="M 320 200 A 91.56 91.56, 0, 0, 1, 320 230 A 77.87 77.87, 0, 0, 0, 350 230 A 58.97 58.97, 0, 0, 1, 350 200 A 66.37 66.37, 0, 0, 0, 320 200 " class="pac"/>
<animate id="aipeip64" xlink:href="#eip64" attributeName="fill-opacity" fill="freeze" from="0" to="0.4" dur="0.02s" begin="aipeip62.end"/>
<path id="eip66" d="M 320 230 A 70.99 70.99, 0, 0, 0, 320 260 A 49.08 49.08, 0, 0, 1, 350 260 A 83.48 83.48, 0, 0, 0, 350 230 A 77.87 77.87, 0, 0, 1, 320 230 " class="pac"/>
<animate id="aipeip66" xlink:href="#eip66" attributeName="fill-opacity" fill="freeze" from="0" to="0.4" dur="0.02s" begin="aipeip64.end"/>
<path id="eip68" d="M 320 260 A 48.56 48.56, 0, 0, 1, 320 290 A 79.03 79.03, 0, 0, 0, 350 290 A 41.08 41.08, 0, 0, 1, 350 260 A 49.08 49.08, 0, 0, 0, 320 260 " class="pac"/>
<animate id="aipeip68" xlink:href="#eip68" attributeName="fill-opacity" fill="freeze" from="0" to="0.4" dur="0.02s" begin="aipeip66.end"/>
<path id="eip70" d="M 320 290 A 64.69 64.69, 0, 0, 0, 320 320 A 54.69 54.69, 0, 0, 1, 350 320 A 105.01 105.01, 0, 0, 0, 350 290 A 79.03 79.03, 0, 0, 1, 320 290 " class="pac"/>
<animate id="aipeip70" xlink:href="#eip70" attributeName="fill-opacity" fill="freeze" from="0" to="0.4" dur="0.02s" begin="aipeip68.end"/>
<path id="eip72" d="M 350 290 A 105.01 105.01, 0, 0, 1, 350 320 A 70.27 70.27, 0, 0, 0, 380 320 A 62.16 62.16, 0, 0, 1, 380 290 A 65.72 65.72, 0, 0, 0, 350 290 " class="pac"/>
<animate id="aipeip72" xlink:href="#eip72" attributeName="fill-opacity" fill="freeze" from="0" to="0.4" dur="0.02s" begin="aipeip70.end"/>
<path id="eip74" d="M 380 290 A 62.16 62.16, 0, 0, 0, 380 320 A 88.74 88.74, 0, 0, 1, 410 320 A 34.25 34.25, 0, 0, 0, 410 290 A 28.62 28.62, 0, 0, 1, 380 290 " class="pac"/>
<animate id="aipeip74" xlink:href="#eip74" attributeName="fill-opacity" fill="freeze" from="0" to="0.4" dur="0.02s" begin="aipeip72.end"/>
<path id="eip76" d="M 410 290 A 34.25 34.25, 0, 0, 1, 410 320 A 32.37 32.37, 0, 0, 0, 440 320 A 49.01 49.01, 0, 0, 1, 440 290 A 55.63 55.63, 0, 0, 0, 410 290 " class="pac"/>
<animate id="aipeip76" xlink:href="#eip76" attributeName="fill-opacity" fill="freeze" from="0" to="0.4" dur="0.02s" begin="aipeip74.end"/>
<path id="eip78" d="M 440 290 A 49.01 49.01, 0, 0, 0, 440 320 A 58.77 58.77, 0, 0, 1, 470 320 A 79.01 79.01, 0, 0, 0, 470 290 A 35.59 35.59, 0, 0, 1, 440 290 " class="pac"/>
<animate id="aipeip78" xlink:href="#eip78" attributeName="fill-opacity" fill="freeze" from="0" to="0.4" dur="0.02s" begin="aipeip76.end"/>
<text x="25" y="35" style="font: bold 10px sans-serif;">start</text><text x="445" y="305" style="font: bold 10px sans-serif;">exit</text></svg>