<?xml version="1.0" standalone="no"?>
<!-- Copyright 2020 Patrizio Amella. All rights reserved. See License at https://github.com/aPixelInSpace/F-a-maze-ing/blob/main/LICENSE for more information. -->
<svg width="1090" height="310" version="1.1" xmlns="http://www.w3.org/2000/svg" xmlns:xlink="http://www.w3.org/1999/xlink"><defs>
                <style>
                    .n {
                        stroke: #333;
                        fill:transparent;
                        stroke-width: 1;
                        stroke-linecap: round;
                        stroke-linejoin: round;
                        //stroke-dasharray: 5;
                    }
                    .b {
                        stroke: #333;
                        fill:transparent;
                        stroke-width: 2;
                        stroke-linecap:round;
                        stroke-linejoin: round;
                        //stroke-dasharray: 5;
                    }
                    .p {
                        stroke: transparent;
                        stroke-width: 0;
                        fill: purple;
                        fill-opacity: 0.4;
                    }
                    .pa {
                        stroke: transparent;
                        stroke-width: 0;
                        fill: purple;
                        fill-opacity: 0.0;
                    }
                    .l {
                        stroke: transparent;
                        stroke-width: 0;
                        fill: #70361f;
                        fill-opacity: 0.2;
                    }
                    .c {
                        stroke: transparent;
                        stroke-width: 0;
                        fill: #4287f5;
                    }
                </style>
            </defs><rect width="100%" height="100%" fill="transparent"/><path d="M 500 20 h 30 v 30 h -30 v -30" class="c" fill-opacity="0"/>
<path d="M 500 50 h 30 v 30 h -30 v -30" class="c" fill-opacity="0"/>
<path d="M 470 50 h 30 v 30 h -30 v -30" class="c" fill-opacity="0.02"/>
<path d="M 530 50 h 30 v 30 h -30 v -30" class="c" fill-opacity="0.02"/>
<path d="M 530 20 h 30 v 30 h -30 v -30" class="c" fill-opacity="0.04"/>
<path d="M 530 80 h 30 v 30 h -30 v -30" class="c" fill-opacity="0.04"/>
<path d="M 560 20 h 30 v 30 h -30 v -30" class="c" fill-opacity="0.06"/>
<path d="M 500 80 h 30 v 30 h -30 v -30" class="c" fill-opacity="0.06"/>
<path d="M 530 110 h 30 v 30 h -30 v -30" class="c" fill-opacity="0.06"/>
<path d="M 470 80 h 30 v 30 h -30 v -30" class="c" fill-opacity="0.08"/>
<path d="M 500 110 h 30 v 30 h -30 v -30" class="c" fill-opacity="0.08"/>
<path d="M 440 80 h 30 v 30 h -30 v -30" class="c" fill-opacity="0.1"/>
<path d="M 470 110 h 30 v 30 h -30 v -30" class="c" fill-opacity="0.1"/>
<path d="M 440 50 h 30 v 30 h -30 v -30" class="c" fill-opacity="0.12"/>
<path d="M 440 110 h 30 v 30 h -30 v -30" class="c" fill-opacity="0.12"/>
<path d="M 440 140 h 30 v 30 h -30 v -30" class="c" fill-opacity="0.14"/>
<path d="M 410 140 h 30 v 30 h -30 v -30" class="c" fill-opacity="0.16"/>
<path d="M 470 140 h 30 v 30 h -30 v -30" class="c" fill-opacity="0.16"/>
<path d="M 440 170 h 30 v 30 h -30 v -30" class="c" fill-opacity="0.16"/>
<path d="M 380 140 h 30 v 30 h -30 v -30" class="c" fill-opacity="0.18"/>
<path d="M 410 110 h 30 v 30 h -30 v -30" class="c" fill-opacity="0.18"/>
<path d="M 500 140 h 30 v 30 h -30 v -30" class="c" fill-opacity="0.18"/>
<path d="M 410 170 h 30 v 30 h -30 v -30" class="c" fill-opacity="0.18"/>
<path d="M 470 170 h 30 v 30 h -30 v -30" class="c" fill-opacity="0.18"/>
<path d="M 440 200 h 30 v 30 h -30 v -30" class="c" fill-opacity="0.18"/>
<path d="M 350 140 h 30 v 30 h -30 v -30" class="c" fill-opacity="0.2"/>
<path d="M 380 110 h 30 v 30 h -30 v -30" class="c" fill-opacity="0.2"/>
<path d="M 530 140 h 30 v 30 h -30 v -30" class="c" fill-opacity="0.2"/>
<path d="M 380 170 h 30 v 30 h -30 v -30" class="c" fill-opacity="0.2"/>
<path d="M 500 170 h 30 v 30 h -30 v -30" class="c" fill-opacity="0.2"/>
<path d="M 470 200 h 30 v 30 h -30 v -30" class="c" fill-opacity="0.2"/>
<path d="M 350 110 h 30 v 30 h -30 v -30" class="c" fill-opacity="0.22"/>
<path d="M 350 170 h 30 v 30 h -30 v -30" class="c" fill-opacity="0.22"/>
<path d="M 380 80 h 30 v 30 h -30 v -30" class="c" fill-opacity="0.22"/>
<path d="M 380 200 h 30 v 30 h -30 v -30" class="c" fill-opacity="0.22"/>
<path d="M 530 170 h 30 v 30 h -30 v -30" class="c" fill-opacity="0.22"/>
<path d="M 500 200 h 30 v 30 h -30 v -30" class="c" fill-opacity="0.22"/>
<path d="M 320 170 h 30 v 30 h -30 v -30" class="c" fill-opacity="0.24"/>
<path d="M 410 80 h 30 v 30 h -30 v -30" class="c" fill-opacity="0.24"/>
<path d="M 350 200 h 30 v 30 h -30 v -30" class="c" fill-opacity="0.24"/>
<path d="M 410 200 h 30 v 30 h -30 v -30" class="c" fill-opacity="0.24"/>
<path d="M 560 170 h 30 v 30 h -30 v -30" class="c" fill-opacity="0.24"/>
<path d="M 500 230 h 30 v 30 h -30 v -30" class="c" fill-opacity="0.24"/>
<path d="M 290 170 h 30 v 30 h -30 v -30" class="c" fill-opacity="0.25"/>
<path d="M 320 140 h 30 v 30 h -30 v -30" class="c" fill-opacity="0.25"/>
<path d="M 320 200 h 30 v 30 h -30 v -30" class="c" fill-opacity="0.25"/>
<path d="M 350 230 h 30 v 30 h -30 v -30" class="c" fill-opacity="0.25"/>
<path d="M 590 170 h 30 v 30 h -30 v -30" class="c" fill-opacity="0.25"/>
<path d="M 530 230 h 30 v 30 h -30 v -30" class="c" fill-opacity="0.25"/>
<path d="M 500 260 h 30 v 30 h -30 v -30" class="c" fill-opacity="0.25"/>
<path d="M 260 170 h 30 v 30 h -30 v -30" class="c" fill-opacity="0.27"/>
<path d="M 290 140 h 30 v 30 h -30 v -30" class="c" fill-opacity="0.27"/>
<path d="M 320 110 h 30 v 30 h -30 v -30" class="c" fill-opacity="0.27"/>
<path d="M 320 230 h 30 v 30 h -30 v -30" class="c" fill-opacity="0.27"/>
<path d="M 380 230 h 30 v 30 h -30 v -30" class="c" fill-opacity="0.27"/>
<path d="M 590 140 h 30 v 30 h -30 v -30" class="c" fill-opacity="0.27"/>
<path d="M 530 200 h 30 v 30 h -30 v -30" class="c" fill-opacity="0.27"/>
<path d="M 470 260 h 30 v 30 h -30 v -30" class="c" fill-opacity="0.27"/>
<path d="M 230 170 h 30 v 30 h -30 v -30" class="c" fill-opacity="0.29"/>
<path d="M 260 140 h 30 v 30 h -30 v -30" class="c" fill-opacity="0.29"/>
<path d="M 290 230 h 30 v 30 h -30 v -30" class="c" fill-opacity="0.29"/>
<path d="M 320 260 h 30 v 30 h -30 v -30" class="c" fill-opacity="0.29"/>
<path d="M 410 230 h 30 v 30 h -30 v -30" class="c" fill-opacity="0.29"/>
<path d="M 380 260 h 30 v 30 h -30 v -30" class="c" fill-opacity="0.29"/>
<path d="M 560 140 h 30 v 30 h -30 v -30" class="c" fill-opacity="0.29"/>
<path d="M 440 260 h 30 v 30 h -30 v -30" class="c" fill-opacity="0.29"/>
<path d="M 470 230 h 30 v 30 h -30 v -30" class="c" fill-opacity="0.29"/>
<path d="M 200 170 h 30 v 30 h -30 v -30" class="c" fill-opacity="0.31"/>
<path d="M 260 230 h 30 v 30 h -30 v -30" class="c" fill-opacity="0.31"/>
<path d="M 290 260 h 30 v 30 h -30 v -30" class="c" fill-opacity="0.31"/>
<path d="M 350 260 h 30 v 30 h -30 v -30" class="c" fill-opacity="0.31"/>
<path d="M 410 260 h 30 v 30 h -30 v -30" class="c" fill-opacity="0.31"/>
<path d="M 560 110 h 30 v 30 h -30 v -30" class="c" fill-opacity="0.31"/>
<path d="M 440 230 h 30 v 30 h -30 v -30" class="c" fill-opacity="0.31"/>
<path d="M 260 200 h 30 v 30 h -30 v -30" class="c" fill-opacity="0.33"/>
<path d="M 560 80 h 30 v 30 h -30 v -30" class="c" fill-opacity="0.33"/>
<path d="M 590 110 h 30 v 30 h -30 v -30" class="c" fill-opacity="0.33"/>
<path d="M 230 200 h 30 v 30 h -30 v -30" class="c" fill-opacity="0.35"/>
<path d="M 290 200 h 30 v 30 h -30 v -30" class="c" fill-opacity="0.35"/>
<path d="M 590 80 h 30 v 30 h -30 v -30" class="c" fill-opacity="0.35"/>
<path d="M 200 200 h 30 v 30 h -30 v -30" class="c" fill-opacity="0.37"/>
<path d="M 590 50 h 30 v 30 h -30 v -30" class="c" fill-opacity="0.37"/>
<path d="M 620 80 h 30 v 30 h -30 v -30" class="c" fill-opacity="0.37"/>
<path d="M 200 230 h 30 v 30 h -30 v -30" class="c" fill-opacity="0.39"/>
<path d="M 560 50 h 30 v 30 h -30 v -30" class="c" fill-opacity="0.39"/>
<path d="M 620 50 h 30 v 30 h -30 v -30" class="c" fill-opacity="0.39"/>
<path d="M 620 110 h 30 v 30 h -30 v -30" class="c" fill-opacity="0.39"/>
<path d="M 200 260 h 30 v 30 h -30 v -30" class="c" fill-opacity="0.41"/>
<path d="M 650 110 h 30 v 30 h -30 v -30" class="c" fill-opacity="0.41"/>
<path d="M 620 140 h 30 v 30 h -30 v -30" class="c" fill-opacity="0.41"/>
<path d="M 170 260 h 30 v 30 h -30 v -30" class="c" fill-opacity="0.43"/>
<path d="M 230 260 h 30 v 30 h -30 v -30" class="c" fill-opacity="0.43"/>
<path d="M 650 80 h 30 v 30 h -30 v -30" class="c" fill-opacity="0.43"/>
<path d="M 680 110 h 30 v 30 h -30 v -30" class="c" fill-opacity="0.43"/>
<path d="M 140 260 h 30 v 30 h -30 v -30" class="c" fill-opacity="0.45"/>
<path d="M 170 230 h 30 v 30 h -30 v -30" class="c" fill-opacity="0.45"/>
<path d="M 230 230 h 30 v 30 h -30 v -30" class="c" fill-opacity="0.45"/>
<path d="M 260 260 h 30 v 30 h -30 v -30" class="c" fill-opacity="0.45"/>
<path d="M 680 80 h 30 v 30 h -30 v -30" class="c" fill-opacity="0.45"/>
<path d="M 710 110 h 30 v 30 h -30 v -30" class="c" fill-opacity="0.45"/>
<path d="M 680 140 h 30 v 30 h -30 v -30" class="c" fill-opacity="0.45"/>
<path d="M 110 260 h 30 v 30 h -30 v -30" class="c" fill-opacity="0.47"/>
<path d="M 140 230 h 30 v 30 h -30 v -30" class="c" fill-opacity="0.47"/>
<path d="M 170 200 h 30 v 30 h -30 v -30" class="c" fill-opacity="0.47"/>
<path d="M 710 140 h 30 v 30 h -30 v -30" class="c" fill-opacity="0.47"/>
<path d="M 680 170 h 30 v 30 h -30 v -30" class="c" fill-opacity="0.47"/>
<path d="M 110 230 h 30 v 30 h -30 v -30" class="c" fill-opacity="0.49"/>
<path d="M 140 200 h 30 v 30 h -30 v -30" class="c" fill-opacity="0.49"/>
<path d="M 680 200 h 30 v 30 h -30 v -30" class="c" fill-opacity="0.49"/>
<path d="M 80 230 h 30 v 30 h -30 v -30" class="c" fill-opacity="0.51"/>
<path d="M 650 200 h 30 v 30 h -30 v -30" class="c" fill-opacity="0.51"/>
<path d="M 80 260 h 30 v 30 h -30 v -30" class="c" fill-opacity="0.53"/>
<path d="M 620 200 h 30 v 30 h -30 v -30" class="c" fill-opacity="0.53"/>
<path d="M 650 170 h 30 v 30 h -30 v -30" class="c" fill-opacity="0.53"/>
<path d="M 50 260 h 30 v 30 h -30 v -30" class="c" fill-opacity="0.55"/>
<path d="M 620 170 h 30 v 30 h -30 v -30" class="c" fill-opacity="0.55"/>
<path d="M 620 230 h 30 v 30 h -30 v -30" class="c" fill-opacity="0.55"/>
<path d="M 650 140 h 30 v 30 h -30 v -30" class="c" fill-opacity="0.55"/>
<path d="M 20 260 h 30 v 30 h -30 v -30" class="c" fill-opacity="0.57"/>
<path d="M 650 230 h 30 v 30 h -30 v -30" class="c" fill-opacity="0.57"/>
<path d="M 620 260 h 30 v 30 h -30 v -30" class="c" fill-opacity="0.57"/>
<path d="M 650 260 h 30 v 30 h -30 v -30" class="c" fill-opacity="0.59"/>
<path d="M 590 260 h 30 v 30 h -30 v -30" class="c" fill-opacity="0.59"/>
<path d="M 680 260 h 30 v 30 h -30 v -30" class="c" fill-opacity="0.61"/>
<path d="M 590 230 h 30 v 30 h -30 v -30" class="c" fill-opacity="0.61"/>
<path d="M 680 230 h 30 v 30 h -30 v -30" class="c" fill-opacity="0.63"/>
<path d="M 710 260 h 30 v 30 h -30 v -30" class="c" fill-opacity="0.63"/>
<path d="M 590 200 h 30 v 30 h -30 v -30" class="c" fill-opacity="0.63"/>
<path d="M 710 230 h 30 v 30 h -30 v -30" class="c" fill-opacity="0.65"/>
<path d="M 740 260 h 30 v 30 h -30 v -30" class="c" fill-opacity="0.65"/>
<path d="M 560 200 h 30 v 30 h -30 v -30" class="c" fill-opacity="0.65"/>
<path d="M 710 200 h 30 v 30 h -30 v -30" class="c" fill-opacity="0.67"/>
<path d="M 740 230 h 30 v 30 h -30 v -30" class="c" fill-opacity="0.67"/>
<path d="M 560 230 h 30 v 30 h -30 v -30" class="c" fill-opacity="0.67"/>
<path d="M 710 170 h 30 v 30 h -30 v -30" class="c" fill-opacity="0.69"/>
<path d="M 740 200 h 30 v 30 h -30 v -30" class="c" fill-opacity="0.69"/>
<path d="M 560 260 h 30 v 30 h -30 v -30" class="c" fill-opacity="0.69"/>
<path d="M 740 170 h 30 v 30 h -30 v -30" class="c" fill-opacity="0.71"/>
<path d="M 770 200 h 30 v 30 h -30 v -30" class="c" fill-opacity="0.71"/>
<path d="M 530 260 h 30 v 30 h -30 v -30" class="c" fill-opacity="0.71"/>
<path d="M 740 140 h 30 v 30 h -30 v -30" class="c" fill-opacity="0.73"/>
<path d="M 770 170 h 30 v 30 h -30 v -30" class="c" fill-opacity="0.73"/>
<path d="M 770 230 h 30 v 30 h -30 v -30" class="c" fill-opacity="0.73"/>
<path d="M 740 110 h 30 v 30 h -30 v -30" class="c" fill-opacity="0.75"/>
<path d="M 770 140 h 30 v 30 h -30 v -30" class="c" fill-opacity="0.75"/>
<path d="M 800 170 h 30 v 30 h -30 v -30" class="c" fill-opacity="0.75"/>
<path d="M 770 260 h 30 v 30 h -30 v -30" class="c" fill-opacity="0.75"/>
<path d="M 800 140 h 30 v 30 h -30 v -30" class="c" fill-opacity="0.76"/>
<path d="M 800 260 h 30 v 30 h -30 v -30" class="c" fill-opacity="0.76"/>
<path d="M 800 230 h 30 v 30 h -30 v -30" class="c" fill-opacity="0.78"/>
<path d="M 830 260 h 30 v 30 h -30 v -30" class="c" fill-opacity="0.78"/>
<path d="M 800 200 h 30 v 30 h -30 v -30" class="c" fill-opacity="0.8"/>
<path d="M 830 230 h 30 v 30 h -30 v -30" class="c" fill-opacity="0.8"/>
<path d="M 830 200 h 30 v 30 h -30 v -30" class="c" fill-opacity="0.82"/>
<path d="M 830 170 h 30 v 30 h -30 v -30" class="c" fill-opacity="0.84"/>
<path d="M 860 200 h 30 v 30 h -30 v -30" class="c" fill-opacity="0.84"/>
<path d="M 860 170 h 30 v 30 h -30 v -30" class="c" fill-opacity="0.86"/>
<path d="M 890 200 h 30 v 30 h -30 v -30" class="c" fill-opacity="0.86"/>
<path d="M 860 230 h 30 v 30 h -30 v -30" class="c" fill-opacity="0.86"/>
<path d="M 920 200 h 30 v 30 h -30 v -30" class="c" fill-opacity="0.88"/>
<path d="M 890 230 h 30 v 30 h -30 v -30" class="c" fill-opacity="0.88"/>
<path d="M 860 260 h 30 v 30 h -30 v -30" class="c" fill-opacity="0.88"/>
<path d="M 890 260 h 30 v 30 h -30 v -30" class="c" fill-opacity="0.9"/>
<path d="M 920 260 h 30 v 30 h -30 v -30" class="c" fill-opacity="0.92"/>
<path d="M 950 260 h 30 v 30 h -30 v -30" class="c" fill-opacity="0.94"/>
<path d="M 950 230 h 30 v 30 h -30 v -30" class="c" fill-opacity="0.96"/>
<path d="M 980 260 h 30 v 30 h -30 v -30" class="c" fill-opacity="0.96"/>
<path d="M 920 230 h 30 v 30 h -30 v -30" class="c" fill-opacity="0.98"/>
<path d="M 980 230 h 30 v 30 h -30 v -30" class="c" fill-opacity="0.98"/>
<path d="M 1010 260 h 30 v 30 h -30 v -30" class="c" fill-opacity="0.98"/>
<path d="M 1040 260 h 30 v 30 h -30 v -30" class="c" fill-opacity="1"/>
<path id="p0" d="M 500 20 h 30 v 30 h -30 v -30" class="pa"/>
<animate id="ap0" xlink:href="#p0" attributeName="fill-opacity" fill="freeze" from="0" to="0.4" dur="0.02s" />
<path id="p1" d="M 500 50 h 30 v 30 h -30 v -30" class="pa"/>
<animate id="ap1" xlink:href="#p1" attributeName="fill-opacity" fill="freeze" from="0" to="0.4" dur="0.02s" begin="ap0.end"/>
<path id="p2" d="M 530 50 h 30 v 30 h -30 v -30" class="pa"/>
<animate id="ap2" xlink:href="#p2" attributeName="fill-opacity" fill="freeze" from="0" to="0.4" dur="0.02s" begin="ap1.end"/>
<path id="p3" d="M 530 80 h 30 v 30 h -30 v -30" class="pa"/>
<animate id="ap3" xlink:href="#p3" attributeName="fill-opacity" fill="freeze" from="0" to="0.4" dur="0.02s" begin="ap2.end"/>
<path id="p4" d="M 500 80 h 30 v 30 h -30 v -30" class="pa"/>
<animate id="ap4" xlink:href="#p4" attributeName="fill-opacity" fill="freeze" from="0" to="0.4" dur="0.02s" begin="ap3.end"/>
<path id="p5" d="M 470 80 h 30 v 30 h -30 v -30" class="pa"/>
<animate id="ap5" xlink:href="#p5" attributeName="fill-opacity" fill="freeze" from="0" to="0.4" dur="0.02s" begin="ap4.end"/>
<path id="p6" d="M 440 80 h 30 v 30 h -30 v -30" class="pa"/>
<animate id="ap6" xlink:href="#p6" attributeName="fill-opacity" fill="freeze" from="0" to="0.4" dur="0.02s" begin="ap5.end"/>
<path id="p7" d="M 440 110 h 30 v 30 h -30 v -30" class="pa"/>
<animate id="ap7" xlink:href="#p7" attributeName="fill-opacity" fill="freeze" from="0" to="0.4" dur="0.02s" begin="ap6.end"/>
<path id="p8" d="M 440 140 h 30 v 30 h -30 v -30" class="pa"/>
<animate id="ap8" xlink:href="#p8" attributeName="fill-opacity" fill="freeze" from="0" to="0.4" dur="0.02s" begin="ap7.end"/>
<path id="p9" d="M 440 170 h 30 v 30 h -30 v -30" class="pa"/>
<animate id="ap9" xlink:href="#p9" attributeName="fill-opacity" fill="freeze" from="0" to="0.4" dur="0.02s" begin="ap8.end"/>
<path id="p10" d="M 470 170 h 30 v 30 h -30 v -30" class="pa"/>
<animate id="ap10" xlink:href="#p10" attributeName="fill-opacity" fill="freeze" from="0" to="0.4" dur="0.02s" begin="ap9.end"/>
<path id="p11" d="M 500 170 h 30 v 30 h -30 v -30" class="pa"/>
<animate id="ap11" xlink:href="#p11" attributeName="fill-opacity" fill="freeze" from="0" to="0.4" dur="0.02s" begin="ap10.end"/>
<path id="p12" d="M 530 170 h 30 v 30 h -30 v -30" class="pa"/>
<animate id="ap12" xlink:href="#p12" attributeName="fill-opacity" fill="freeze" from="0" to="0.4" dur="0.02s" begin="ap11.end"/>
<path id="p13" d="M 560 170 h 30 v 30 h -30 v -30" class="pa"/>
<animate id="ap13" xlink:href="#p13" attributeName="fill-opacity" fill="freeze" from="0" to="0.4" dur="0.02s" begin="ap12.end"/>
<path id="p14" d="M 590 170 h 30 v 30 h -30 v -30" class="pa"/>
<animate id="ap14" xlink:href="#p14" attributeName="fill-opacity" fill="freeze" from="0" to="0.4" dur="0.02s" begin="ap13.end"/>
<path id="p15" d="M 590 140 h 30 v 30 h -30 v -30" class="pa"/>
<animate id="ap15" xlink:href="#p15" attributeName="fill-opacity" fill="freeze" from="0" to="0.4" dur="0.02s" begin="ap14.end"/>
<path id="p16" d="M 560 140 h 30 v 30 h -30 v -30" class="pa"/>
<animate id="ap16" xlink:href="#p16" attributeName="fill-opacity" fill="freeze" from="0" to="0.4" dur="0.02s" begin="ap15.end"/>
<path id="p17" d="M 560 110 h 30 v 30 h -30 v -30" class="pa"/>
<animate id="ap17" xlink:href="#p17" attributeName="fill-opacity" fill="freeze" from="0" to="0.4" dur="0.02s" begin="ap16.end"/>
<path id="p18" d="M 560 80 h 30 v 30 h -30 v -30" class="pa"/>
<animate id="ap18" xlink:href="#p18" attributeName="fill-opacity" fill="freeze" from="0" to="0.4" dur="0.02s" begin="ap17.end"/>
<path id="p19" d="M 590 80 h 30 v 30 h -30 v -30" class="pa"/>
<animate id="ap19" xlink:href="#p19" attributeName="fill-opacity" fill="freeze" from="0" to="0.4" dur="0.02s" begin="ap18.end"/>
<path id="p20" d="M 620 80 h 30 v 30 h -30 v -30" class="pa"/>
<animate id="ap20" xlink:href="#p20" attributeName="fill-opacity" fill="freeze" from="0" to="0.4" dur="0.02s" begin="ap19.end"/>
<path id="p21" d="M 620 110 h 30 v 30 h -30 v -30" class="pa"/>
<animate id="ap21" xlink:href="#p21" attributeName="fill-opacity" fill="freeze" from="0" to="0.4" dur="0.02s" begin="ap20.end"/>
<path id="p22" d="M 650 110 h 30 v 30 h -30 v -30" class="pa"/>
<animate id="ap22" xlink:href="#p22" attributeName="fill-opacity" fill="freeze" from="0" to="0.4" dur="0.02s" begin="ap21.end"/>
<path id="p23" d="M 680 110 h 30 v 30 h -30 v -30" class="pa"/>
<animate id="ap23" xlink:href="#p23" attributeName="fill-opacity" fill="freeze" from="0" to="0.4" dur="0.02s" begin="ap22.end"/>
<path id="p24" d="M 680 140 h 30 v 30 h -30 v -30" class="pa"/>
<animate id="ap24" xlink:href="#p24" attributeName="fill-opacity" fill="freeze" from="0" to="0.4" dur="0.02s" begin="ap23.end"/>
<path id="p25" d="M 680 170 h 30 v 30 h -30 v -30" class="pa"/>
<animate id="ap25" xlink:href="#p25" attributeName="fill-opacity" fill="freeze" from="0" to="0.4" dur="0.02s" begin="ap24.end"/>
<path id="p26" d="M 680 200 h 30 v 30 h -30 v -30" class="pa"/>
<animate id="ap26" xlink:href="#p26" attributeName="fill-opacity" fill="freeze" from="0" to="0.4" dur="0.02s" begin="ap25.end"/>
<path id="p27" d="M 650 200 h 30 v 30 h -30 v -30" class="pa"/>
<animate id="ap27" xlink:href="#p27" attributeName="fill-opacity" fill="freeze" from="0" to="0.4" dur="0.02s" begin="ap26.end"/>
<path id="p28" d="M 620 200 h 30 v 30 h -30 v -30" class="pa"/>
<animate id="ap28" xlink:href="#p28" attributeName="fill-opacity" fill="freeze" from="0" to="0.4" dur="0.02s" begin="ap27.end"/>
<path id="p29" d="M 620 230 h 30 v 30 h -30 v -30" class="pa"/>
<animate id="ap29" xlink:href="#p29" attributeName="fill-opacity" fill="freeze" from="0" to="0.4" dur="0.02s" begin="ap28.end"/>
<path id="p30" d="M 650 230 h 30 v 30 h -30 v -30" class="pa"/>
<animate id="ap30" xlink:href="#p30" attributeName="fill-opacity" fill="freeze" from="0" to="0.4" dur="0.02s" begin="ap29.end"/>
<path id="p31" d="M 650 260 h 30 v 30 h -30 v -30" class="pa"/>
<animate id="ap31" xlink:href="#p31" attributeName="fill-opacity" fill="freeze" from="0" to="0.4" dur="0.02s" begin="ap30.end"/>
<path id="p32" d="M 680 260 h 30 v 30 h -30 v -30" class="pa"/>
<animate id="ap32" xlink:href="#p32" attributeName="fill-opacity" fill="freeze" from="0" to="0.4" dur="0.02s" begin="ap31.end"/>
<path id="p33" d="M 710 260 h 30 v 30 h -30 v -30" class="pa"/>
<animate id="ap33" xlink:href="#p33" attributeName="fill-opacity" fill="freeze" from="0" to="0.4" dur="0.02s" begin="ap32.end"/>
<path id="p34" d="M 740 260 h 30 v 30 h -30 v -30" class="pa"/>
<animate id="ap34" xlink:href="#p34" attributeName="fill-opacity" fill="freeze" from="0" to="0.4" dur="0.02s" begin="ap33.end"/>
<path id="p35" d="M 740 230 h 30 v 30 h -30 v -30" class="pa"/>
<animate id="ap35" xlink:href="#p35" attributeName="fill-opacity" fill="freeze" from="0" to="0.4" dur="0.02s" begin="ap34.end"/>
<path id="p36" d="M 740 200 h 30 v 30 h -30 v -30" class="pa"/>
<animate id="ap36" xlink:href="#p36" attributeName="fill-opacity" fill="freeze" from="0" to="0.4" dur="0.02s" begin="ap35.end"/>
<path id="p37" d="M 770 200 h 30 v 30 h -30 v -30" class="pa"/>
<animate id="ap37" xlink:href="#p37" attributeName="fill-opacity" fill="freeze" from="0" to="0.4" dur="0.02s" begin="ap36.end"/>
<path id="p38" d="M 770 230 h 30 v 30 h -30 v -30" class="pa"/>
<animate id="ap38" xlink:href="#p38" attributeName="fill-opacity" fill="freeze" from="0" to="0.4" dur="0.02s" begin="ap37.end"/>
<path id="p39" d="M 770 260 h 30 v 30 h -30 v -30" class="pa"/>
<animate id="ap39" xlink:href="#p39" attributeName="fill-opacity" fill="freeze" from="0" to="0.4" dur="0.02s" begin="ap38.end"/>
<path id="p40" d="M 800 260 h 30 v 30 h -30 v -30" class="pa"/>
<animate id="ap40" xlink:href="#p40" attributeName="fill-opacity" fill="freeze" from="0" to="0.4" dur="0.02s" begin="ap39.end"/>
<path id="p41" d="M 800 230 h 30 v 30 h -30 v -30" class="pa"/>
<animate id="ap41" xlink:href="#p41" attributeName="fill-opacity" fill="freeze" from="0" to="0.4" dur="0.02s" begin="ap40.end"/>
<path id="p42" d="M 800 200 h 30 v 30 h -30 v -30" class="pa"/>
<animate id="ap42" xlink:href="#p42" attributeName="fill-opacity" fill="freeze" from="0" to="0.4" dur="0.02s" begin="ap41.end"/>
<path id="p43" d="M 830 200 h 30 v 30 h -30 v -30" class="pa"/>
<animate id="ap43" xlink:href="#p43" attributeName="fill-opacity" fill="freeze" from="0" to="0.4" dur="0.02s" begin="ap42.end"/>
<path id="p44" d="M 860 200 h 30 v 30 h -30 v -30" class="pa"/>
<animate id="ap44" xlink:href="#p44" attributeName="fill-opacity" fill="freeze" from="0" to="0.4" dur="0.02s" begin="ap43.end"/>
<path id="p45" d="M 860 230 h 30 v 30 h -30 v -30" class="pa"/>
<animate id="ap45" xlink:href="#p45" attributeName="fill-opacity" fill="freeze" from="0" to="0.4" dur="0.02s" begin="ap44.end"/>
<path id="p46" d="M 860 260 h 30 v 30 h -30 v -30" class="pa"/>
<animate id="ap46" xlink:href="#p46" attributeName="fill-opacity" fill="freeze" from="0" to="0.4" dur="0.02s" begin="ap45.end"/>
<path id="p47" d="M 890 260 h 30 v 30 h -30 v -30" class="pa"/>
<animate id="ap47" xlink:href="#p47" attributeName="fill-opacity" fill="freeze" from="0" to="0.4" dur="0.02s" begin="ap46.end"/>
<path id="p48" d="M 920 260 h 30 v 30 h -30 v -30" class="pa"/>
<animate id="ap48" xlink:href="#p48" attributeName="fill-opacity" fill="freeze" from="0" to="0.4" dur="0.02s" begin="ap47.end"/>
<path id="p49" d="M 950 260 h 30 v 30 h -30 v -30" class="pa"/>
<animate id="ap49" xlink:href="#p49" attributeName="fill-opacity" fill="freeze" from="0" to="0.4" dur="0.02s" begin="ap48.end"/>
<path id="p50" d="M 980 260 h 30 v 30 h -30 v -30" class="pa"/>
<animate id="ap50" xlink:href="#p50" attributeName="fill-opacity" fill="freeze" from="0" to="0.4" dur="0.02s" begin="ap49.end"/>
<path id="p51" d="M 1010 260 h 30 v 30 h -30 v -30" class="pa"/>
<animate id="ap51" xlink:href="#p51" attributeName="fill-opacity" fill="freeze" from="0" to="0.4" dur="0.02s" begin="ap50.end"/>
<path id="p52" d="M 1040 260 h 30 v 30 h -30 v -30" class="pa"/>
<animate id="ap52" xlink:href="#p52" attributeName="fill-opacity" fill="freeze" from="0" to="0.4" dur="0.02s" begin="ap51.end"/>
<path d="M 500 50 v -30 h 30" class="b"/>
<path d="M 530 50 v -30" class="n"/>
<path d="M 530 20 h 30" class="b"/>
<path d="M 530 20 v 30" class="n"/>
<path d="M 560 20 h 30 v 30" class="b"/>
<path d="M 590 50 h -30" class="n"/>
<path d="M 440 80 v -30 h 30" class="b"/>
<path d="M 470 80 v -30" class="n"/>
<path d="M 470 50 h 30" class="b"/>
<path d="M 470 50 v 30 h 30" class="n"/>
<path d="M 530 80 h -30" class="n"/>
<path d="M 560 80 v -30" class="n"/>
<path d="M 590 80 h -30 v -30 h 30" class="n"/>
<path d="M 590 50 h 30" class="b"/>
<path d="M 620 80 v -30" class="n"/>
<path d="M 620 50 h 30 v 30" class="b"/>
<path d="M 620 50 v 30" class="n"/>
<path d="M 380 110 v -30 h 30" class="b"/>
<path d="M 410 80 h 30" class="b"/>
<path d="M 410 110 h 30 v -30" class="n"/>
<path d="M 440 80 v 30" class="n"/>
<path d="M 470 80 h 30" class="n"/>
<path d="M 500 110 h -30" class="n"/>
<path d="M 500 80 h 30" class="n"/>
<path d="M 530 110 h -30" class="n"/>
<path d="M 560 110 v -30" class="n"/>
<path d="M 560 110 v -30 h 30" class="n"/>
<path d="M 620 110 h -30" class="n"/>
<path d="M 650 110 v -30" class="n"/>
<path d="M 650 80 h 30" class="b"/>
<path d="M 650 80 v 30" class="n"/>
<path d="M 680 110 v -30" class="n"/>
<path d="M 680 80 h 30 v 30" class="b"/>
<path d="M 680 80 v 30" class="n"/>
<path d="M 320 140 v -30 h 30" class="b"/>
<path d="M 350 140 v -30" class="n"/>
<path d="M 350 110 h 30" class="b"/>
<path d="M 350 110 v 30" class="n"/>
<path d="M 380 140 v -30" class="n"/>
<path d="M 380 110 v 30 h 30" class="n"/>
<path d="M 410 110 h 30 v 30" class="n"/>
<path d="M 440 110 v 30" class="n"/>
<path d="M 470 140 v -30" class="n"/>
<path d="M 500 140 h -30 v -30 h 30" class="n"/>
<path d="M 500 110 h 30" class="n"/>
<path d="M 530 140 h -30" class="n"/>
<path d="M 530 140 h 30 v -30" class="n"/>
<path d="M 560 110 v 30" class="n"/>
<path d="M 590 110 h 30 v 30 h -30" class="n"/>
<path d="M 620 110 v 30" class="n"/>
<path d="M 680 140 h -30" class="n"/>
<path d="M 710 110 h 30" class="b"/>
<path d="M 710 140 h 30 v -30" class="n"/>
<path d="M 740 110 h 30 v 30" class="b"/>
<path d="M 740 110 v 30" class="n"/>
<path d="M 260 170 v -30 h 30" class="b"/>
<path d="M 290 170 h -30" class="n"/>
<path d="M 290 140 h 30" class="b"/>
<path d="M 320 170 v -30" class="n"/>
<path d="M 320 140 v 30" class="n"/>
<path d="M 350 170 v -30" class="n"/>
<path d="M 350 140 v 30" class="n"/>
<path d="M 380 140 h 30" class="n"/>
<path d="M 410 170 h -30" class="n"/>
<path d="M 440 170 h -30" class="n"/>
<path d="M 470 140 h 30" class="n"/>
<path d="M 500 170 h -30" class="n"/>
<path d="M 500 140 h 30" class="n"/>
<path d="M 530 170 h -30" class="n"/>
<path d="M 530 140 h 30 v 30 h -30" class="n"/>
<path d="M 560 140 v 30 h 30" class="n"/>
<path d="M 590 140 h 30 v 30" class="n"/>
<path d="M 620 140 v 30 h 30 v -30" class="n"/>
<path d="M 680 170 v -30 h -30 v 30" class="n"/>
<path d="M 680 140 v 30" class="n"/>
<path d="M 710 140 h 30 v 30 h -30" class="n"/>
<path d="M 740 140 v 30" class="n"/>
<path d="M 770 170 v -30" class="n"/>
<path d="M 770 140 h 30" class="b"/>
<path d="M 770 140 v 30" class="n"/>
<path d="M 800 170 v -30" class="n"/>
<path d="M 800 140 h 30 v 30" class="b"/>
<path d="M 800 140 v 30" class="n"/>
<path d="M 200 200 v -30 h 30" class="b"/>
<path d="M 230 200 h -30" class="n"/>
<path d="M 230 170 h 30" class="b"/>
<path d="M 260 200 h -30" class="n"/>
<path d="M 260 170 h 30" class="n"/>
<path d="M 290 200 h -30" class="n"/>
<path d="M 320 200 h -30" class="n"/>
<path d="M 350 200 h 30 v -30" class="n"/>
<path d="M 380 200 v -30 h 30" class="n"/>
<path d="M 410 170 h 30" class="n"/>
<path d="M 440 200 h -30" class="n"/>
<path d="M 470 170 h 30" class="n"/>
<path d="M 500 170 h 30" class="n"/>
<path d="M 530 170 h 30" class="n"/>
<path d="M 560 200 h -30" class="n"/>
<path d="M 560 170 h 30" class="n"/>
<path d="M 590 200 h -30" class="n"/>
<path d="M 590 200 h 30 v -30" class="n"/>
<path d="M 650 200 v -30 h -30 v 30" class="n"/>
<path d="M 650 170 v 30" class="n"/>
<path d="M 680 200 v -30" class="n"/>
<path d="M 680 170 v 30" class="n"/>
<path d="M 710 200 v -30" class="n"/>
<path d="M 710 200 v -30 h 30" class="n"/>
<path d="M 740 200 h 30 v -30" class="n"/>
<path d="M 770 170 v 30" class="n"/>
<path d="M 800 200 h 30 v -30" class="n"/>
<path d="M 830 170 h 30" class="b"/>
<path d="M 830 170 v 30" class="n"/>
<path d="M 860 200 v -30" class="n"/>
<path d="M 860 170 h 30 v 30" class="b"/>
<path d="M 860 170 v 30" class="n"/>
<path d="M 140 230 v -30 h 30" class="b"/>
<path d="M 170 230 h -30" class="n"/>
<path d="M 170 200 h 30" class="b"/>
<path d="M 200 230 v -30" class="n"/>
<path d="M 200 230 v -30 h 30" class="n"/>
<path d="M 230 200 h 30" class="n"/>
<path d="M 260 230 h -30" class="n"/>
<path d="M 260 200 h 30" class="n"/>
<path d="M 290 200 h 30 v 30 h -30" class="n"/>
<path d="M 320 200 v 30 h 30 v -30" class="n"/>
<path d="M 350 230 v -30 h 30" class="n"/>
<path d="M 410 230 h -30" class="n"/>
<path d="M 410 200 h 30 v 30 h -30" class="n"/>
<path d="M 440 200 v 30 h 30 v -30" class="n"/>
<path d="M 470 200 v 30 h 30 v -30" class="n"/>
<path d="M 500 200 v 30" class="n"/>
<path d="M 530 230 v -30" class="n"/>
<path d="M 560 230 v -30 h -30 v 30" class="n"/>
<path d="M 560 230 v -30 h 30" class="n"/>
<path d="M 590 200 h 30 v 30" class="n"/>
<path d="M 620 200 v 30" class="n"/>
<path d="M 680 230 h -30" class="n"/>
<path d="M 680 230 h 30 v -30" class="n"/>
<path d="M 710 200 v 30" class="n"/>
<path d="M 740 230 v -30" class="n"/>
<path d="M 740 230 v -30 h 30" class="n"/>
<path d="M 800 230 v -30" class="n"/>
<path d="M 800 230 v -30 h 30" class="n"/>
<path d="M 860 230 h -30" class="n"/>
<path d="M 890 200 h 30" class="b"/>
<path d="M 920 230 h -30" class="n"/>
<path d="M 920 200 h 30 v 30" class="b"/>
<path d="M 950 230 h -30" class="n"/>
<path d="M 80 260 v -30 h 30" class="b"/>
<path d="M 110 230 h 30" class="b"/>
<path d="M 140 260 h -30" class="n"/>
<path d="M 140 230 h 30" class="n"/>
<path d="M 170 260 h -30" class="n"/>
<path d="M 200 260 v -30" class="n"/>
<path d="M 200 230 v 30" class="n"/>
<path d="M 230 260 v -30" class="n"/>
<path d="M 260 260 v -30 h -30 v 30" class="n"/>
<path d="M 260 230 v 30 h 30" class="n"/>
<path d="M 290 230 h 30" class="n"/>
<path d="M 320 230 h 30" class="n"/>
<path d="M 380 260 h -30" class="n"/>
<path d="M 380 230 h 30" class="n"/>
<path d="M 410 230 h 30 v 30 h -30" class="n"/>
<path d="M 470 260 v -30 h -30 v 30" class="n"/>
<path d="M 500 260 v -30 h -30 v 30" class="n"/>
<path d="M 500 230 v 30" class="n"/>
<path d="M 530 260 h 30 v -30" class="n"/>
<path d="M 560 230 v 30" class="n"/>
<path d="M 590 260 v -30" class="n"/>
<path d="M 590 230 v 30" class="n"/>
<path d="M 620 260 v -30" class="n"/>
<path d="M 620 230 v 30" class="n"/>
<path d="M 650 230 h 30 v 30" class="n"/>
<path d="M 710 260 v -30 h -30 v 30" class="n"/>
<path d="M 710 230 v 30" class="n"/>
<path d="M 740 260 v -30" class="n"/>
<path d="M 740 230 v 30" class="n"/>
<path d="M 770 260 v -30" class="n"/>
<path d="M 770 230 v 30" class="n"/>
<path d="M 800 260 v -30" class="n"/>
<path d="M 800 230 v 30" class="n"/>
<path d="M 830 230 h 30 v 30 h -30" class="n"/>
<path d="M 860 230 v 30" class="n"/>
<path d="M 890 230 h 30 v 30 h -30" class="n"/>
<path d="M 950 260 h -30 v -30 h 30" class="n"/>
<path d="M 950 230 h 30" class="b"/>
<path d="M 980 260 v -30" class="n"/>
<path d="M 980 230 h 30 v 30" class="b"/>
<path d="M 980 230 v 30" class="n"/>
<path d="M 50 290 h -30 v -30 h 30" class="b"/>
<path d="M 50 260 h 30" class="b"/>
<path d="M 80 290 h -30" class="b"/>
<path d="M 110 290 h -30" class="b"/>
<path d="M 110 290 v -30" class="n"/>
<path d="M 140 290 h -30" class="b"/>
<path d="M 110 290 v -30 h 30" class="n"/>
<path d="M 170 290 h -30" class="b"/>
<path d="M 140 260 h 30" class="n"/>
<path d="M 200 290 h -30" class="b"/>
<path d="M 230 290 h -30" class="b"/>
<path d="M 260 290 h -30" class="b"/>
<path d="M 290 290 h -30" class="b"/>
<path d="M 260 260 h 30 v 30" class="n"/>
<path d="M 320 290 h -30" class="b"/>
<path d="M 290 260 v 30" class="n"/>
<path d="M 320 290 v -30" class="n"/>
<path d="M 350 290 h -30" class="b"/>
<path d="M 320 260 v 30" class="n"/>
<path d="M 380 290 h -30" class="b"/>
<path d="M 350 260 h 30 v 30" class="n"/>
<path d="M 410 290 h -30" class="b"/>
<path d="M 380 260 v 30" class="n"/>
<path d="M 440 290 h -30" class="b"/>
<path d="M 410 260 h 30 v 30" class="n"/>
<path d="M 470 290 h -30" class="b"/>
<path d="M 440 260 v 30" class="n"/>
<path d="M 500 290 h -30" class="b"/>
<path d="M 530 290 h -30" class="b"/>
<path d="M 530 290 v -30" class="n"/>
<path d="M 560 290 h -30" class="b"/>
<path d="M 530 290 v -30 h 30" class="n"/>
<path d="M 590 290 h -30" class="b"/>
<path d="M 590 290 v -30" class="n"/>
<path d="M 620 290 h -30" class="b"/>
<path d="M 590 260 v 30" class="n"/>
<path d="M 650 290 h -30" class="b"/>
<path d="M 650 290 v -30" class="n"/>
<path d="M 680 290 h -30" class="b"/>
<path d="M 650 260 v 30" class="n"/>
<path d="M 710 290 h -30" class="b"/>
<path d="M 740 290 h -30" class="b"/>
<path d="M 770 290 h -30" class="b"/>
<path d="M 770 290 v -30" class="n"/>
<path d="M 800 290 h -30" class="b"/>
<path d="M 770 260 v 30" class="n"/>
<path d="M 830 290 h -30" class="b"/>
<path d="M 860 290 h -30" class="b"/>
<path d="M 830 260 h 30 v 30" class="n"/>
<path d="M 890 290 h -30" class="b"/>
<path d="M 860 260 v 30" class="n"/>
<path d="M 920 290 h -30" class="b"/>
<path d="M 890 260 h 30" class="n"/>
<path d="M 950 290 h -30" class="b"/>
<path d="M 920 260 h 30" class="n"/>
<path d="M 980 290 h -30" class="b"/>
<path d="M 1010 290 h -30" class="b"/>
<path d="M 1010 260 h 30" class="b"/>
<path d="M 1040 290 h -30" class="b"/>
<path d="M 1040 260 h 30 v 30 h -30" class="b"/>
</svg>